<svg xmlns="http://www.w3.org/2000/svg" xmlns:xlink="http://www.w3.org/1999/xlink" viewBox="0 0 1920 1080"><defs><style>.cls-1,.cls-16{fill:none;}.cls-2{isolation:isolate;}.cls-3{fill:#f2f2f2;}.cls-4{fill:#e6e7e8;}.cls-5{fill:#d1d3d4;}.cls-6{fill:#b3b3b3;}.cls-7{fill:#bcbec0;}.cls-8{fill:#e6e6e6;}.cls-9{clip-path:url(#clip-path);}.cls-10{clip-path:url(#clip-path-2);}.cls-11{clip-path:url(#clip-path-3);}.cls-12{opacity:0.4;}.cls-13{fill:#fff;}.cls-13,.cls-16{stroke:#fff;stroke-miterlimit:10;stroke-width:2.86px;}.cls-14{clip-path:url(#clip-path-4);}.cls-15{clip-path:url(#clip-path-5);}.cls-17{clip-path:url(#clip-path-6);}.cls-18{clip-path:url(#clip-path-7);}.cls-19{fill:url(#linear-gradient);}.cls-20{fill:url(#linear-gradient-2);}.cls-21{fill:url(#linear-gradient-3);}.cls-22{fill:url(#linear-gradient-4);}.cls-23{fill:url(#linear-gradient-5);}.cls-24{fill:url(#linear-gradient-6);}.cls-25{fill:url(#linear-gradient-7);}.cls-26{mix-blend-mode:soft-light;}.cls-27{fill:#604a30;}.cls-28{fill:#896a4b;}.cls-29{fill:#493622;}.cls-30{fill:#b19272;}.cls-31{fill:#ceb197;}.cls-32{fill:#006837;}.cls-33{fill:#009245;}.cls-34{fill:#383838;}</style><clipPath id="clip-path"><rect class="cls-1" x="-6" y="10" width="1926" height="653"/></clipPath><clipPath id="clip-path-2"><rect class="cls-1" x="-978.79" y="-235.96" width="1267.18" height="965.01" transform="translate(-690.4 493.09) rotate(180)"/></clipPath><clipPath id="clip-path-3"><polygon class="cls-1" points="533.97 -174.76 533.97 677.99 -978.79 678 -978.79 -174.76 533.97 -174.76"/></clipPath><clipPath id="clip-path-4"><rect class="cls-1" x="1419.11" y="-226.21" width="1479.68" height="965.01"/></clipPath><clipPath id="clip-path-5"><polygon class="cls-1" points="1386.03 677.6 1386.03 -175.15 2898.79 -175.16 2898.79 677.6 1386.03 677.6"/></clipPath><clipPath id="clip-path-6"><rect class="cls-1" x="288.39" y="-273" width="1136.57" height="1197"/></clipPath><clipPath id="clip-path-7"><polygon class="cls-1" points="-91.7 677.6 -91.7 -175.15 1421.06 -175.16 1421.06 677.6 -91.7 677.6"/></clipPath><linearGradient id="linear-gradient" x1="960" y1="607" x2="960" y2="1079" gradientUnits="userSpaceOnUse"><stop offset="0" stop-color="#fff" stop-opacity="0"/><stop offset="0.01" stop-color="#fcfdfc" stop-opacity="0.02"/><stop offset="0.1" stop-color="#c9e3c4" stop-opacity="0.32"/><stop offset="0.2" stop-color="#a0cc96" stop-opacity="0.56"/><stop offset="0.29" stop-color="#7fbb72" stop-opacity="0.75"/><stop offset="0.38" stop-color="#68af59" stop-opacity="0.89"/><stop offset="0.47" stop-color="#5aa849" stop-opacity="0.97"/><stop offset="0.55" stop-color="#55a544"/></linearGradient><linearGradient id="linear-gradient-2" x1="970.25" y1="643.66" x2="970.25" y2="916.3" gradientUnits="userSpaceOnUse"><stop offset="0" stop-color="#fff" stop-opacity="0"/><stop offset="0.01" stop-color="#fdfcfb" stop-opacity="0.02"/><stop offset="0.1" stop-color="#e3d5c8" stop-opacity="0.32"/><stop offset="0.2" stop-color="#cdb59d" stop-opacity="0.56"/><stop offset="0.29" stop-color="#bc9c7d" stop-opacity="0.75"/><stop offset="0.39" stop-color="#b08a65" stop-opacity="0.89"/><stop offset="0.47" stop-color="#a88057" stop-opacity="0.97"/><stop offset="0.55" stop-color="#a67c52"/></linearGradient><linearGradient id="linear-gradient-3" x1="304.53" y1="643.63" x2="304.53" y2="643.66" xlink:href="#linear-gradient-2"/><linearGradient id="linear-gradient-4" x1="310.48" y1="642.98" x2="310.48" y2="643.17" xlink:href="#linear-gradient-2"/><linearGradient id="linear-gradient-5" x1="307.08" y1="643.17" x2="307.08" y2="643.63" xlink:href="#linear-gradient-2"/><linearGradient id="linear-gradient-6" x1="318.81" y1="642" x2="318.81" y2="642.59" xlink:href="#linear-gradient-2"/><linearGradient id="linear-gradient-7" x1="313.54" y1="642.59" x2="313.54" y2="642.98" xlink:href="#linear-gradient-2"/></defs><title>foggy_background</title><g class="cls-2"><g id="Layer_1" data-name="Layer 1"><g id="background"><rect class="cls-3" y="-2" width="1920" height="610"/><path class="cls-4" d="M1741.71,531.11c-5.46-9-13.15-16.49-19.85-24.65-19.27-23.48-34.61-49.63-47.46-77.89-4.89-10.76-12.34-22.08-21.43-28.28-22-15-38-35.19-52.67-57.72-15.15-23.2-31.83-45.22-47.84-67.75h0l-23.86-27.91L1507,216.36,1483.27,127h-4.32c-4.9,8.37-12.16,11.4-20.48,8.36-19.81-7.25-37.91-3.36-56,6.94a30.76,30.76,0,0,1-19.26,3.29c-15.55-2.64-30.74-7.81-46.29-10.31-4.28-.69-11.82,3.07-13.68,7.08-15.67,33.73-30.36,68-45.35,102.11q-53.36,79.71-106.75,159.4c-22.95,34.08-44.55,69.46-69.81,101.42C1074,540,1043.11,571.38,1013.59,604c-3,3.27-7.08,5.31-10.66,7.93l1.9,5.23c19.82,5,39.42,12.17,59.49,14.5,58.26,6.76,116.63,13.59,175.12,16.61,61.09,3.16,122.44,4.27,183.55,2.06,94.55-3.43,189-9.61,283.44-16.46,27.38-2,54.38-10.26,81.56-15.65v-7.05C1772.63,584.45,1757.62,557.46,1741.71,531.11ZM1332,204.6h0a20.09,20.09,0,0,1,.11,2.19A20.14,20.14,0,0,0,1332,204.6ZM1520,254c-3.59-2.56-7-5.55-10.66-7.94,3.66,2.39,7.07,5.38,10.66,7.94q0,2.31,0,4.61Q1520,256.27,1520,254Z"/><path class="cls-4" d="M2008.62,568.29c-4.41-7.3-10.62-13.31-16-19.9-15.56-19-27.95-40.08-38.32-62.89-4-8.69-10-17.83-17.3-22.84-17.74-12.1-30.65-28.42-42.52-46.61-12.23-18.73-25.7-36.51-38.63-54.71h0l-19.27-22.53-17.43-24.67L1799.95,242h-3.49c-4,6.76-9.82,9.21-16.53,6.75-16-5.86-30.61-2.72-45.18,5.6A24.84,24.84,0,0,1,1719.2,257c-12.55-2.13-24.82-6.3-37.38-8.33-3.46-.56-9.54,2.48-11,5.72-12.65,27.24-24.52,54.91-36.62,82.45q-43.08,64.36-86.2,128.7c-18.53,27.52-36,56.09-56.36,81.89-22.12,28-47,53.36-70.88,79.73-2.39,2.64-5.71,4.29-8.6,6.4l1.53,4.22c16,4,31.83,9.82,48,11.71,47,5.46,94.17,11,141.4,13.41,49.33,2.55,98.87,3.45,148.21,1.66,76.34-2.77,152.64-7.76,228.86-13.29,22.11-1.61,43.91-8.28,65.85-12.63v-5.69C2033.59,611.36,2021.47,589.57,2008.62,568.29ZM1677.8,304.65h0a16.22,16.22,0,0,1,.09,1.77A16.26,16.26,0,0,0,1677.8,304.65Zm151.81,39.86c-2.9-2.06-5.66-4.48-8.61-6.41,3,1.93,5.71,4.35,8.61,6.41q0,1.86,0,3.72Q1829.62,346.38,1829.61,344.52Z"/><path class="cls-4" d="M646.21,534.36c-5.81-8.35-14-15.24-21.13-22.77-20.51-21.69-36.85-45.86-50.53-72-5.21-9.95-13.14-20.4-22.82-26.13-23.39-13.84-40.41-32.51-56.07-53.33-16.13-21.44-33.89-41.78-50.94-62.6h0l-25.41-25.78-23-28.23L371.05,161h-4.6c-5.22,7.73-13,10.54-21.8,7.73-21.09-6.7-40.36-3.11-59.57,6.41a37.11,37.11,0,0,1-20.5,3c-16.55-2.44-32.72-7.21-49.29-9.53-4.56-.64-12.58,2.84-14.56,6.54C184,206.36,168.4,238,152.44,269.53Q95.63,343.18,38.79,416.8C14.36,448.29-8.65,481-35.53,510.5c-29.16,32-62,61.06-93.46,91.23-3.15,3-7.53,4.91-11.34,7.32l2,4.83c21.1,4.59,42,11.24,63.34,13.39,62,6.25,124.17,12.55,186.44,15.34,65,2.92,130.36,3.95,195.42,1.9,100.66-3.17,201.26-8.88,301.77-15.21,29.16-1.84,57.9-9.48,86.83-14.46v-6.51C679.13,583.64,663.15,558.7,646.21,534.36ZM210,232.69h0a16.13,16.13,0,0,1,.12,2A16.17,16.17,0,0,0,210,232.69ZM410.16,278.3c-3.82-2.36-7.46-5.12-11.35-7.34,3.9,2.21,7.53,5,11.35,7.34q0,2.13,0,4.26Q410.17,280.43,410.16,278.3Z"/><path class="cls-5" d="M1969.46,166.54a30.13,30.13,0,0,0-12,2.46,43.51,43.51,0,0,0,.53-6.76c0-22.27-16.8-40.33-37.53-40.33a35.5,35.5,0,0,0-20.36,6.46c2.61-24.47-10.25-47.5-32.23-54.65C1847.28,67,1825,76.3,1812.14,95a66.3,66.3,0,0,0-4.53-16.46c-11.43-34.33-45.53-54-76.41-44-21.29,6.92-35.51,26.16-38.71,48.74-12.84-18.71-35.14-28-55.72-21.29-22,7.15-34.85,30.18-32.23,54.65a35.5,35.5,0,0,0-20.36-6.46c-20.73,0-37.53,18.06-37.53,40.33a43.51,43.51,0,0,0,.53,6.76,30.13,30.13,0,0,0-12-2.46c-15.29,0-27.68,11.16-27.68,24.92s12.39,24.92,27.68,24.92a30,30,0,0,0,13.1-3c10.41,8.18,29,13.62,50.11,13.62,15.12,0,28.89-2.78,39.33-7.35,14.79,10.47,46.15,17.7,82.45,17.7,31.89,0,60-5.58,76.33-14,3.18.2,6.44.3,9.78.3,16.79,0,31.94-2.59,42.76-6.76,6.41,12.54,29.58,21.84,57.22,21.84,21.15,0,39.7-5.45,50.11-13.62a30,30,0,0,0,13.1,3c15.29,0,27.68-11.16,27.68-24.92S1984.75,166.54,1969.46,166.54Z"/><path class="cls-5" d="M289.73,213.32a16.62,16.62,0,0,0-6.62,1.36,24,24,0,0,0,.29-3.73c0-12.28-9.27-22.24-20.7-22.24a19.58,19.58,0,0,0-11.23,3.56c1.44-13.49-5.65-26.19-17.77-30.13-11.35-3.69-23.65,1.42-30.72,11.74a36.56,36.56,0,0,0-2.5-9.08c-6.3-18.93-25.11-29.78-42.13-24.24C146.62,144.38,138.78,155,137,167.43c-7.08-10.32-19.38-15.43-30.72-11.74-12.12,3.94-19.21,16.64-17.77,30.13a19.58,19.58,0,0,0-11.23-3.56c-11.43,0-20.7,10-20.7,22.24a24,24,0,0,0,.29,3.73,16.61,16.61,0,0,0-6.62-1.36C41.83,206.88,35,213,35,220.62s6.83,13.74,15.27,13.74a16.55,16.55,0,0,0,7.22-1.63c5.74,4.51,16,7.51,27.63,7.51a55.25,55.25,0,0,0,21.69-4.06c8.16,5.78,25.45,9.76,45.46,9.76,17.58,0,33.06-3.08,42.09-7.74,1.75.11,3.55.17,5.39.17,9.26,0,17.61-1.43,23.58-3.73,3.53,6.92,16.31,12,31.55,12,11.66,0,21.89-3,27.63-7.51a16.55,16.55,0,0,0,7.22,1.63c8.43,0,15.27-6.15,15.27-13.74S298.17,213.32,289.73,213.32Z"/><path class="cls-5" d="M488.75,563.15a8.43,8.43,0,0,0-2.5,1.27c-4-.54-8.13-.79-12.1-1.66-17-3.72-31.84-12.28-46-22.3a35.18,35.18,0,0,0-5.36-2.6q0-14.36-.08-28.71l-5.79-.08q-.06,14.41-.11,28.81.05-14.4.11-28.81l5.79.08.31.12c3.47,0,4.9-1.7,4.17-5.22a2.7,2.7,0,0,1-.77.09,23.6,23.6,0,0,0-4.48-.86,23.65,23.65,0,0,1,4.48.86,2.68,2.68,0,0,0,.77-.09c.37-2.12.82-4-2.2-4.86-1.05-.29-2.23-2.4-2.3-3.74-.24-4.81,0-9.65,0-14.48,5.86-1,11.75-1.86,17.59-3,12.23-2.31,24.36-5,35-12.09,2.29-1.51,6.21-3.21,4-6.92-2.39-4-4.75.37-7.13,1-2.79-.36-5.62-.53-8.37-1.12-16.68-3.56-30.66-12.57-43.91-23,.21-2,.47-4.08.6-6.12.58-9.16,1.11-18.32,1.67-27.48a48.29,48.29,0,0,1-1.61-6.82c-.33-3.52-.24-7.09-.32-10.64l.58-3.73c2.72-.71,5.52-1.23,8.16-2.16,17.19-6.1,33.74-13.52,46.47-27.37,4-4.36,6.77-9.95,9.75-15.19.51-.9-.8-2.89-1.27-4.38a21.35,21.35,0,0,0-3.92,1.6c-.71.46-1,1.56-1.51,2.37a108.37,108.37,0,0,1-35.64,6.65c-20.63.54-39.54-4.11-55-18.89-8.17-7.82-15.54-16.51-23.75-24.28-6.76-6.4-6.43-14-5.5-22.3,1.79,0,3.44.29,4.91-.09,1.15-.3,2.08-1.46,3.1-2.23-1-.81-1.86-2-3-2.32-1.59-.4-3.35-.1-5.12-.1v-9.12c1.87,0,3.52.3,5-.1,1.14-.31,2.06-1.49,3.08-2.28-1-.76-1.93-1.91-3.06-2.17a22.28,22.28,0,0,0-5-.1v-9.39a27.37,27.37,0,0,0,5.43-.1c1-.21,1.76-1.37,2.63-2.11-.84-.79-1.57-2-2.55-2.28a29.81,29.81,0,0,0-5.63-.37V233.11c1.74,0,3.39.33,4.82-.1,1.24-.38,2.23-1.63,3.34-2.49-1.08-.7-2.08-1.75-3.25-2a24.72,24.72,0,0,0-5.1-.09c0-7.28-.08-13.74,0-20.2.07-3.89-1-8,2.32-11.38.75-.76.7-3.58-.06-4.48-3.43-4-2.21-8.24-1.59-12.71.76-5.48,1.46-11.13-3-16.75-3.54,6.3-4.62,12.13-3.07,18.5.88,3.61,1.48,7-1.12,10.46-.93,1.23-.33,3.85,0,5.77.15,1,1.67,1.82,1.68,2.74.13,9.28.08,18.57.08,26.55l-7.57,3.7,7.38,3.85v8.7l-7.38,3.92,7.38,3.38v6.85l-7.39,3.58,7.39,3.67v7.83c-1.65,0-3.14-.31-4.42.09-1.12.35-2,1.49-3,2.28,1,.79,1.89,1.93,3,2.29a19.27,19.27,0,0,0,4.64.34c0,4.3.12,8.17-.07,12a6.91,6.91,0,0,1-1.41,3.9c-13.42,15.74-27.61,30.62-44.71,42.3a56.94,56.94,0,0,1-38.63,9.84c-13-1.19-25.33-4.92-37.46-9.58-1.62-1.61-2-5.61-5.45-3.76s-1.64,5.06-.19,7c5.08,6.91,9.75,14.42,16,20.07,14.38,13,32.13,18.55,50.9,21l.36,3.68v12.38c-2.85,1.09-6,1.75-4.57,5.81a6.44,6.44,0,0,1,.77,0,34.91,34.91,0,0,1,5-.72,34.83,34.83,0,0,0-5,.72,6.35,6.35,0,0,0-.77,0c-.71,3.51.42,5.43,4.17,5.12l.26,26.17-.37.3c-16.39,13.3-33.48,25-55.34,26.24-2-1.13-4-4.33-6.39-1.3-2.51,3.18.62,5,2.69,6.45a52.87,52.87,0,0,0,9,5.14c15.18,6.68,31.39,8.75,47.59,10.77l.21,4.82c-.7,5.31-1.44,10.61-2,15.93-.09.8.52,1.69.8,2.53l1.19,4.8q-.07,14.4-.14,28.79a47.11,47.11,0,0,0-5.75,2.93c-18.47,12.72-37.6,23.62-60.79,23.53-2.69-.87-5-4.87-8.26-1v2.91c4.14,2.56,8,6,12.49,7.51,9.52,3.21,19.39,5.33,29.06,8.1,1.72.49,3.18,1.9,4.76,2.89q0,1.88,0,3.76l5.69,1.95.2.08h0l-.2-.08-5.69-1.95v30.28c-4.17,1.2-8.05,1.59-5.36,6.68a1,1,0,0,0,0,.68c-.77,4.09,1.83,4.92,4.88,5.32l.23.08.13-.21v10.47h5.76q0-5.3,0-10.6l.21.06-.21-.06q0,5.3,0,10.6l47.5,0-.09-10.58q0,5.29.09,10.58l7.4-.05,66.64,0h0l7.39.13q.1-5.28.2-10.56a1.24,1.24,0,0,0,.58-.24,1.24,1.24,0,0,1-.58.24q-.1,5.28-.2,10.56l49.42-.11H452c0-3.63,0-7.07,0-10.51h0l4-5.75c3.77-5.34-1.59-5.24-4.25-7v-31.9l.06-3.93-6.67.22h0l6.67-.21c3.75-1,7.49-2,11.25-2.9,10.24-2.56,20.55-5,29.15-11.68,1.19-.93,1.25-3.4,1.83-5.15A47.3,47.3,0,0,0,488.75,563.15ZM284,549.53c-5.18,2.95-10.31,6-15.55,8.82,5.24-2.83,10.37-5.87,15.55-8.82l.8-.82Zm12.11-40.3.11,0h0Zm2.6-75.93-.12-26.05h0l.26.09-.26-.09Zm23.37,197.93h0l.24.06ZM393.25,482.8H309.92L301,482l8.88.81h83.32a5.48,5.48,0,0,1,1.48-1.94A5.48,5.48,0,0,0,393.25,482.8Zm6.63,0h0Zm14.31-75.62-.08,0,.08,0ZM414,385.89v5.34c0-1.81,0-3.57,0-5.34h0Zm31.75,201.78,1.32-.22-1.32.22a3.27,3.27,0,0,1-.28.8A3.21,3.21,0,0,0,445.73,587.67Z"/><path class="cls-5" d="M1552.8,578.47l.09.37a5.65,5.65,0,0,0-4.12-1.79h-.06c-.28-.59-1.18-.83-2.58-.87-3.36-.1-6.72-.42-10.42-.67,3.62-7.35,3.08-12.25-2.38-14.26-4.71-1.73-10.17-1.42-15.87-2.07-1.67-6.93-3.66-15-11.77-18.82-8.47-3.95-15.47-.73-20.58,5.87l-6.62-3.23a10.9,10.9,0,0,0-11.63-4.72c-2.16.61-5,1.73-5.86,3.45-1.66,3.31-2.14,7.22-3.21,11.23a46.83,46.83,0,0,1-5.24,0c-7.36-.73-13.11,1.12-16.4,8.56-.61,1.37-3.73,2.21-5.73,2.28-4.71.17-7.59,2.37-6.14,6.64,1,3,4,5.88,6.87,7.69s6.49,2.18,9.77,3.18c-2.24,7.62-.16,11.4,6.21,11.7a23.19,23.19,0,0,0,4.92-.82c1.17,2.58,2.68,5.06,3.46,7.75,3.58,12.4,11.07,21.48,22.28,27.77a6.08,6.08,0,0,1,2.41,4.71c-.36,7.83-1.16,15.64-1.8,23.46h8.06l-.86-43.25c7-3,14.08-5.85,21-9.11,4.91-2.32,9.56-5.19,14.32-7.82,6.15,0,12.18-.27,14.93-7.35a45,45,0,0,0,6,1.34c3.78.32,7.64.81,11.37.35,3.41-.42,5.06-3.27,4.46-6.67C1557.19,580.68,1556.32,577.81,1552.8,578.47Zm-48.73,22.64c-6.09,2-12.42,3.32-18.64,4.93h0q0-5.06.1-10.12l-5-5.42v32.75c-8.72-4.41-14.47-10.31-18.3-18.39-2.2-4.64-5-9-7.51-13.5.61-2.62,2.19-2.84,3.67-1,3.48,4.39,6.94,2.94,10.27.14,4.05-3.4,7.91-4.08,11.88,0l5,5.42c8,4.15,15.59,3.23,23.36-.91,1.76-.94,4.62.2,7,.38C1511.94,597.33,1508.18,599.74,1504.07,601.11Z"/><path class="cls-6" d="M358.81,450a38,38,0,0,0-7.69,1.43,399.8,399.8,0,0,1-106.25,15.93q-31.43.55-62.89-.8a342.48,342.48,0,0,1-63.59-8.7c-10.09-2.36-20.09-5.16-30.19-7.49-1.88-.43-4.05.43-6.09.69v3.37c.18.31.38.62.53.94,3.53,7.76,6.95,15.64,16.87,17.1l2.47,5a46.1,46.1,0,0,1,2.47,5.26c.86,2.61,2.43,3.73,5.13,3.23l2.37,3.87c1.68,2.88,3.43,5.72,5,8.66a3.41,3.41,0,0,0,3.51,2c5.57-.06,11.14.06,16.7.11v19.11l4.52.47.07.55-.58,11.35.59-.16c.48-.21,1-.51,1.44-.73-.48.22-1,.53-1.44.73l-.59.16h0l-.46.14h0a8.41,8.41,0,0,1-.89.23,8.41,8.41,0,0,0,.89-.23c-7.65,0-15,0-22.26,0-3.15,0-6.3.18-9.46.27,0,5.39,0,10.77,0,16.29,9.79,0,19.57,0,29.34,0a14.69,14.69,0,0,1,2.85.57h16.75a11.79,11.79,0,0,1,2.56-.58q60.49,0,121,0a11.6,11.6,0,0,1,2.55.58l16.84,0a15.8,15.8,0,0,1,2.9-.55c10.12,0,20.23,0,30.35,0,1,0,2-.09,3.09-.14,0-4,.05-7.64,0-11.28,0-1.61-.33-3.21-.5-4.82h0a27.57,27.57,0,0,0-3-.32q-14.88,0-29.76,0h-2.12l-.1,0-.35-.17-.62-.32h0c-.2-.1-.39-.2-.59-.28h0c.2.08.39.18.59.28l-.61-11a.75.75,0,0,0,.07-.55l5.08-.51V500.6c6.42,0,12.85,0,19.26-.19a4.5,4.5,0,0,0,3.06-1.67c2.07-2.85,3.87-5.9,5.77-8.87l2.3-3.39c2.9-.1,3.9-2.19,4.8-4.47.68-1.72,1.51-3.39,2.28-5.08l2.07-4.44c2.45-.87,5.47-1.12,7.24-2.74a32.65,32.65,0,0,0,9.84-16C362.55,451.22,361.38,449.82,358.81,450ZM214.87,530.9l-.06,1.12c-1,.08-2,.22-3,.23q-25.48,0-51,0a15.7,15.7,0,0,1-3.35-.75c-3.48.18-7,.39-10.44.52,3.48-.13,7-.34,10.44-.52l0-.59V520.31l4.32-.68-4.88.56,4.88-.56.23-19q17.55-.07,35.09-.13c5.9,0,11.79,0,17.69.06l.12,1.11Zm69.64,0,0,.57a7.34,7.34,0,0,1-2.21.76q-25.34.06-50.67,0A11.55,11.55,0,0,1,230,532l-.07-1.11q0-14.62,0-29.23l.16-1.1,50.41.11.24,19,3.82.67v10.59h0Z"/><path class="cls-6" d="M138.44,625.34c-.83,9.54-1.59,19.09-2.37,28.64h27.54c-.77-9.57-1.52-19.13-2.38-28.69-.05-.6-.93-1.12-1.42-1.68l-20.28.05C139.16,624.22,138.49,624.76,138.44,625.34Z"/><path class="cls-6" d="M284,550l-1.31,73.6a17.37,17.37,0,0,0-1.48,4.08c-.88,8.75-1.6,17.52-2.37,26.28h28.1c-.17-.91-.4-1.81-.49-2.72-.76-8.43-1.46-16.86-2.27-25.28-.08-.81-.81-1.55-1.23-2.32h0q-.6-24.21-1.2-48.42c-.22-8.48-.51-17-.77-25.45a.26.26,0,0,0-.11-.38l-16.84,0Z"/><path class="cls-6" d="M141.15,550l-1.61,73.64,20.28-.05c-.28-13.53-.51-27.06-.85-40.58-.28-11-.68-22-1-33v-.57H141.18Zm7.24,34.22c0,3.86,0,7.73,0,11.59,0,1,0,2.06,0,3.09,0-1,0-2.06,0-3.09C148.44,592,148.36,588.1,148.4,584.24Z"/><path class="cls-7" d="M505.11,567.09l.08.37a5.54,5.54,0,0,0-4-1.75h-.06c-.27-.57-1.15-.81-2.53-.85-3.3-.09-6.59-.41-10.23-.66,3.55-7.21,3-12-2.34-14-4.62-1.7-10-1.39-15.57-2-1.64-6.8-3.59-14.76-11.55-18.47-8.31-3.87-15.18-.72-20.19,5.76l-6.49-3.17a10.7,10.7,0,0,0-11.41-4.63c-2.12.6-4.9,1.69-5.75,3.38-1.63,3.25-2.1,7.08-3.15,11a46,46,0,0,1-5.14,0c-7.23-.72-12.87,1.1-16.09,8.4-.6,1.35-3.66,2.17-5.62,2.24-4.62.17-7.45,2.33-6,6.52,1,3,4,5.77,6.74,7.55s6.37,2.14,9.59,3.12c-2.2,7.48-.16,11.19,6.09,11.48a22.76,22.76,0,0,0,4.83-.81c1.15,2.53,2.63,5,3.39,7.61,3.51,12.16,10.86,21.08,21.86,27.25a6,6,0,0,1,2.36,4.62c-.35,7.68-1.13,15.35-1.76,23H440l-.85-42.44c6.87-3,13.81-5.74,20.57-8.94,4.82-2.28,9.38-5.1,14.05-7.67,6,0,12-.26,14.65-7.21a44.13,44.13,0,0,0,5.91,1.31c3.71.31,7.5.79,11.15.34,3.35-.41,5-3.21,4.37-6.55C509.42,569.27,508.56,566.45,505.11,567.09Zm-47.82,22.21c-6,2-12.18,3.26-18.29,4.84h0q0-5,.09-9.93l-4.91-5.32V611c-8.55-4.33-14.19-10.11-18-18-2.16-4.56-4.9-8.84-7.37-13.25.6-2.57,2.15-2.79,3.6-1,3.42,4.31,6.81,2.89,10.08.14,4-3.34,7.76-4,11.65,0l4.91,5.32c7.82,4.08,15.3,3.17,22.93-.89,1.72-.92,4.53.2,6.84.37C465,585.6,461.32,588,457.29,589.31Z"/><path class="cls-6" d="M1660.68,562.42l.1.45a6.9,6.9,0,0,0-5-2.18h-.08c-.34-.72-1.44-1-3.15-1.06-4.11-.12-8.21-.52-12.74-.82,4.42-9,3.76-15-2.91-17.42-5.75-2.12-12.43-1.73-19.39-2.53-2-8.47-4.48-18.38-14.38-23C1592.75,511,1584.19,515,1578,523l-8.09-3.95a13.32,13.32,0,0,0-14.21-5.77c-2.64.75-6.1,2.11-7.16,4.22-2,4-2.62,8.82-3.92,13.72a57.22,57.22,0,0,1-6.4,0c-9-.9-16,1.37-20,10.46-.74,1.68-4.56,2.7-7,2.79-5.76.21-9.27,2.9-7.5,8.12,1.26,3.71,4.93,7.18,8.39,9.4s7.93,2.67,11.94,3.89c-2.74,9.32-.2,13.94,7.58,14.3,2,.09,4-.65,6-1,1.43,3.15,3.28,6.18,4.23,9.47,4.37,15.15,13.52,26.25,27.23,33.94,1.61.9,3,3.84,2.94,5.76-.44,9.57-1.41,19.11-2.2,28.66h9.85l-1.05-52.85c8.55-3.68,17.2-7.15,25.62-11.13,6-2.83,11.68-6.35,17.5-9.56,7.52,0,14.88-.33,18.24-9a55,55,0,0,0,7.36,1.64c4.62.39,9.34,1,13.89.43,4.17-.51,6.18-4,5.44-8.16C1666,565.13,1665,561.62,1660.68,562.42Zm-59.55,27.66c-7.44,2.48-15.17,4.06-22.78,6h0q.06-6.18.12-12.37l-6.11-6.62v40c-10.65-5.39-17.68-12.59-22.37-22.47-2.69-5.67-6.1-11-9.18-16.5.74-3.2,2.68-3.48,4.48-1.21,4.26,5.37,8.48,3.59,12.55.17,5-4.16,9.67-5,14.51,0l6.12,6.62c9.73,5.08,19.06,4,28.55-1.11,2.15-1.14,5.64.24,8.52.47C1610.75,585.47,1606.15,588.41,1601.13,590.09Z"/><path class="cls-1" d="M798.47,495.48c-2.46.76-4.65,1.37-6.8,2.12-3.63,1.26-7.27,2.49-10.8,4a3.71,3.71,0,0,0-2,2.53c-.25,3.11-.09,6.26-.09,9.79,4.18-1.42,7.65-2.61,11.13-3.76,9.69-3.21,9.69-3.21,8.9-13.59A8.48,8.48,0,0,0,798.47,495.48Z"/><path class="cls-1" d="M758.62,511.27c-8.43,4.07-8.42,4.09-7.79,13.46a8.79,8.79,0,0,0,.43,1.39c6-2.74,11.74-5.27,17.36-8a4.39,4.39,0,0,0,2.06-3c.29-2.88.1-5.8.1-9.46C766.33,507.68,762.45,509.42,758.62,511.27Z"/><path class="cls-1" d="M807,504.94l19.72-4V488.77L807,493Z"/><path class="cls-1" d="M835,490c-.25,3.15-.1,6.33-.1,9.88l19.68-1.61V486.13c-6.06.47-11.82.84-17.55,1.48A3.27,3.27,0,0,0,835,490Z"/><path class="cls-1" d="M658.41,574V563.87l-16.54,8.23Z"/><path class="cls-1" d="M863.1,498l19.78,1.15V487l-19.78-1.13Z"/><path class="cls-1" d="M695.41,545.08a2.09,2.09,0,0,0-.73,1.57c-.07,3.11,0,6.22,0,10,4.62-2.43,8.24-4.91,12.23-6.3,7.33-2.54,9.6-7.29,7.28-15.22C708,538.41,701.66,541.71,695.41,545.08Z"/><path class="cls-1" d="M724.64,529.54a4.72,4.72,0,0,0-2,3.15c-.29,2.71-.09,5.47-.09,9.14,6.84-3.73,12.78-6.91,18.64-10.25a3.58,3.58,0,0,0,1.51-2.51c.19-3,.07-5.92.07-9.5C736.17,523.17,730.34,526.24,724.64,529.54Z"/><path class="cls-1" d="M685.06,550.39q-5.34,2.65-10.65,5.36c-8.49,4.33-8.49,4.34-7.66,13.86a7.71,7.71,0,0,0,.51,1.15c6-3.07,11.86-6,17.63-9.06a3.51,3.51,0,0,0,1.63-2.41c.2-3,.08-5.94.08-8.91C685.65,550.37,685.3,550.27,685.06,550.39Z"/><path class="cls-1" d="M1021.65,541.18c-5.78-3.41-11.79-6.41-18.45-9.94a56.23,56.23,0,0,0,.06,6.69c.24,1.84.4,4.53,1.57,5.25,5.72,3.49,11.76,6.45,18.36,10,0-3.06.18-5.34-.06-7.58C1023,544,1022.67,541.78,1021.65,541.18Z"/><path class="cls-1" d="M1059.34,570.8l10.86-4.91-10.86-5.42Z"/><path class="cls-1" d="M1049.18,555.42c-5.56-3.2-11.36-6-17.94-9.36,0,2.78-.09,4.76,0,6.73.1,1.62-.11,4.17.77,4.68,6.12,3.59,12.49,6.75,19.4,10.37,0-3.43.27-5.77-.09-8C1051.09,558.25,1050.38,556.11,1049.18,555.42Z"/><path class="cls-1" d="M909.61,491.28C903.54,490,897.43,489,891,487.84V500l20.05,3.37c0-3.56.1-6.63-.07-9.67C911,492.83,910.24,491.41,909.61,491.28Z"/><path class="cls-1" d="M993.8,526.27c-5.9-3.51-12-6.69-18.8-10.41,0,2.93-.13,4.79,0,6.61s.06,4.42,1.07,5c6,3.69,12.37,6.89,19.12,10.54,0-3.23.16-5.55-.06-7.83C995,528.84,994.73,526.83,993.8,526.27Z"/><path class="cls-1" d="M936.51,499c-5.43-2-11-3.62-17.43-5.67,0,4-.08,7.23.06,10.41a2.68,2.68,0,0,0,1.32,2c6,1.91,12.08,3.66,18.56,5.58a81,81,0,0,0-.11-9.24A4.5,4.5,0,0,0,936.51,499Z"/><path class="cls-1" d="M965.24,511c-5.72-2.86-11.6-5.39-18.15-8.37,0,3.91-.1,6.82.06,9.72,0,.9.55,2.27,1.23,2.58,6.08,2.73,12.24,5.28,18.9,8.1a76.5,76.5,0,0,0-.09-8.44C967,513.33,966.26,511.54,965.24,511Z"/><path class="cls-8" d="M1080,561.45a11.42,11.42,0,0,1-5.39-.3c-2.18-.6-4.09-2.11-6.23-3-5.9-2.41-11.29-5.1-9.26-13.08,0-.14.06-.38,0-.45-1.16-1-2.36-2.75-3.49-2.7a6,6,0,0,0-4,2.61c-.7,1-.31,2.82-.44,4.81-4.85-2.47-9.14-4.85-13.59-6.88-4.14-1.89-7.47-3.89-6.54-9.42.18-1.07-1.9-3.52-3-3.57-1.54-.06-3.24,1.43-4.67,2.51-.51.39-.46,1.53-.74,2.6-4.7-2.51-8.93-5.06-13.4-7.08-4.14-1.87-7.06-4-6.15-9.25a4.36,4.36,0,0,0-1.81-3.73,5.54,5.54,0,0,0-4.7.32c-1.1.78-1.29,2.83-2,4.59-4.31-2.34-8.64-5-13.24-7.08s-7.48-4.33-6.54-9.94c.18-1.09-1.94-3.37-3.36-3.74-2.29-.61-4.18.68-4.16,3.54,0,.74-.13,1.47-.24,2.64-4.05-1.75-7.76-3.57-11.63-5-5.22-1.88-10.16-3.61-8.55-11,.19-.86-2.41-3.25-3.73-3.25s-3,1.84-4,3.26c-.65,1-.3,2.62-.43,4.33-4.33-1.31-8.24-2.74-12.26-3.64-4.59-1-8.66-2-7.71-8.28.13-.87-2.52-2.89-4-3-1.12-.1-2.75,1.78-3.56,3.14-.61,1-.29,2.59-.39,4l-19.53-3.34c-1.16-3,1.19-7.15-3.69-7.77-5.48-.69-3.9,4.22-5.11,7l-18.84-1.12c-2-3.5,1.8-9.1-4.06-9.59-7.89-.66-2.95,6.85-5.55,9.95l-18.59,1.33c-1.31-3.25,1-8.59-4.7-8.26-6.56.38-2.36,6.53-4.45,9.54L806.67,487c0-2.11.48-4-.14-5.4s-2.2-3.07-3.55-3.25c-3.13-.42-4,1.72-4.11,4.68-.07,2.24-.33,5.91-1.58,6.44-5.84,2.49-12,4.12-18.55,6.19,0-1.86.46-3.48-.11-4.54-.74-1.39-2.18-3.11-3.54-3.33-3-.5-4.3,1.34-4.39,4.44-.06,2.46,0,6.3-1.33,7.09-5.72,3.31-12,5.71-18.42,8.61-.36-3.63.24-7.44-4.46-7.19s-3.5,4-3.76,6.93c-.16,1.76,0,4.45-1,5.08-6.06,3.76-12.41,7-18.52,10.4-.72-2.51-.85-4.66-1.93-6.1-.63-.84-3.1-1.17-4.13-.61s-1.89,2.45-2.28,3.9c-.72,2.66-.12,6.79-1.73,7.89-5.63,3.85-12,6.66-18.36,10-.09-1.51.21-2.72-.26-3.28-1.12-1.33-2.46-3-4-3.36-2.51-.52-3.77,1.18-4,3.84s0,6.55-1.47,7.55c-5.56,3.67-11.77,6.36-18.25,9.68-.39-3.66.09-7.5-4.57-7.12-5.17.43-3.26,4.56-3.69,7.47-.21,1.44-.16,3.69-1,4.15-6.11,3.37-12.43,6.37-19.21,9.76,0-2.34-.08-3.72,0-5.1.19-2.83-.9-4.41-3.91-4.4s-4,1.74-3.84,4.49c.09,1.85-.12,3.71,0,5.55.27,3.1-1.07,4-4.06,3.87h-.11v53H748.15A43.14,43.14,0,0,1,747,614.5c0-37.28,48.35-67.5,108-67.5s108,30.22,108,67.5a43.14,43.14,0,0,1-1.15,9.87H1080ZM658.41,574l-16.54-1.92,16.54-8.23Zm28.12-14.74a3.51,3.51,0,0,1-1.63,2.41c-5.76,3.07-11.61,6-17.63,9.06a7.71,7.71,0,0,1-.51-1.15c-.83-9.53-.83-9.53,7.66-13.86q5.31-2.71,10.65-5.36c.24-.12.58,0,1.54,0C686.61,553.33,686.73,556.31,686.53,559.27Zm20.35-8.93c-4,1.39-7.61,3.87-12.23,6.3,0-3.76,0-6.87,0-10a2.09,2.09,0,0,1,.73-1.57c6.25-3.38,12.54-6.68,18.75-10C716.48,543.05,714.21,547.8,706.88,550.34Zm35.81-21.27a3.58,3.58,0,0,1-1.51,2.51c-5.86,3.33-11.8,6.51-18.64,10.25,0-3.67-.2-6.43.09-9.14a4.72,4.72,0,0,1,2-3.15c5.7-3.3,11.53-6.37,18.12-10C742.76,523.15,742.88,526.12,742.69,529.07Zm28-14a4.39,4.39,0,0,1-2.06,3c-5.63,2.77-11.37,5.3-17.36,8a8.79,8.79,0,0,1-.43-1.39c-.63-9.37-.64-9.39,7.79-13.46,3.83-1.85,7.71-3.59,12.16-5.66C770.78,509.27,771,512.19,770.68,515.07Zm19.24-4.94c-3.48,1.15-6.95,2.35-11.13,3.76,0-3.53-.15-6.68.09-9.79a3.71,3.71,0,0,1,2-2.53c3.53-1.48,7.18-2.72,10.8-4,2.15-.74,4.34-1.36,6.8-2.12a8.48,8.48,0,0,1,.35,1.06C799.61,506.92,799.6,506.91,789.92,510.12Zm36.82-9.18-19.72,4V493l19.72-4.21Zm27.86-2.7-19.68,1.61c0-3.55-.15-6.73.1-9.88a3.27,3.27,0,0,1,2-2.37c5.73-.64,11.48-1,17.55-1.48Zm28.28.93L863.1,498V485.86L882.88,487Zm28.2,4.2L891,500V487.84c6.41,1.15,12.52,2.18,18.58,3.44.63.13,1.36,1.56,1.4,2.42C911.18,496.74,911.08,499.81,911.08,503.37Zm27.95,8c-6.47-1.92-12.54-3.68-18.56-5.58a2.68,2.68,0,0,1-1.32-2c-.14-3.18-.06-6.36-.06-10.41,6.44,2.06,12,3.7,17.43,5.67a4.5,4.5,0,0,1,2.4,3.11A81,81,0,0,1,939,511.32Zm28.25,11.73c-6.66-2.82-12.83-5.37-18.9-8.1-.68-.3-1.18-1.67-1.23-2.58-.15-2.9-.06-5.81-.06-9.72,6.56,3,12.43,5.52,18.15,8.37,1,.51,1.8,2.3,1.95,3.59A76.5,76.5,0,0,1,967.28,523.05Zm28,15c-6.75-3.65-13.08-6.85-19.12-10.54-1-.62-.91-3.29-1.07-5s0-3.67,0-6.61c6.81,3.72,12.91,6.9,18.8,10.41.93.55,1.24,2.57,1.37,3.95C995.4,532.5,995.24,534.82,995.24,538.05Zm28,15.09c-6.6-3.5-12.64-6.46-18.36-10-1.17-.72-1.32-3.42-1.57-5.25a56.23,56.23,0,0,1-.06-6.69c6.66,3.53,12.67,6.53,18.45,9.94,1,.6,1.31,2.84,1.47,4.38C1023.36,547.8,1023.19,550.08,1023.19,553.14Zm28.25,14.7c-6.91-3.62-13.28-6.78-19.4-10.37-.88-.51-.67-3.06-.77-4.68-.12-2,0-4,0-6.73,6.58,3.38,12.38,6.16,17.94,9.36,1.2.69,1.91,2.83,2.16,4.41C1051.7,562.07,1051.44,564.41,1051.44,567.84Zm7.9,3V560.47l10.86,5.42Z"/><g class="cls-9"><g class="cls-10"><g class="cls-11"><g class="cls-12"><line class="cls-13" x1="714.59" y1="1031.49" x2="714.59" y2="-618.23"/><line class="cls-13" x1="644.15" y1="1031.49" x2="644.15" y2="-618.23"/><line class="cls-13" x1="573.71" y1="1031.49" x2="573.71" y2="-618.23"/><line class="cls-13" x1="503.27" y1="1031.49" x2="503.27" y2="-618.23"/><line class="cls-13" x1="432.83" y1="1031.49" x2="432.83" y2="-618.23"/><line class="cls-13" x1="362.39" y1="1031.49" x2="362.39" y2="-618.23"/><line class="cls-13" x1="291.95" y1="1031.49" x2="291.96" y2="-618.23"/><line class="cls-13" x1="221.52" y1="1031.49" x2="221.52" y2="-618.23"/><line class="cls-13" x1="151.08" y1="1031.49" x2="151.08" y2="-618.23"/><line class="cls-13" x1="80.63" y1="1031.5" x2="80.64" y2="-618.23"/><line class="cls-13" x1="10.19" y1="1031.5" x2="10.19" y2="-618.23"/><line class="cls-13" x1="766.83" y1="43.15" x2="-1186.63" y2="43.15"/><line class="cls-13" x1="766.83" y1="112.65" x2="-1186.63" y2="112.65"/><line class="cls-13" x1="766.83" y1="182.14" x2="-1186.63" y2="182.14"/><line class="cls-13" x1="766.83" y1="251.61" x2="-1186.63" y2="251.62"/><line class="cls-13" x1="766.83" y1="321.11" x2="-1186.63" y2="321.11"/><line class="cls-13" x1="766.83" y1="390.59" x2="-1186.63" y2="390.59"/><line class="cls-13" x1="766.83" y1="460.08" x2="-1186.63" y2="460.08"/><line class="cls-13" x1="766.83" y1="529.57" x2="-1186.63" y2="529.57"/><line class="cls-13" x1="766.83" y1="599.05" x2="-1186.63" y2="599.05"/><line class="cls-13" x1="766.83" y1="668.54" x2="-1186.63" y2="668.55"/><line class="cls-13" x1="766.83" y1="738.02" x2="-1186.63" y2="738.02"/><line class="cls-13" x1="766.83" y1="807.51" x2="-1186.63" y2="807.51"/><line class="cls-13" x1="766.83" y1="877" x2="-1186.63" y2="877.01"/><line class="cls-13" x1="766.83" y1="946.48" x2="-1186.63" y2="946.49"/><line class="cls-13" x1="766.83" y1="1015.97" x2="-1186.63" y2="1015.98"/></g></g></g><g class="cls-14"><g class="cls-15"><g class="cls-12"><line class="cls-16" x1="1205.41" y1="-528.65" x2="1205.41" y2="1121.07"/><line class="cls-16" x1="1275.85" y1="-528.65" x2="1275.85" y2="1121.07"/><line class="cls-16" x1="1346.29" y1="-528.65" x2="1346.29" y2="1121.07"/><line class="cls-16" x1="1416.73" y1="-528.65" x2="1416.73" y2="1121.07"/><line class="cls-16" x1="1487.17" y1="-528.65" x2="1487.17" y2="1121.07"/><line class="cls-16" x1="1557.61" y1="-528.65" x2="1557.61" y2="1121.07"/><line class="cls-16" x1="1628.05" y1="-528.65" x2="1628.04" y2="1121.07"/><line class="cls-16" x1="1698.48" y1="-528.65" x2="1698.48" y2="1121.07"/><line class="cls-16" x1="1768.92" y1="-528.65" x2="1768.92" y2="1121.07"/><line class="cls-16" x1="1839.37" y1="-528.66" x2="1839.36" y2="1121.07"/><line class="cls-16" x1="1909.81" y1="-528.66" x2="1909.81" y2="1121.07"/><line class="cls-16" x1="1153.17" y1="1015.57" x2="3106.63" y2="1015.57"/><line class="cls-16" x1="1153.17" y1="946.07" x2="3106.63" y2="946.07"/><line class="cls-16" x1="1153.17" y1="876.59" x2="3106.63" y2="876.59"/><line class="cls-16" x1="1153.17" y1="807.11" x2="3106.63" y2="807.11"/><line class="cls-16" x1="1153.17" y1="737.63" x2="3106.63" y2="737.63"/><line class="cls-16" x1="1153.17" y1="668.13" x2="3106.63" y2="668.13"/><line class="cls-16" x1="1153.17" y1="598.65" x2="3106.63" y2="598.65"/><line class="cls-16" x1="1153.17" y1="529.17" x2="3106.63" y2="529.17"/><line class="cls-16" x1="1153.17" y1="459.69" x2="3106.63" y2="459.69"/><line class="cls-16" x1="1153.17" y1="390.19" x2="3106.63" y2="390.19"/><line class="cls-16" x1="1153.17" y1="320.7" x2="3106.63" y2="320.7"/><line class="cls-16" x1="1153.17" y1="251.23" x2="3106.63" y2="251.22"/><line class="cls-16" x1="1153.17" y1="181.73" x2="3106.63" y2="181.73"/><line class="cls-16" x1="1153.17" y1="112.24" x2="3106.63" y2="112.24"/><line class="cls-16" x1="1153.17" y1="42.76" x2="3106.63" y2="42.76"/></g></g></g><g class="cls-17"><g class="cls-18"><g class="cls-12"><line class="cls-13" x1="9.44" y1="-528.65" x2="9.44" y2="1121.07"/><line class="cls-13" x1="79.88" y1="-528.65" x2="79.88" y2="1121.07"/><line class="cls-13" x1="150.33" y1="-528.65" x2="150.31" y2="1121.07"/><line class="cls-13" x1="220.75" y1="-528.65" x2="220.75" y2="1121.07"/><line class="cls-13" x1="291.19" y1="-528.65" x2="291.19" y2="1121.07"/><line class="cls-13" x1="361.64" y1="-528.66" x2="361.63" y2="1121.07"/><line class="cls-13" x1="432.08" y1="-528.66" x2="432.08" y2="1121.07"/><line class="cls-13" x1="502.52" y1="-528.66" x2="502.52" y2="1121.07"/><line class="cls-13" x1="572.96" y1="-528.66" x2="572.96" y2="1121.07"/><line class="cls-13" x1="643.39" y1="-528.66" x2="643.39" y2="1121.07"/><line class="cls-13" x1="713.84" y1="-528.66" x2="713.84" y2="1121.07"/><line class="cls-13" x1="784.27" y1="-528.66" x2="784.27" y2="1121.07"/><line class="cls-13" x1="854.7" y1="-528.66" x2="854.7" y2="1121.07"/><line class="cls-13" x1="925.15" y1="-528.66" x2="925.15" y2="1121.07"/><line class="cls-13" x1="995.59" y1="-528.66" x2="995.58" y2="1121.07"/><line class="cls-13" x1="1066.03" y1="-528.66" x2="1066.03" y2="1121.07"/><line class="cls-13" x1="1136.47" y1="-528.66" x2="1136.47" y2="1121.07"/><line class="cls-13" x1="1206.91" y1="-528.66" x2="1206.91" y2="1121.07"/><line class="cls-13" x1="1277.34" y1="-528.66" x2="1277.34" y2="1121.07"/><line class="cls-13" x1="1347.78" y1="-528.66" x2="1347.78" y2="1121.07"/><line class="cls-13" x1="1418.2" y1="-528.66" x2="1418.2" y2="1121.07"/><line class="cls-13" x1="1488.65" y1="-528.66" x2="1488.65" y2="1121.07"/><line class="cls-13" x1="1559.09" y1="-528.66" x2="1559.09" y2="1121.07"/><line class="cls-13" x1="-324.56" y1="1015.57" x2="1628.9" y2="1015.57"/><line class="cls-13" x1="-324.56" y1="946.07" x2="1628.9" y2="946.07"/><line class="cls-13" x1="-324.56" y1="876.59" x2="1628.9" y2="876.59"/><line class="cls-13" x1="-324.56" y1="807.11" x2="1628.9" y2="807.11"/><line class="cls-13" x1="-324.56" y1="737.63" x2="1628.9" y2="737.63"/><line class="cls-13" x1="-324.56" y1="668.13" x2="1628.9" y2="668.13"/><line class="cls-13" x1="-324.56" y1="598.65" x2="1628.9" y2="598.65"/><line class="cls-13" x1="-324.56" y1="529.17" x2="1628.9" y2="529.17"/><line class="cls-13" x1="-324.56" y1="459.69" x2="1628.9" y2="459.69"/><line class="cls-13" x1="-324.56" y1="390.19" x2="1628.9" y2="390.19"/><line class="cls-13" x1="-324.56" y1="320.7" x2="1628.9" y2="320.7"/><line class="cls-13" x1="-324.56" y1="251.23" x2="1628.9" y2="251.22"/><line class="cls-13" x1="-324.56" y1="181.73" x2="1628.9" y2="181.73"/><line class="cls-13" x1="-324.56" y1="112.24" x2="1628.9" y2="112.24"/><line class="cls-13" x1="-324.56" y1="42.76" x2="1628.9" y2="42.76"/></g></g></g></g><path class="cls-4" d="M544.24,268a2,2,0,0,0,.57,0,12.38,12.38,0,0,0,5.23-1.73,19.38,19.38,0,0,0,3.28-2.62,48.48,48.48,0,0,1,6.92-5.77c.15-.1.28-.22.44-.31a21,21,0,0,1,2.16-1.26c1.1-.49,2.25-.9,3.4-1.3a9,9,0,0,1,1.3-.26l.19.25c-.2.12-.42.22-.61.35a22.54,22.54,0,0,1-5.76,2.88,5.06,5.06,0,0,0-2.81,2.29,48.09,48.09,0,0,1-5.12,6.59,2.41,2.41,0,0,1-.83.57,9.31,9.31,0,0,1-1.91.65c-1.66.3-1.81,1.62-2.54,2.54-.07.09,0,.25,0,.38a1.73,1.73,0,0,1-.23.69c-.23.29-.58.51-.83.8s-.12.83.51.79a4.87,4.87,0,0,0,1.42-.34,13.71,13.71,0,0,0,5.63-4.36c1.65-2,3.22-4.08,4.83-6.12a13.17,13.17,0,0,1,3.31-3,30,30,0,0,1,8.66-3.48,10.46,10.46,0,0,0,3.93-1.93,2.69,2.69,0,0,1,1.83-.54,10.14,10.14,0,0,0,1.37-.07,14.14,14.14,0,0,0,3.79-1.09,8.81,8.81,0,0,1,5-.6c2.17.39,4.34.78,6.5,1.22a20.21,20.21,0,0,0,5.08.33,3.08,3.08,0,0,0,3-2.54c.1-1,.52-1.48,1.69-1.58,1.92-.17,3.85-.3,5.77-.28a26.71,26.71,0,0,0,5.25-.32,21,21,0,0,1,4.56-.63,11,11,0,0,0,1.77-.14,3.77,3.77,0,0,0,1.08-.28c.38-.18.35-.55,0-.75a1.73,1.73,0,0,0-.58-.2c-1-.14-2-.3-2.95-.39-1.67-.16-3.37-.2-5-.43a22.38,22.38,0,0,1-3.21-.87,6.7,6.7,0,0,0-4.09,0,36.1,36.1,0,0,1-4.16,1.1,7,7,0,0,0-4.41,2.39l-.11.11a3.56,3.56,0,0,1-3.93.72,14.69,14.69,0,0,1-4.52-2.91,43.8,43.8,0,0,0-4-3.49A3.92,3.92,0,0,1,583.7,241c-.27-1-.52-2.08-.78-3.12-.38-1.58-.52-3.14.77-4.52l0,0a.9.9,0,0,0-.22-1.39.87.87,0,0,1-.33-1,30.27,30.27,0,0,1,2.89-7.52,2.56,2.56,0,0,0-.67-3.43A32.19,32.19,0,0,0,582,217.6c-.62-.42-1.39-.71-2-1.18a20.21,20.21,0,0,0-4.63-2.75c-2.15-1-4.35-1.82-6.56-2.67-1-.39-2.11-.66-3.19-1-.45-.12-1-.17-1.16.32a15.34,15.34,0,0,0-.5,2.15c0,.24-.1.38-.42.41-1.11.12-1.27.28-1.47,1.22a.91.91,0,0,1-.51.55c-.89.35-1.29.83-1.17,1.68.06.44-.1.65-.58.79a1.73,1.73,0,0,0-1.4,1.34,8.7,8.7,0,0,0-.16,1.2,4,4,0,0,0,.83,3,5.05,5.05,0,0,0,2.14,1.48c.38.13.67.29.57.72a15,15,0,0,0-.68,3.9c0,1.51-.08,3-.1,4.54a2.29,2.29,0,0,1-.49,1.65.76.76,0,0,0-.06.71c.24.58.2.6-.42.93-1.13.6-2.22,1.25-3.28,1.93a1.21,1.21,0,0,0-.65,1.53c.06.15,0,.35,0,.52s-.05.57-.09.86a3.15,3.15,0,0,1-.17.79c-.44,1-1.28,1.89-1.36,3a1.78,1.78,0,0,1-.53,1.38.47.47,0,0,0-.11.41c.09.42-.12.64-.57.81-.71.29-.88.8-.42,1.31s.17.53-.23.68a1.07,1.07,0,0,0-.76.9,1.32,1.32,0,0,1-.19.5c-.56,1,.07,2.06,1.31,2.33.15,0,.36.24.36.36,0,.47.3.61.76.7a5.54,5.54,0,0,0,2.44-.12.82.82,0,0,1,.85.19,1.58,1.58,0,0,0,.9.28,14,14,0,0,0,1.77-.07,5.76,5.76,0,0,0,1.39-.22c.7-.25,1.34-.59,2-.89.35-.16.69-.42,1.18,0a4.66,4.66,0,0,1-.69.38,34.13,34.13,0,0,1-3.68,1.2,5.32,5.32,0,0,0-2.65,1.58c-1.94,1.87-3.91,3.72-5.92,5.53a6.77,6.77,0,0,1-1.83,1.05c-.83.36-1.73.61-2.59.92-.48.17-.83.42-.86.93,0,.17-.28.35-.47.48-.67.45-1.38.86-2,1.33C543.56,267.5,543.69,267.84,544.24,268Zm11.66-22c.26-.5.54-.52,1,0Z"/></g><rect id="Grass" class="cls-19" y="607" width="1920" height="472"/><g id="Path"><path class="cls-20" d="M1910,666c-882.55,0,495.26,191.67-714,161.65V826H715c-479.59-5.22-888.48-135.25-410.63-182.34-634.16,62.45-46,308,540.63,268.34h159.49C2937,948,1013,666,1910,666Z"/><path class="cls-21" d="M304.37,643.66l.31,0Z"/><path class="cls-22" d="M309.48,643.17l2-.19Z"/><path class="cls-23" d="M304.68,643.63l4.8-.47Z"/><path class="cls-24" d="M315.61,642.59,322,642Z"/><path class="cls-25" d="M311.47,643l4.14-.39Z"/></g><g id="Rock"><path class="cls-26" d="M1203.55,867c16,23-119,60-312.23,52-175.6-7.27-318.23-24.18-318.23-54s142.48-54,318.23-54S1180.94,834.49,1203.55,867Z"/><path class="cls-27" d="M982.36,779.42a50,50,0,0,1-10.43-2c-6.58-2-12.62-4.13-18.65-6.27a19.29,19.29,0,0,0-14-.1,4,4,0,0,0-1.21,4.42c1.78,5.62,3,11.26,4.9,16.88,3.82,11.54,6.08,23.12,8.8,34.68,2.35,10,5.5,19.95,7,29.95,1.34,8.7,4.62,17.38,5.25,26.1.2,2.76,1.21,5.31,7.12,7.54,6.6,2.12,14,4.09,20.14,6.3,4.21,2,32.21,11,43.21,16S977.55,820,982.36,779.42Z"/><path class="cls-28" d="M1038.34,903.91a21.73,21.73,0,0,1,4.49-1.91c9.21-2.16,12.25-4.81,11.7-8.32-1.05-6.72-.41-13.46-.41-20.18q0-16.53.14-33.05a17.37,17.37,0,0,1,.56-3.06l2.63-.14c1.55,1.13,3.87,2.22,4.52,3.4,2.47,4.49,5.74,9,6.25,13.51,1.05,9.26,3.82,18.39,14.19,27.2,1,.83,2.1,1.64,3.86,3,7.6-3.23,12.65-6.17,12.61-9.78-.11-10.32.18-20.65-.08-31-.59-23.41-11.35,29.8-12.26,6.39-.11-3-3.18-14-4-17,1.08-3-7.22-13.74-1-14,6.55-.27-21.51-5.43-19-15,2.9-11-55.13-12-48-23,3.1-4.77-2.39-36.18,0-41,.73-1.47,121.24-6.58,123-8,1.12-.9,23-19,36-17,12.5,1.92,35.81,20,47.91,21.92,1.08,1.31,3.34,2.63,3.07,3.91-2.71,12.87-6.15,25.73-8.76,38.61-4.89,24.17-11.42,48.32-9.5,72.58.52,6.61-2.51,13.25-3.81,19.88-.81,4.12-7.57,7.32-17.44,10.08-29.78,8.33-63.93,14.91-98.6,21.28a52.8,52.8,0,0,1-8.57.67C1064.68,904,1051.51,903.93,1038.34,903.91Z"/><path class="cls-28" d="M1082.55,904c5.94-1.56,10.28-20,12.31-20.94,6.44-2.91,16.57-13.56,16.69-17.06.9-26.31.61-22.69,2-49,.37-7-1-31-1-38,0-2.89,2.45-14.2,0-17-3.69-1.41-22.26,1.62-26.82,2.49-6.8,1.3-13.44,2.66-20.29,3.93-22,4.08-44.11,8.08-68.73,10.71a74.76,74.76,0,0,1-14.35.28c-6,34.91-.4,70.67,5.18,105.65.66,4.15,1.43,8.48,3.8,11.9,1.6.57,44.68,16.15,46.21,16C1050.55,912,1063.55,909,1082.55,904Z"/><path class="cls-28" d="M943.7,770.42c.56,4.34.73,8.69,1.76,13,2.34,9.87,5.09,19.74,7.68,29.61,3.13,11.94,6.38,23.88,9.36,35.82,1.75,7,3.13,14,4.58,21s2.75,13.84,4.12,20.76c-7-1.78-14.28-1.65-22.09-.37-4.08.67-8.83,1-13.16,1.52a161.71,161.71,0,0,1-40.15.2c-13.72-1.63-28-2.84-42.08-4.24,16.67-5.76,12-12.42,9.33-19-.55-1.37-2-2.87-.79-4.11s5.39-2.18,8.26-3.26c3.21.86,8.82,1.64,9.23,2.6,1.92,4.5,2.42,9,3.36,13.58a4.26,4.26,0,0,1-.33,1.67l2.54.1c1-2.18,2.82-4.35,2.85-6.53.2-16.88.79-33.76-.24-50.64-.71-11.59-3.93-23.16-5.78-34.75-.29-1.8-1.79-4,6.73-4.72,8.84-.7,14.73.87,17.63,3,4.38,3.18,7.27,6.54,11.33,10.33,4.29-15.32-5.84-29.93-8.25-44.66C925.11,748.62,940.91,746,956,743a217.09,217.09,0,0,0,23.1-5.69c7.13-2.24,33.34,0,37.28,1.54,5.24,2.23,4.46,4.88,5.49,7.37,1.23,3,2,6,.91,9-1.19,1.44-5.26,1.64-9.31,1.87-14.29.81-28.33,1.92-41.71,3.59-12.86,1.61-25.91,3.32-25.29,8.49C946.57,769.71,944.74,770,943.7,770.42Z"/><path class="cls-29" d="M817.15,876.63l-3.22,6.07-17.84-3.57L805,840.89c5.78-1,9.45-.21,12.12,1.26,2.94,1.62,4.67,3.3,5,5.19,1.2,7-2.6,13.89-2,20.85.16,1.87-.23,3.75.66,5.62C821.31,875,821.11,876,817.15,876.63Z"/><path class="cls-27" d="M754.4,726.1c-.66-1.94-1.92-3.88-1.7-5.81.1-.86,3.07-2.35,4.92-2.38a39.25,39.25,0,0,1,9.42,1.41,48.21,48.21,0,0,1,6.55,2.49Z"/><path class="cls-27" d="M774.27,858.63c3.41.58,8,.94,9.83,1.8,1.4.67.27,2.63-1.48,2.86-3.58.47-8.33.16-12.61.17C766.8,861.5,767.77,859.85,774.27,858.63Z"/><path class="cls-27" d="M914.93,753.66c-.26-1-1.38-2-5.34-2.26-5.81,1-11.64,2-17.43,3-16,2.75-31.54,5.79-48.15,8.18-15.09,2.18-24.9,1.31-34.45-2.6A232,232,0,0,1,786.5,749.1c-10.73-5.86-23.29-10.84-47.09-12.51-9.74-.69-11.54-3.83-4.19-5.82,6.1-1.65,12.77-3.12,19.18-4.67,6.57-1.51-.21-4.23,6.1-5.94,4.2.75,7.52,2.06,13.08,1.64l5.09-1.3a8.47,8.47,0,0,0,3.08-1.5c1.74-1.63,2.79-3.37-1.52-4.73-4.51-1.43-9.73-.78-15.34-.24-4.13.4-7.77,1.5-12.71,1.12-7.45,1.53-14.63,3.2-22.43,4.56-9.35,1.63-14.08,3.45-8.58,6.74,2.14,1.28,2.3,2.88,2.87,4.35,5.34,13.68,10.78,27.36,15.74,41,2.47,6.81,4,13.64-4.65,20.27a3.35,3.35,0,0,0-1.2,3.82c1.33,5.43,3.19,10.86,4.56,16.29,3.2,12.74,6.22,25.48,9.34,38.21.25,1,.68,2,1,3l3.31.1,7.78-9.95,3.35.08c9.56,4.57,8.79,9.87,11,15,3.28,2,6.38,3.92-4.25,4.83l-12.46-2.71-5.79,9.38,44.31,9c4.93-.45,4.92-1.71,5.61-2.88,2-3.33,1.42-6.74,3.19-10.06,4.33-8.16,3.79-16.37,4.11-24.59,1.07-3.35-2-6.62-1.86-9.26,1.13,2.7,4.8,5.89,9.35,9,4.08,2.77,6.08,5.54,5.91,8.59-.42,7.8-3.85,15.59-1.5,23.37.64,2.12-2,2.6-7.57,2.86-6.37,2.34-6.22,4.05.63,6.56,10.71,3.42,25,4.39,39.78,5.08,9.64-.43,12.77-2.5,14.78-4.95,4-4.85,1.59-9.66-.37-14.49-.52-1.29-2.11-2.76,3.61-3.61,4.6.71,4.81,1.92,5.27,3.09,1.33,3.35,3.11,6.68,1.13,10.07-.62,1.06.59,2.13,4.35,2.39,4.36.3,6.82-.59,7.82-1.78,1.46-1.73,2.72-3.47,2.73-5.28.07-17.26.1-34.52,0-51.78a6,6,0,0,0-.42-2.08c-3.66-9.66-4.17-19.37-5.4-29.07-.23-1.82-2.82-4.63,6.16-5,9.31-.37,10.82,2.49,13.07,4.51,2.09,1.88,2.67,3.89,5.51,5.71,1.17.75,2.7,1.46,5.93,1.33s4.22-.88,4.8-1.7a4.31,4.31,0,0,0,.67-1.77C926,780,918.3,766.89,914.93,753.66Z"/><path class="cls-28" d="M780.52,720.44l2.38-.44Z"/><path class="cls-29" d="M778.67,720.5c0-.1,0-.19,0-.29.56-5.71-51.17,28.79-60.17,3.79-.82-2.28,36.15-8.76,33.62-8.85l51.1-8.93L806,707c-6.2,4.56-6.59,9.92-23.06,13q-1.15.24-2.38.44Z"/><path class="cls-29" d="M817.15,876.63c.52-7.28,1.25-14.56,1.47-21.84.1-3.33.42-6.74-1.74-10-1-1.48-7.72-2.62-11.85-3.92l-3.89-14.24,5.21-.22c5.3,8.7,20.91,16.58,19.38,25.88-1.46,8.9-.82,17.83-1.11,26.75l-3.79.11Z"/><path class="cls-30" d="M809,795.3l-8.33,2c-1.77-.7-4.92-1.39-4.93-2.09s3-1.46,4.71-2.2Z"/><path class="cls-28" d="M786.66,826.33c-3.31.78-5.62,1.72-7.34,1.63-2.06-.1-5.1-1.1-5-1.67s3.12-1.52,5.32-1.66C781.19,824.53,783.51,825.52,786.66,826.33Z"/><path class="cls-30" d="M760.24,750c-3.07.86-4.74,1.69-6.53,1.71-1.59,0-4.53-.83-4.67-1.34s2.17-1.42,3.93-1.55C754.54,748.67,756.82,749.37,760.24,750Z"/><path class="cls-31" d="M1019.52,755.49l31,.12a25.33,25.33,0,0,1,13.84.62c10.87.62,21.93,1,32.52,1.94,2.94.25,8.58-.19,11.18.41a6,6,0,0,1,4.11,3.31c1,2.18,4.42,4.1-1.58,7.1-21.12,3.9-58.29,3.44-79.84,7.13-11,1.88-23.14,3.21-35,4.59-9.55,1.1-18.29.73-25.54-1.78-8.47-2.92-17.59-5.69-26.43-8.52-4.44-4.7-2.87-6.21,11.37-8.81C974.75,758,996.6,756.23,1019.52,755.49Z"/><path class="cls-28" d="M995.27,873c-3-4.39-5.77-8.77-1.76-13.49,17.68,3.71,28.56,20.35,21.11,30.89l-6-1.36c-6.37-.24-5.43-1.77-5.71-3-.9-3.85-4.11-7.63-4.1-11.52C998.85,873.86,998.44,873.11,995.27,873Z"/><path class="cls-27" d="M995.27,873l2.74-2.18,3.16-.1,7.48,18.32c-.36,1.77-.34,3.55-1.26,5.29-.44.83-2.65,1.59-4.06,2.37-2.15-.66-5.32-1.21-6.24-2-1.83-1.56-3.4-3.25-3.36-4.88C993.84,884.2,994.7,878.59,995.27,873Z"/><path class="cls-28" d="M999.63,846.46c0-1.53-4-3.79,4.68-4a43.71,43.71,0,0,1,13.67,2.11c3.35,1.31,3.8,3.24-4,4C1007.44,848.9,1004.24,847.27,999.63,846.46Z"/><path class="cls-29" d="M999.63,846.46c6.85-.5,11.87.07,14.34,2.13l-8.19,2.13Z"/><path class="cls-28" d="M1010.65,813.66c-3.63.61-6.44,1.43-8.09,1.26-1.94-.2-4.14-1.3-3.88-1.92s3.57-1,5.55-1.56Z"/><path class="cls-29" d="M736.55,732.55l-1.77-.25q-1.63-1.39-3.35-2.68a7.73,7.73,0,0,0-3.24,1.92q-1-2.72-2-5.45-2.64-1.6-5.41-3c-4-1.95-8.7-3.46-12.93-2.59.07,4.78,2,9.61,5.16,14.31,4.85,7.32,7.32,14.62,7.14,22.1-.33,13.67-.7,27.38,2.15,41,2.91,13.9,10.78,27.71,14.32,41.6,1.79,7-.16,14.18-2.43,21.22-1.41,4.38,3.73,8,17.57,9.33,12.79-.94,4.46-4.32,8.51-6.31,3.53.5,7.16,1,11,.18,3.19-1.77,4.5-3.73,6.7-5.6,1-4.61-1.24-9.07-6.75-13.4-1.62-1.27-4-2.38-9.33-2.27s-7.37,1.18-8.25,2.57c-.42.67-1,1.33-1.26,1.91a8.71,8.71,0,0,0-.47-3.87c-1.79-5.72-4.25-11.44-4.48-17.17-.28-7-3.86-13.81-5.63-20.72-1.59-6.21-4.55-12.42,2.85-18.52,3-2.46,3-5.08,2.24-7.66-1.77-6.22-4.44-12.41-6.8-18.6-3.17-8.34-6.93-16.65-10.29-25,2.54,1.54,7.32,2.41,14.14,3l2.27.21C743.44,736,740.33,733.6,736.55,732.55Z"/><path class="cls-30" d="M1200.55,734c-2.38-2.26-16.36-10.75-19-13-13.73-11.7-34.72-20.86-56.27-31.46l.05,0a8.82,8.82,0,0,1-1.78-.58,8.23,8.23,0,0,0-3.13-.53c-38.77-.23-77.53-.51-116.3-.6-18.15,0-36.31.42-54.47.47-34,.09-68-.33-101.88.21a459,459,0,0,0-48.36,3.53c-14.93,1.85-27.75,5.12-42,7.52-17.77,3-32.62,6.89-42,12.17-4.63,2.59-7.56,5.78-7.53,8.69,0,0,0,.06,0,.09,4.23-.87,8.92.64,12.93,2.59q2.77,1.35,5.41,3c-.11-.3-.22-.61-.32-.91-.55-1.64,1.38-2.93,5.78-3.88,7.06-1.52,13.74-3.2,21.21-4.57,10.55-3.36,25.62-4.52,38.35-6.81a11.55,11.55,0,0,1,5.87.08c-2.17,3.27-6.12,6.34-14.91,8.74a27,27,0,0,1-3.52.57c-.85.07-1.71.15-2.55.24a35.17,35.17,0,0,0-6.08,1.55c-6.33,1.31-11.24,3.2-18.76,4-3.12.76-7,1.24-10.05,2a88.45,88.45,0,0,0-9.79,2.55c.82.12-5.22.85-3.88,2.37-.66,1.52.17,2.83,2,4,3.82,2.47,13.94,2.27,16.66,2.89,13.81,1.39,23.37,4.35,30.36,8.12,8.2,4.43,17,8.76,26.43,13,13.1,5.83,30.77,5.92,48.34,3.26,9.55-1.44,18.8-3.09,28.17-4.64,11.4-1.89,20.58-4.76,32.83-6.24,9.87-1.9,20.5-3.41,30.59-5.2,14.14-2.5,93.55-5.28,104.61-5.89,21.09-1.16,42.45-1.71,63.58-2.77q6.29,0,12.58,0,11.67.32,23.34,0c4.62,0,14.91-1.33,19.52-1.49C1183.18,738.21,1205,738.19,1200.55,734Z"/><path class="cls-31" d="M1212,730.1q-30.33-15-61.69-29.88c-7.75-3.67-16.69-7.13-25.08-10.69-2.73-1.54-25.7-2-20.73-1.54,21,2,23.83,15.63,29,18,14,6.45,17.71,10.53,11,15-12,8-123.32,15.56-124,20-.47,3.09,174.78-6.58,177-2,20.18,41.52-34.83,149.68-31,149,28-5,35.28-13.43,36-16,.65-2.33,18-121,21-126,2.3-3.83,1-8-2.1-9.08C1218.37,734.64,1216.26,732.19,1212,730.1Z"/><path class="cls-30" d="M1105,839.3l-8.33,2c-1.77-.7-4.92-1.39-4.93-2.09s3-1.46,4.71-2.2Z"/><path class="cls-27" d="M1122.11,878.66c-5.22-2.65-10.06-5.31-3.08-8.17,30.83,2.25,49.8,12.32,36.82,18.69l-10.41-.82c-11.11-.15-9.47-1.07-10-1.8-1.57-2.33-7.17-4.62-7.14-7C1128.35,879.19,1127.64,878.73,1122.11,878.66Z"/><path class="cls-31" d="M847.27,742c-3-4.39-5.77-8.77-1.76-13.49,17.68,3.71,28.56,20.35,21.11,30.89l-6-1.36c-6.37-.24-5.43-1.77-5.71-3-.9-3.85-4.11-7.63-4.1-11.52C850.85,742.86,850.44,742.11,847.27,742Z"/><path class="cls-28" d="M844.11,746.66l4.78-1.32,5.51-.06,13,11.08c-.63,1.07-.6,2.15-2.2,3.2-.77.5-4.62,1-7.08,1.44-3.76-.4-9.28-.74-10.89-1.21-3.2-.94-5.92-2-5.86-3C841.62,753.44,843.11,750.05,844.11,746.66Z"/><path class="cls-30" d="M1072,766.3l-8.33,2c-1.77-.7-4.92-1.39-4.93-2.09s3-1.46,4.71-2.2Z"/><path class="cls-28" d="M1151,873.3l-8.33,2c-1.77-.7-4.92-1.39-4.93-2.09s3-1.46,4.71-2.2Z"/><path class="cls-29" d="M969,819.3l-8.33,2c-1.77-.7-4.92-1.39-4.93-2.09s3-1.46,4.71-2.2Z"/><path class="cls-28" d="M1067,767.3l-8.33,2c-1.77-.7-4.92-1.39-4.93-2.09s3-1.46,4.71-2.2Z"/><path class="cls-31" d="M1191,753.3l-8.33,2c-1.77-.7-4.92-1.39-4.93-2.09s3-1.46,4.71-2.2Z"/><path class="cls-30" d="M1045,879.3l-8.33,2c-1.77-.7-4.92-1.39-4.93-2.09s3-1.46,4.71-2.2Z"/><path class="cls-31" d="M1215.73,780.06,1199,791c-3.56-3.88-9.92-7.75-9.92-11.63,0-4.08,6.07-8.16,9.48-12.24Z"/><path class="cls-31" d="M1117,722.3l-8.33,2c-1.77-.7-4.92-1.39-4.93-2.09s3-1.46,4.71-2.2Z"/><path class="cls-31" d="M1076.55,905s34.86-3.42,34-6c-2-6,15-141,0-138C1110.55,761,1107.55,897,1076.55,905Z"/><path class="cls-32" d="M1199.37,875.78c-.22-1.4-.33-2.8-.43-4.2a38.18,38.18,0,0,1-.08-4.19c0-1.39.11-2.78.2-4.17s.32-2.76.52-4.14.46-2.74.75-4.11.57-2.73,1-4.06.78-2.68,1.25-4,1.06-2.59,1.66-3.85c2.49-5,6-9.52,8.83-14.21s5.46-9.5,8.22-14.41c.72-1.21,1.44-2.42,2.19-3.62s1.57-2.36,2.45-3.48a61.36,61.36,0,0,1,5.7-6.3A67.15,67.15,0,0,1,1245,790.57a76.17,76.17,0,0,1,15.47-6.62,85.28,85.28,0,0,1,16.31-3.34l.31.8c-4.55,3.3-9.29,6-13.88,8.76s-9.09,5.43-13.43,8.25-8.68,5.57-12.8,8.75c-2.06,1.58-4,3.29-6,4.95l-3,2.55-2.95,2.68a42.6,42.6,0,0,0-9.49,12.83c-2.33,4.85-3.22,10.3-4.54,15.4-.31,1.29-.7,2.55-1.09,3.8s-.78,2.51-1.22,3.76-.82,2.51-1.25,3.76l-.66,1.87-.63,1.89a160.85,160.85,0,0,1-5.87,15.23Z"/><path class="cls-33" d="M1200.55,874.2a34.07,34.07,0,0,1,1.06-11.71c.26-1,.56-1.89.84-2.83s.69-1.85,1.07-2.76a26.08,26.08,0,0,1,2.85-5.19c2.3-3.25,5.33-5.89,7.94-8.71s5.14-5.72,7.8-8.62a43.06,43.06,0,0,1,9-7.58,54.59,54.59,0,0,1,10.44-5.44,66.12,66.12,0,0,1,11.24-3.06,68.11,68.11,0,0,1,11.56-1.15l.16.58a109,109,0,0,1-10.31,5.14L1244,827.36c-3.37,1.47-6.75,2.82-10,4.43-1.65.8-3.25,1.68-4.89,2.52s-3.29,1.68-4.89,2.65a28.14,28.14,0,0,0-8.4,7.31c-2.28,3-3.59,6.6-5,9.94-.75,1.67-1.51,3.32-2.34,4.93-.38.83-.8,1.63-1.2,2.46s-.76,1.66-1.17,2.49c-1.56,3.34-3,6.74-4.9,10.23Z"/><path class="cls-32" d="M1035.84,912.28a33.43,33.43,0,0,1-.35-5.72c0-.95.07-1.9.14-2.85s.21-1.88.35-2.82a46.49,46.49,0,0,1,1.18-5.57c.26-.91.53-1.82.85-2.72s.72-1.76,1.13-2.62c1.7-3.44,4.09-6.49,6-9.69s3.71-6.49,5.6-9.82a46.44,46.44,0,0,1,3.17-4.83,40.36,40.36,0,0,1,3.88-4.3,45.78,45.78,0,0,1,9.12-7.15,51.93,51.93,0,0,1,10.55-4.52,59.66,59.66,0,0,1,11.12-2.27l.21.55c-3.1,2.25-6.34,4.07-9.46,6s-6.2,3.7-9.15,5.62-5.92,3.8-8.72,6c-1.41,1.08-2.74,2.25-4.12,3.37-.68.57-1.34,1.17-2,1.74l-2,1.83a29.17,29.17,0,0,0-6.47,8.75c-1.58,3.31-2.2,7-3.1,10.5-.21.88-.48,1.74-.74,2.59s-.53,1.71-.83,2.56-.56,1.71-.85,2.56-.6,1.7-.88,2.57a110.2,110.2,0,0,1-4,10.39Z"/><path class="cls-33" d="M1036.64,911.2a19.38,19.38,0,0,1,0-4,23.8,23.8,0,0,1,.7-4c.17-.65.38-1.29.58-1.93s.47-1.26.73-1.88a17.78,17.78,0,0,1,1.94-3.54,60.56,60.56,0,0,1,5.41-5.94c1.8-1.91,3.5-3.9,5.32-5.88.45-.5.93-1,1.41-1.44a20,20,0,0,1,1.5-1.36,31.86,31.86,0,0,1,3.26-2.36,37.76,37.76,0,0,1,7.12-3.71,47.94,47.94,0,0,1,15.55-2.87l.11.4a72.06,72.06,0,0,1-7,3.5l-7,3.06c-2.3,1-4.61,1.92-6.85,3-1.12.55-2.22,1.14-3.34,1.72s-2.25,1.14-3.33,1.81a19.19,19.19,0,0,0-5.73,5,31.5,31.5,0,0,0-3.44,6.78c-1,2.29-2.19,4.44-3.22,6.73l-1.6,3.45c-.56,1.16-1.06,2.35-1.74,3.53Z"/><path class="cls-32" d="M747.79,868.72a83.45,83.45,0,0,1-2.91-8.34c-.88-2.77-1.58-5.55-2.34-8.31-.38-1.38-.68-2.77-1-4.15s-.71-2.76-1-4.14-.65-2.76-.94-4.15-.5-2.8-.72-4.2c-.84-5.63-1.13-11.51-2.8-17a52.86,52.86,0,0,0-7.6-15.34c-1.63-2.35-3.36-4.61-5.06-6.85s-3.37-4.45-5.11-6.58a164.27,164.27,0,0,0-11.37-12c-3.88-3.86-8.05-7.44-12.43-11l-6.71-5.35c-2.26-1.82-4.56-3.64-6.76-5.67l.41-.78a80.35,80.35,0,0,1,16.77,5.94,67,67,0,0,1,15.09,10,68.46,68.46,0,0,1,11.67,13.9,66.71,66.71,0,0,1,4.48,7.85c.63,1.36,1.26,2.72,1.77,4.13s1.08,2.78,1.54,4.2c1.89,5.65,3.75,11.15,6,16.55s5.23,10.59,7.22,16.18a51.57,51.57,0,0,1,2.2,8.55c.27,1.45.48,2.9.7,4.36s.33,2.92.45,4.39a69.4,69.4,0,0,1-.61,17.71Z"/><path class="cls-33" d="M747,866.83a115.93,115.93,0,0,1-4.21-10.92q-.45-1.36-.93-2.7c-.31-.9-.58-1.8-.9-2.69s-.62-1.78-.88-2.69-.56-1.8-.78-2.73c-1-3.66-1.59-7.56-3.26-11a30.67,30.67,0,0,0-6.81-9.2c-2.81-2.63-5.69-5-8.6-7.3s-6.07-4.25-9.18-6.27-6.33-3.95-9.63-5.91-6.69-3.91-10-6.28l.22-.58a62.76,62.76,0,0,1,11.69,2.39,54.64,54.64,0,0,1,11.09,4.75,48.15,48.15,0,0,1,9.59,7.51,42.42,42.42,0,0,1,4.08,4.52c.62.8,1.19,1.65,1.76,2.49s1.06,1.73,1.57,2.59c2,3.51,3.83,7,5.89,10.33s4.55,6.57,6.33,10.19c.43.9.85,1.82,1.19,2.76s.62,1.9.89,2.86.47,1.94.71,2.91.42,2,.53,2.94.26,2,.37,3,.12,2,.14,3a35.13,35.13,0,0,1-.36,6Z"/><path class="cls-32" d="M1202.65,875.89c-1.38-2.85-2.31-5.7-3.34-8.49s-2-5.55-2.81-8.39-1.34-5.87-2.69-8.56a23.57,23.57,0,0,0-5.46-7.05c-2.23-2-4.53-3.76-6.84-5.53s-4.81-3.22-7.27-4.74-5-3-7.59-4.5-5.26-3-7.83-4.8l.17-.45a48.91,48.91,0,0,1,9.14,1.75,43.22,43.22,0,0,1,8.71,3.55,38.2,38.2,0,0,1,7.6,5.7q.88.8,1.69,1.67a20.81,20.81,0,0,1,1.57,1.79,36.53,36.53,0,0,1,2.69,3.9c1.62,2.7,3.11,5.37,4.77,8s3.65,5.06,5.08,7.86q.52,1.05,1,2.14c.27.73.5,1.48.72,2.23a37.09,37.09,0,0,1,1,4.56,31,31,0,0,1,.18,9.34Z"/><path class="cls-33" d="M1202.12,875c-1.06-2-1.88-3.86-2.81-5.71s-1.88-3.63-2.74-5.49a25.59,25.59,0,0,0-3-5.52,16,16,0,0,0-4.82-4c-.9-.53-1.86-1-2.78-1.43s-1.85-.93-2.78-1.36c-1.87-.87-3.79-1.59-5.7-2.39a124.42,124.42,0,0,1-11.6-5.28l.09-.33a39.89,39.89,0,0,1,12.83,2.23,31.62,31.62,0,0,1,5.91,2.95,24.79,24.79,0,0,1,5.17,4.14c1.54,1.59,3,3.19,4.5,4.74a48.63,48.63,0,0,1,4.57,4.79,14.94,14.94,0,0,1,1.66,2.89c.22.51.42,1,.63,1.54s.34,1.05.5,1.59a19.08,19.08,0,0,1,.67,6.57Z"/><path class="cls-32" d="M1036.22,915a77.22,77.22,0,0,1-2-7.85c-.59-2.61-1-5.23-1.49-7.85s-.81-5.23-1.19-7.85-.63-5.24-.77-7.88c-.24-5.29,0-10.69-.73-15.95a68.6,68.6,0,0,0-4.11-15.34l-5.8-14.67c-2-4.8-4.28-9.42-6.55-14a117.77,117.77,0,0,0-7.6-13.31c-1.42-2.15-2.95-4.25-4.51-6.39s-3.22-4.24-4.77-6.49l.47-.5a64.26,64.26,0,0,1,6.79,4.51,55.55,55.55,0,0,1,6.22,5.43,54.56,54.56,0,0,1,5.41,6.33,60.11,60.11,0,0,1,4.48,7,79.29,79.29,0,0,1,6.17,15.25l1.12,3.93q.51,2,.93,4c.55,2.66.94,5.35,1.28,8s.69,5.35,1.12,8,.92,5.27,1.52,7.87c1.15,5.21,3.1,10.33,4.22,15.59a57.58,57.58,0,0,1,1.17,8c.28,2.67.36,5.35.44,8a83,83,0,0,1-1.12,16.15Z"/><path class="cls-33" d="M1035.78,913.06a45.12,45.12,0,0,1-1.5-4.93c-.47-1.64-.8-3.29-1.17-4.92a94.18,94.18,0,0,1-1.69-9.87c-.32-3.33-.27-6.77-1-10.05a36,36,0,0,0-3.51-9.41l-1.2-2.21c-.41-.73-.84-1.44-1.23-2.17-.81-1.44-1.6-2.87-2.44-4.27-1.68-2.78-3.61-5.41-5.51-8a75.85,75.85,0,0,0-6.23-7.4c-2.23-2.4-4.75-4.65-7.1-7.21l.27-.4a42.68,42.68,0,0,1,9.28,4.7c.73.49,1.44,1,2.14,1.55s1.37,1.13,2,1.73a33.47,33.47,0,0,1,3.67,3.85,43.36,43.36,0,0,1,5.48,9,47.14,47.14,0,0,1,2,4.85c.56,1.65.95,3.35,1.36,5,.76,3.37,1.49,6.69,2.54,9.92s2.5,6.4,3.46,9.71a32,32,0,0,1,1,5c.25,1.69.38,3.4.46,5.11a46.17,46.17,0,0,1-.57,10.3Z"/><path class="cls-32" d="M747.08,874a39.19,39.19,0,0,1-.32-10.27,47.1,47.1,0,0,1,.71-5.07,29,29,0,0,1,1.34-4.95c1.19-3.23,3-6.21,4.37-9.31s2.48-6.28,3.69-9.52a48.6,48.6,0,0,1,2.07-4.78c.4-.78.84-1.53,1.29-2.28s1-1.48,1.47-2.18a40.39,40.39,0,0,1,7-7.82,39.68,39.68,0,0,1,8.93-5.49,47.91,47.91,0,0,1,9.79-3.21l.23.46c-2.61,2.28-5.36,4.21-8,6.22s-5.07,4-7.41,6.17-4.67,4.29-6.82,6.69c-.55.59-1,1.22-1.57,1.82s-1,1.25-1.54,1.87-1,1.27-1.54,1.91-1,1.29-1.51,2a29.58,29.58,0,0,0-4.62,8.77c-1,3.17-1.27,6.57-1.77,9.82-.26,1.63-.61,3.23-1,4.82s-.82,3.19-1.23,4.79a81.68,81.68,0,0,1-3.11,9.63Z"/><path class="cls-33" d="M747.71,872.9a18.92,18.92,0,0,1-.19-3.51,23.19,23.19,0,0,1,.33-3.48,27.23,27.23,0,0,1,.78-3.41c.17-.56.34-1.12.55-1.67s.47-1.08.73-1.6c1.09-2.09,2.62-3.93,3.87-5.85s2.4-3.91,3.65-5.91a26,26,0,0,1,2.06-2.89,16,16,0,0,1,1.2-1.32c.4-.43.84-.83,1.28-1.23a28.54,28.54,0,0,1,5.74-4.19A35.92,35.92,0,0,1,781.08,834l.12.34c-1.92,1.35-3.93,2.45-5.88,3.56s-3.86,2.2-5.72,3.32-3.72,2.21-5.49,3.48-3.49,2.6-5.18,4.07a17.67,17.67,0,0,0-4.16,5.22,33.3,33.3,0,0,0-2.08,6.38c-.61,2.12-1.39,4.17-2.14,6.26s-1.49,4.21-2.51,6.35Z"/></g><g id="Blocker_Boxes" data-name="Blocker Boxes"><rect class="cls-34" x="-343" y="-232" width="346" height="1545"/><rect class="cls-34" x="1917" y="-240" width="346" height="1545"/></g></g></g></svg>