<?xml version="1.0" encoding="utf-8"?>
<!-- Generator: Adobe Illustrator 21.1.0, SVG Export Plug-In . SVG Version: 6.00 Build 0)  -->
<svg version="1.1" id="Layer_1" xmlns="http://www.w3.org/2000/svg" xmlns:xlink="http://www.w3.org/1999/xlink" x="0px" y="0px"
	 viewBox="0 0 1920 1080" style="enable-background:new 0 0 1920 1080;" xml:space="preserve" preserveAspectRatio="xMidYMax slice">
    <style type="text/css">
        .st0{display:none;}
        .st1{display:inline;}
        .st2{enable-background:new    ;}
        .st3{fill:#FFFFFF;}
        .st4{opacity:0.61;fill:url(#SKY_2_);}
        .st5{opacity:0.58;}
        .st6{opacity:0.35;fill:url(#XMLID_201_);}
        .st7{opacity:0.35;fill:url(#XMLID_202_);}
        .st8{opacity:0.35;fill:url(#XMLID_203_);}
        .st9{opacity:0.35;fill:url(#XMLID_204_);}
        .st10{opacity:0.35;fill:url(#XMLID_205_);}
        .st11{opacity:0.35;fill:url(#XMLID_206_);}
        .st12{fill:#51757F;}
        .st13{fill:#82A8B1;}
        .st14{fill:#37606B;}
        .st15{opacity:0.25;fill:#FFFFFF;}
        .st16{fill:#B7D443;}
        .st17{fill:#7ABC43;}
        .st18{fill:#72A742;}
        .st19{fill:#4E9242;}
        .st20{fill:#66A944;}
        .st21{fill:#64AE45;}
        .st22{fill:#81BC41;}
        .st23{fill:#93C83D;}
        .st24{fill:#87AF40;}
        .st25{fill:#7FB442;}
        .st26{fill:#7EAE42;}
        .st27{fill:#91B83E;}
        .st28{fill:#CADD73;}
        .st29{fill:#E9F0C1;}
        .st30{fill:#BBDB95;}
        .st31{fill:#9BCA46;}
        .st32{fill:#6A9E41;}
        .st33{fill:#6A9C41;}
        .st34{fill:#B6D560;}
        .st35{fill:#BCD86F;}
        .st36{fill:#DEE8A0;}
        .st37{fill:#2F763A;}
        .st38{fill:#6A973F;}
        .st39{fill:#82A63E;}
        .st40{fill:#A6CB58;}
        .st41{fill:#90BA50;}
        .st42{fill:#EAF1CA;}
        .st43{fill:#DCE8A2;}
        .st44{fill:#4A9343;}
        .st45{fill:#46843E;}
        .st46{fill:#4E9342;}
        .st47{fill:#7DB442;}
        .st48{fill:#AAD290;}
        .st49{fill:#DEE8A2;}
        .st50{fill:#9DCD68;}
        .st51{fill:#B7D66E;}
        .st52{fill:#CAE19F;}
        .st53{fill:#C5DD85;}
        .st54{fill:#D8E594;}
        .st55{fill:#9DCF80;}
        .st56{fill:#216834;}
        .st57{fill:#7EBB61;}
        .st58{fill:#3F7F3C;}
        .st59{fill:#7FBA61;}
        .st60{fill:#5E9A42;}
        .st61{fill:#3E803D;}
        .st62{fill:#7CB442;}
        .st63{fill:#559241;}
        .st64{fill:#7EB854;}
        .st65{fill:#D6E7B1;}
        .st66{fill:#7AAF42;}
        .st67{fill:#4F8B40;}
        .st68{fill:#87C148;}
        .st69{fill:#C4DE9E;}
        .st70{opacity:0.65;}
        .st71{fill:#64A849;}
        .st72{fill:#5CAF5C;}
        .st73{fill:#519A50;}
        .st74{fill:#72C070;}
        .st75{fill:#66BB6A;}
        .st76{fill:#2D5360;}
        .st77{fill:#233F1D;}
        .st78{fill:#421B16;}
        .st79{fill:#468940;}
        .st80{fill:#71BF56;}
        .st81{fill:#44707A;}
        .st82{fill:#0297A7;}
        .st83{fill:none;}
        .st84{clip-path:url(#SVGID_5_);}
        .st85{clip-path:url(#SVGID_10_);}
        .st86{clip-path:url(#SVGID_11_);}
        .st87{clip-path:url(#SVGID_17_);}
        .st88{clip-path:url(#SVGID_18_);}
        .st89{clip-path:url(#SVGID_19_);}
        .st90{clip-path:url(#SVGID_20_);fill:url(#pathway_3_);}
        .st91{clip-path:url(#SVGID_25_);}
        .st92{clip-path:url(#SVGID_26_);}
        .st93{clip-path:url(#SVGID_27_);}
        .st94{clip-path:url(#SVGID_28_);}
        .st95{opacity:0.5;enable-background:new    ;}
        .st96{fill:#604A30;}
        .st97{fill:#896A4B;}
        .st98{fill:#493622;}
        .st99{fill:#B19272;}
        .st100{fill:#CEB197;}
        .st101{fill:#006837;}
        .st102{fill:#009245;}
        .st103{clip-path:url(#SVGID_30_);}
        .st104{fill:#D84997;}
        .st105{fill:#D7C19B;}
        .st106{fill:#E1D4AF;}
        .st107{fill:#E553AA;}
        .st108{fill:#010101;}
        .st109{clip-path:url(#SVGID_32_);fill:#D84997;}
        .st110{fill:#FAF5B2;}
        .st111{fill:#A22E2A;}
        .st112{fill:#1D2413;}
        .st113{opacity:0.25;}
        .st114{fill:#9E2C32;}
        .st115{fill:#9D2C35;}
        .st116{fill:#9D2F36;}
        .st117{fill:#832251;}
        .st118{fill:#9C3E56;}
        .st119{fill:#14170D;}
        .st120{fill:#679F42;}
        .st121{fill:#568C3F;}
        .st122{fill:#AED580;}
        .st123{fill:#9CCC65;}
        .st124{fill:#42A047;}
        .st125{fill:#B8D549;}
        .st126{fill:#7CB342;}
        .st127{fill:#359646;}
        .st128{opacity:0.61;fill:url(#SKY_3_);}
        .st129{opacity:0.35;fill:url(#XMLID_207_);}
        .st130{opacity:0.35;fill:url(#XMLID_208_);}
        .st131{opacity:0.35;fill:url(#XMLID_209_);}
        .st132{opacity:0.35;fill:url(#XMLID_210_);}
        .st133{opacity:0.35;fill:url(#XMLID_211_);}
        .st134{opacity:0.35;fill:url(#XMLID_212_);}
        .st135{clip-path:url(#SVGID_37_);}
        .st136{clip-path:url(#SVGID_42_);}
        .st137{clip-path:url(#SVGID_43_);}
        .st138{clip-path:url(#SVGID_49_);}
        .st139{clip-path:url(#SVGID_50_);}
        .st140{clip-path:url(#SVGID_51_);}
        .st141{clip-path:url(#SVGID_52_);fill:url(#pathway_4_);}
        .st142{clip-path:url(#SVGID_57_);}
        .st143{clip-path:url(#SVGID_58_);}
        .st144{clip-path:url(#SVGID_59_);}
        .st145{clip-path:url(#SVGID_60_);}
        .st146{clip-path:url(#SVGID_62_);}
        .st147{fill:#353434;}
        .st148{clip-path:url(#SVGID_64_);fill:#D84997;}
        #headband path{fill:#fff; stroke: rgba(0,0,0,.3)}
        #belt path{fill:#fff; stroke: rgba(0,0,0,.3)}
    </style>
<g>
	<rect x="-6.2" y="0.7" class="st3" width="1507.9" height="1074.7"/>
	<linearGradient id="SKY_2_" gradientUnits="userSpaceOnUse" x1="956.8979" y1="1076.0857" x2="956.8979" y2="17.4757">
		<stop  offset="0" style="stop-color:#DAF0F6"/>
		<stop  offset="0.9989" style="stop-color:#00BFF2"/>
	</linearGradient>
	<rect id="SKY_1_" x="-6.2" y="0.7" class="st4" width="1926.2" height="1072.5"/>
	<g class="st5">
		<linearGradient id="XMLID_201_" gradientUnits="userSpaceOnUse" x1="-5.0423" y1="661.4437" x2="1938.4567" y2="661.4437">
			<stop  offset="0" style="stop-color:#DAF0F6"/>
			<stop  offset="2.638120e-04" style="stop-color:#D8EFF6"/>
			<stop  offset="3.588439e-04" style="stop-color:#D1EDF5"/>
			<stop  offset="4.265869e-04" style="stop-color:#C6E9F5"/>
			<stop  offset="4.809665e-04" style="stop-color:#B5E3F4"/>
			<stop  offset="5.103600e-04" style="stop-color:#A8DEF3"/>
			<stop  offset="0.4558" style="stop-color:#AADFF3"/>
			<stop  offset="0.6294" style="stop-color:#B1E1F4"/>
			<stop  offset="0.755" style="stop-color:#BDE6F6"/>
			<stop  offset="0.8573" style="stop-color:#CEECF8"/>
			<stop  offset="0.9445" style="stop-color:#E4F4FB"/>
			<stop  offset="0.9984" style="stop-color:#F6FBFD"/>
		</linearGradient>
		<polygon id="XMLID_199_" class="st6" points="-5,691.4 1938.5,693 1932.7,676.8 -5,629.9 		"/>
		<linearGradient id="XMLID_202_" gradientUnits="userSpaceOnUse" x1="-5.0423" y1="579.434" x2="1950" y2="579.434">
			<stop  offset="0" style="stop-color:#DAF0F6"/>
			<stop  offset="2.638120e-04" style="stop-color:#D8EFF6"/>
			<stop  offset="3.588439e-04" style="stop-color:#D1EDF5"/>
			<stop  offset="4.265869e-04" style="stop-color:#C6E9F5"/>
			<stop  offset="4.809665e-04" style="stop-color:#B5E3F4"/>
			<stop  offset="5.103600e-04" style="stop-color:#A8DEF3"/>
			<stop  offset="0.4558" style="stop-color:#AADFF3"/>
			<stop  offset="0.6294" style="stop-color:#B1E1F4"/>
			<stop  offset="0.755" style="stop-color:#BDE6F6"/>
			<stop  offset="0.8573" style="stop-color:#CEECF8"/>
			<stop  offset="0.9445" style="stop-color:#E4F4FB"/>
			<stop  offset="0.9984" style="stop-color:#F6FBFD"/>
		</linearGradient>
		<polygon id="XMLID_198_" class="st7" points="1950,583.6 -5,561.8 -5,597.1 1950,597.1 		"/>
		<linearGradient id="XMLID_203_" gradientUnits="userSpaceOnUse" x1="-5.0423" y1="490.0793" x2="1950" y2="490.0793">
			<stop  offset="0" style="stop-color:#DAF0F6"/>
			<stop  offset="2.638120e-04" style="stop-color:#D8EFF6"/>
			<stop  offset="3.588439e-04" style="stop-color:#D1EDF5"/>
			<stop  offset="4.265869e-04" style="stop-color:#C6E9F5"/>
			<stop  offset="4.809665e-04" style="stop-color:#B5E3F4"/>
			<stop  offset="5.103600e-04" style="stop-color:#A8DEF3"/>
			<stop  offset="0.4558" style="stop-color:#AADFF3"/>
			<stop  offset="0.6294" style="stop-color:#B1E1F4"/>
			<stop  offset="0.755" style="stop-color:#BDE6F6"/>
			<stop  offset="0.8573" style="stop-color:#CEECF8"/>
			<stop  offset="0.9445" style="stop-color:#E4F4FB"/>
			<stop  offset="0.9984" style="stop-color:#F6FBFD"/>
		</linearGradient>
		<polygon id="XMLID_197_" class="st8" points="1950,453.6 -5,466.2 -5,526.6 1950,526.6 		"/>
		<linearGradient id="XMLID_204_" gradientUnits="userSpaceOnUse" x1="-5.0423" y1="345.5072" x2="1938.4567" y2="345.5072">
			<stop  offset="0" style="stop-color:#DAF0F6"/>
			<stop  offset="2.638120e-04" style="stop-color:#D8EFF6"/>
			<stop  offset="3.588439e-04" style="stop-color:#D1EDF5"/>
			<stop  offset="4.265869e-04" style="stop-color:#C6E9F5"/>
			<stop  offset="4.809665e-04" style="stop-color:#B5E3F4"/>
			<stop  offset="5.103600e-04" style="stop-color:#A8DEF3"/>
			<stop  offset="0.4558" style="stop-color:#AADFF3"/>
			<stop  offset="0.6294" style="stop-color:#B1E1F4"/>
			<stop  offset="0.755" style="stop-color:#BDE6F6"/>
			<stop  offset="0.8573" style="stop-color:#CEECF8"/>
			<stop  offset="0.9445" style="stop-color:#E4F4FB"/>
			<stop  offset="0.9984" style="stop-color:#F6FBFD"/>
		</linearGradient>
		<polygon id="XMLID_196_" class="st9" points="-5,398.3 1938.5,401.1 1932.7,372.6 -5,289.9 		"/>
		<linearGradient id="XMLID_205_" gradientUnits="userSpaceOnUse" x1="-5.0423" y1="201.0074" x2="1950" y2="201.0074">
			<stop  offset="0" style="stop-color:#DAF0F6"/>
			<stop  offset="2.638120e-04" style="stop-color:#D8EFF6"/>
			<stop  offset="3.588439e-04" style="stop-color:#D1EDF5"/>
			<stop  offset="4.265869e-04" style="stop-color:#C6E9F5"/>
			<stop  offset="4.809665e-04" style="stop-color:#B5E3F4"/>
			<stop  offset="5.103600e-04" style="stop-color:#A8DEF3"/>
			<stop  offset="0.4558" style="stop-color:#AADFF3"/>
			<stop  offset="0.6294" style="stop-color:#B1E1F4"/>
			<stop  offset="0.755" style="stop-color:#BDE6F6"/>
			<stop  offset="0.8573" style="stop-color:#CEECF8"/>
			<stop  offset="0.9445" style="stop-color:#E4F4FB"/>
			<stop  offset="0.9984" style="stop-color:#F6FBFD"/>
		</linearGradient>
		<polygon id="XMLID_195_" class="st10" points="1950,208.3 -5,169.9 -5,232.1 1950,232.1 		"/>
		<linearGradient id="XMLID_206_" gradientUnits="userSpaceOnUse" x1="-5.0423" y1="54.2842" x2="1950" y2="54.2842">
			<stop  offset="0" style="stop-color:#DAF0F6"/>
			<stop  offset="2.638120e-04" style="stop-color:#D8EFF6"/>
			<stop  offset="3.588439e-04" style="stop-color:#D1EDF5"/>
			<stop  offset="4.265869e-04" style="stop-color:#C6E9F5"/>
			<stop  offset="4.809665e-04" style="stop-color:#B5E3F4"/>
			<stop  offset="5.103600e-04" style="stop-color:#A8DEF3"/>
			<stop  offset="0.4558" style="stop-color:#AADFF3"/>
			<stop  offset="0.6294" style="stop-color:#B1E1F4"/>
			<stop  offset="0.755" style="stop-color:#BDE6F6"/>
			<stop  offset="0.8573" style="stop-color:#CEECF8"/>
			<stop  offset="0.9445" style="stop-color:#E4F4FB"/>
			<stop  offset="0.9984" style="stop-color:#F6FBFD"/>
		</linearGradient>
		<polygon id="XMLID_194_" class="st11" points="1950,0.7 -5,1.5 -5,107.9 1950,107.9 		"/>
	</g>
	<g id="MOUNTAIN_1_">
		<polygon id="XMLID_193_" class="st12" points="1417.7,665.7 1270.3,438.4 905,571.8 965.3,617.4 		"/>
		<polygon id="XMLID_192_" class="st13" points="1504.3,675 1474.2,574.3 1270.3,438.4 1417.7,665.7 		"/>
		<polygon id="XMLID_191_" class="st13" points="531.2,859.8 1100.2,859.8 1504.3,859.8 1504.3,675 1417.7,665.7 965.3,617.4 
			905,571.8 796.6,489.8 676.3,471.2 531.2,505.7 		"/>
		<polygon id="XMLID_190_" class="st13" points="232.7,530.1 246.8,317.1 174.2,317.1 232,530.4 		"/>
		<polygon id="XMLID_189_" class="st13" points="436.2,432.9 431.3,427.2 388.9,427.2 243.3,525.1 		"/>
		<polygon id="XMLID_188_" class="st14" points="231.7,530.6 113.7,288.6 20.8,438.4 -8.2,453.1 -8.2,528.9 72.1,486.6 120.2,508.3 
			-8.2,535.7 -8.2,589.1 165.5,562.2 		"/>
		<polygon id="XMLID_187_" class="st12" points="113.7,288.6 -8.2,376.3 -8.2,453.1 20.8,438.4 		"/>
		<polygon id="XMLID_186_" class="st12" points="232,530.4 174.2,317.1 113.7,288.6 231.7,530.6 		"/>
		<polygon id="XMLID_185_" class="st12" points="243.3,525.1 388.9,427.2 246.8,317.1 232.7,530.1 		"/>
		<polygon id="XMLID_184_" class="st12" points="232.7,530.1 232,530.4 231.7,530.6 165.5,562.2 503.5,510 434,430.3 436.2,432.9 
			243.3,525.1 		"/>
		<polygon id="XMLID_183_" class="st12" points="72.1,486.6 -8.2,528.9 -8.2,535.7 120.2,508.3 		"/>
		<polygon id="XMLID_178_" class="st13" points="31,859.8 520.1,859.8 522,859.8 531.2,859.8 531.2,505.7 531.2,505.7 503.5,510 
			165.5,562.2 -8.2,589.1 -8.2,859.8 31,859.8 		"/>
	</g>
	<g>
		<path class="st3" d="M1213.6,379.8c-4.2-1.6-9.4,0-14.3,2.7c-2.2-7.4-6.8-17.1-16.5-21.8c-16.9-8.1-25.7,17.2-25.7,17.2
			s-16.9-51-46.3-44.4c-29.4,6.6-24.3,44.4-24.3,44.4s-8.1-16.5-26.5-13.5c-18.4,2.9-11,34.7-11,34.7c-23.5,3.8-37.5,9.6-37.5,9.6
			h252.8l-39.2-10.3C1224.6,393.3,1222.3,383.1,1213.6,379.8z"/>
		<path class="st3" d="M1794,101.2c-4.2-1.6-9.4,0-14.3,2.7c-2.2-7.4-6.8-17.1-16.5-21.8c-16.9-8.1-25.7,17.2-25.7,17.2
			s-16.9-51-46.3-44.4c-29.4,6.6-24.3,44.4-24.3,44.4s-8.1-16.5-26.5-13.5c-18.4,2.9-11,34.7-11,34.7c-23.5,3.8-37.5,9.6-37.5,9.6
			h252.8l-39.2-10.3C1804.9,114.6,1802.6,104.4,1794,101.2z"/>
		<path class="st3" d="M351.8,131.4c-4.5-1.7-10.2,0-15.6,3c-2.3-8.1-7.4-18.7-18-23.8c-18.4-8.8-28,18.7-28,18.7
			S271.8,73.8,239.8,81c-32,7.2-26.4,48.4-26.4,48.4s-8.8-17.9-28.8-14.7c-20,3.2-12,37.8-12,37.8c-25.6,4.2-40.8,10.5-40.8,10.5
			h275.3l-42.7-11.2C363.8,146,361.3,134.9,351.8,131.4z"/>
		<path class="st15" d="M387,296.2c2-0.8,4.5,0,6.9,1.3c1-3.6,3.3-8.2,8-10.5c8.1-3.9,12.4,8.3,12.4,8.3s8.1-24.5,22.3-21.4
			c14.1,3.2,11.7,21.4,11.7,21.4s3.9-7.9,12.7-6.5c8.8,1.4,5.3,16.7,5.3,16.7c11.3,1.8,18,4.6,18,4.6H362.6l18.8-5
			C381.7,302.7,382.8,297.8,387,296.2z"/>
		<path class="st15" d="M1472.8,292.9c2-0.8,4.5,0,6.9,1.3c1-3.6,3.3-8.2,8-10.5c8.1-3.9,12.4,8.3,12.4,8.3s8.1-24.5,22.3-21.4
			c14.1,3.2,11.7,21.4,11.7,21.4s3.9-7.9,12.7-6.5c8.8,1.4,5.3,16.7,5.3,16.7c11.3,1.8,18,4.6,18,4.6h-121.6l18.8-5
			C1467.6,299.4,1468.7,294.5,1472.8,292.9z"/>
	</g>
	<g id="GRASS_1_">
		<polygon class="st16" points="384.1,782.7 617.9,869.6 773.7,734.5 		"/>
		<polygon class="st17" points="1933.8,695.9 1773.6,768.3 1933.8,905 		"/>
		<polygon class="st18" points="-5.4,909.9 -5.4,1085.2 120.1,1030.5 		"/>
		<polygon class="st19" points="1778,993.5 1933.8,1085.2 1933.8,905 		"/>
		<polygon class="st20" points="1574.5,882.5 1778,993.5 1933.8,905 		"/>
		<polygon class="st21" points="1773.6,768.3 1574.5,882.5 1933.8,905 		"/>
		<polygon class="st22" points="128.8,763.4 -5.4,909.9 284.6,913.1 		"/>
		<polygon class="st23" points="-5.4,620.2 -5.4,909.9 128.8,763.4 		"/>
		<polygon class="st24" points="284.6,913.1 280.3,1014.4 410.1,954.9 		"/>
		<polygon class="st25" points="-5.4,909.9 120.1,1030.5 284.6,913.1 		"/>
		<polygon class="st26" points="120.1,1030.5 280.3,1014.4 284.6,913.1 		"/>
		<polygon class="st27" points="410.1,954.9 609.2,985.5 617.9,869.6 		"/>
		<polygon class="st28" points="462.1,637.9 384.1,782.7 773.7,734.5 		"/>
		<polygon class="st29" points="536.1,660.9 471.4,641.2 462.1,637.9 		"/>
		<polygon class="st30" points="1591.8,689.4 1773.6,768.3 1933.8,695.9 		"/>
		<polygon class="st31" points="128.8,763.4 284.6,913.1 384.1,782.7 		"/>
		<polygon class="st32" points="280.3,1014.4 120.1,1030.5 444.7,1085.2 		"/>
		<polygon class="st33" points="120.1,1030.5 -5.4,1085.2 444.7,1085.2 		"/>
		<polygon class="st34" points="128.8,763.4 384.1,782.7 462.1,637.9 		"/>
		<polygon class="st35" points="-5.4,620.2 128.8,763.4 462.1,637.9 		"/>
		<polygon class="st36" points="202.3,628.1 -5.4,620.2 462.1,637.9 		"/>
		<polygon class="st37" points="912.2,956.5 869,1048.2 1262.9,1085.2 		"/>
		<polygon class="st38" points="280.3,1014.4 444.7,1085.2 609.2,985.5 		"/>
		<polygon class="st39" points="410.1,954.9 280.3,1014.4 609.2,985.5 		"/>
		<polygon class="st40" points="384.1,782.7 284.6,913.1 617.9,869.6 		"/>
		<polygon class="st41" points="284.6,913.1 410.1,954.9 617.9,869.6 		"/>
		<polygon class="st42" points="536.1,660.9 462.1,637.9 747.7,660.9 		"/>
		<polygon class="st43" points="741.4,659.6 462.1,637.9 773.7,734.5 		"/>
		<polygon class="st44" points="912.2,956.5 1262.9,1085.2 1340.8,950.1 		"/>
		<polygon class="st45" points="609.2,985.5 444.7,1085.2 869,1048.2 		"/>
		<polygon class="st46" points="609.2,985.5 869,1048.2 912.2,956.5 		"/>
		<polygon class="st47" points="617.9,869.6 609.2,985.5 912.2,956.5 		"/>
		<polygon class="st48" points="1159,768.3 1249.9,866.4 1431.7,792.4 		"/>
		<polygon class="st49" points="741.4,659.6 773.7,734.5 921.2,661.4 		"/>
		<polygon class="st50" points="617.9,869.6 912.2,956.5 1159,768.3 		"/>
		<polygon class="st51" points="773.7,734.5 617.9,869.6 1159,768.3 		"/>
		<polygon class="st52" points="1241.2,679.8 1159,768.3 1431.7,792.4 		"/>
		<polygon class="st53" points="773.7,734.5 1159,768.3 1241.2,679.8 		"/>
		<polygon class="st54" points="886.1,661 773.7,734.5 1241.2,679.8 		"/>
		<polygon class="st55" points="1159,768.3 912.2,956.5 1249.9,866.4 		"/>
		<polygon class="st56" points="869,1048.2 444.7,1085.2 1262.9,1085.2 		"/>
		<polygon class="st57" points="1249.9,866.4 912.2,956.5 1340.8,950.1 		"/>
		<polygon class="st58" points="1682.7,1062.7 1262.9,1085.2 1933.8,1085.2 		"/>
		<polygon class="st59" points="1431.7,792.4 1249.9,866.4 1574.5,882.5 		"/>
		<polygon class="st60" points="1340.8,950.1 1262.9,1085.2 1492.3,1020.9 		"/>
		<polygon class="st61" points="1778,993.5 1682.7,1062.7 1933.8,1085.2 		"/>
		<polygon class="st62" points="1340.8,950.1 1492.3,1020.9 1574.5,882.5 		"/>
		<polygon class="st63" points="1492.3,1020.9 1682.7,1062.7 1778,993.5 		"/>
		<polygon class="st64" points="1249.9,866.4 1340.8,950.1 1574.5,882.5 		"/>
		<polygon class="st65" points="1241.2,679.8 1431.7,792.4 1591.8,689.4 		"/>
		<polygon class="st66" points="1574.5,882.5 1492.3,1020.9 1778,993.5 		"/>
		<polygon class="st67" points="1492.3,1020.9 1262.9,1085.2 1682.7,1062.7 		"/>
		<polygon class="st68" points="1431.7,792.4 1574.5,882.5 1773.6,768.3 		"/>
		<polygon class="st69" points="1591.8,689.4 1431.7,792.4 1773.6,768.3 		"/>
		<g class="st70">
			<path class="st71" d="M1674.6,733.4c29.3-4.2,57.9-8.9,85.7-14.2c-97.6-9.8-218.4-21.2-367.7-34.4
				c-196.2-17.3-410.9-24.2-614.7-25.2c150.8,8,303.2,18.3,445.7,30.9C1418.6,707.8,1565.1,722,1674.6,733.4z"/>
			<path class="st23" d="M1223.5,747.1c44.9,4,87.2,7.8,127.1,11.4c113.1-2.9,222.8-10.7,324-25.1c-109.5-11.5-256-25.7-451.1-42.9
				c-142.6-12.6-294.9-22.9-445.7-30.9c-222.8-1.1-432.6,4.6-591.1,10.8c-3.1,0.1-6.2,0.2-9.3,0.4c60.6,9,133.9,19.3,216.2,29.6
				C655.2,708.1,956.5,723.5,1223.5,747.1z"/>
			<path class="st28" d="M393.7,700.4c265.9,33.3,626.2,66.6,956.9,58.1c-39.9-3.7-82.2-7.5-127.1-11.4
				C956.5,723.5,655.2,708.1,393.7,700.4z"/>
			<path class="st74" d="M-4.7,953.7v-253c0,0,6.1,1.1,17.5,3.1c70,12.2,341.5,57.5,671.5,87.6c321.8,29.3,699.3,44.3,1000.2,0
				c0.5-0.1,0.9-0.1,1.4-0.2c63.4-9.4,123.3-21.4,178.6-36.4c18.9-5.1,37.2-10.6,54.9-16.5c1.2-0.7,2.5-1.3,3.7-2
				c3.4-1.9,6.7-3.7,10-5.5v-56.5c-52.6,18.3-110.6,33.2-172.9,45.1c-27.8,5.3-56.4,10-85.7,14.2c-101.2,14.4-210.9,22.2-324,25.1
				c-330.7,8.5-691-24.8-956.9-58.1c-82.4-10.3-155.7-20.6-216.2-29.6C64,653.9-4.7,641.3-4.7,641.3v38v25.5V848v211.7h0v-80.4
				V953.7z"/>
			<path class="st75" d="M1633.3,848c30-8.3,58.2-16.8,84.6-25.5c21.4-7,41.6-14.1,60.7-21.3c8.8-3.3,17.3-6.6,25.6-9.9
				c28.7-11.4,54.8-22.9,78.4-34.4c13-6.3,25.2-12.5,36.8-18.8c-17.7,5.9-36,11.4-54.9,16.5c-55.3,15.1-115.3,27.1-178.6,36.4
				c-0.5,0.1-0.9,0.1-1.4,0.2c-300.8,44.3-678.3,29.3-1000.2,0C354.3,761.3,82.8,716,12.8,703.8c-11.5-2-17.5-3.1-17.5-3.1v253
				C820.2,994.9,1325.2,933.1,1633.3,848z"/>
			<path class="st72" d="M1923.1,736.3c-1.2,0.7-2.4,1.3-3.7,2c-11.6,6.2-23.8,12.5-36.8,18.8c-23.6,11.4-49.7,23-78.4,34.4
				c-8.3,3.3-16.9,6.6-25.6,9.9c-19.1,7.2-39.3,14.3-60.7,21.3c-26.4,8.7-54.6,17.2-84.6,25.5c-308.1,85.1-813.1,146.9-1638,105.7
				v25.6c0,0,1154.6,100.2,1937.8-36.1V730.8C1929.8,732.6,1926.5,734.4,1923.1,736.3z"/>
			<path class="st73" d="M-4.7,979.3v80.4v24.8h1937.8V943.2C1149.8,1079.5-4.7,979.3-4.7,979.3z"/>
		</g>
		<polygon class="st13" points="1665.4,592.9 1591.8,689.4 1933.8,695.9 		"/>
		<polygon class="st14" points="1937.1,517.7 1808,647.6 1933.8,695.9 		"/>
		<polygon class="st76" points="1065.9,665.3 1241.2,679.8 1483.6,522.1 		"/>
		<polygon class="st13" points="1483.6,522.1 1241.2,679.8 1665.4,592.9 		"/>
		<polygon class="st12" points="1241.2,679.8 1591.8,689.4 1665.4,592.9 		"/>
	</g>
	<g id="XMLID_163_">
		<polygon id="XMLID_177_" class="st77" points="110.7,624.2 101.6,607.9 105.9,607.6 99,597 103.3,596.7 94.2,584.7 98.2,584.4 
			89.3,569.1 89.2,569.5 89.2,569 80.3,584.3 84.3,584.6 75.2,596.6 79.5,596.9 72.6,607.5 76.9,607.8 67.8,624.1 75.3,624 
			75.3,624 		"/>
		<rect id="XMLID_174_" x="87.6" y="620.3" class="st78" width="3.3" height="16.4"/>
		<polygon id="XMLID_172_" class="st79" points="117,630.7 112.8,618.7 115.9,618.5 110.9,610.7 114.1,610.4 107.3,601.6 
			110.3,601.4 103.7,590.1 103.7,590.4 103.7,590.1 97.1,601.3 100.1,601.5 93.3,610.3 96.5,610.6 91.4,618.4 94.6,618.6 
			87.9,630.6 93.4,630.6 93.4,630.6 		"/>
		<rect id="XMLID_167_" x="102.5" y="627.8" class="st78" width="2.4" height="8.9"/>
		<polygon id="XMLID_166_" class="st79" points="87.2,631.7 81.7,621.9 84.3,621.7 80.1,615.2 82.7,615 77.1,607.8 79.6,607.6 
			74.2,598.3 74.1,598.6 74.1,598.3 68.8,607.5 71.2,607.7 65.6,615 68.2,615.2 64.1,621.6 66.7,621.8 61.1,631.7 65.7,631.6 
			65.7,631.6 		"/>
		<rect id="XMLID_164_" x="73.2" y="629.3" class="st78" width="2" height="7.3"/>
	</g>
	<g id="XMLID_152_">
		<rect id="XMLID_162_" x="118.6" y="628.1" class="st78" width="1.9" height="11.2"/>
		<path id="XMLID_161_" class="st71" d="M102.8,612.5c0-2.7,1.6-5,3.9-6c-0.1-0.4-0.2-0.9-0.2-1.4c0-3.2,2.6-5.7,5.7-5.7
			c0.6,0,1.1,0.1,1.7,0.2c0-0.1,0-0.2,0-0.2c0,0,0-0.1,0-0.1c0,0,0-0.1,0-0.1c0-3.1,2.5-5.6,5.6-5.6c3.1,0,5.6,2.5,5.6,5.6
			c0,0,0,0.1,0,0.1c0,0,0,0.1,0,0.1c0,0.1,0,0.3,0,0.4c0.5-0.2,1.1-0.2,1.7-0.2c3.2,0,5.7,2.6,5.7,5.7c0,0.5-0.1,0.9-0.2,1.4
			c2.3,1,3.9,3.3,3.9,6c0,2.5-1.4,4.7-3.5,5.8c0.3,0.7,0.4,1.4,0.4,2.2c0,3.3-2.7,6-6,6c-1.1,0-2.1-0.3-3-0.8
			c-0.7,1.9-2.5,3.2-4.6,3.2c-2.1,0-4-1.4-4.6-3.3c-0.9,0.5-1.9,0.8-3,0.8c-3.3,0-6-2.7-6-6c0-0.8,0.1-1.5,0.4-2.2
			C104.2,617.2,102.8,615,102.8,612.5"/>
		<path id="XMLID_160_" class="st80" d="M129.5,606.9c0-2.5-2-4.5-4.5-4.5c-0.4,0-0.7,0.1-1.1,0.1c0.7-0.6,1.7-1,2.7-1
			c2.3,0,4.1,1.8,4.1,4.1c0,1.3-0.6,2.5-1.6,3.2C129.4,608.2,129.5,607.6,129.5,606.9"/>
		<path id="XMLID_159_" class="st80" d="M110.5,610.4c-2.5,0.1-4.4,2.3-4.3,4.8c0,0.4,0.1,0.7,0.2,1.1c-0.7-0.7-1.1-1.6-1.1-2.6
			c-0.1-2.3,1.6-4.2,3.9-4.3c1.3-0.1,2.5,0.5,3.3,1.4C111.9,610.5,111.2,610.4,110.5,610.4"/>
		<path id="XMLID_158_" class="st80" d="M133.1,614.8c-0.2-2.5-2.4-4.4-4.9-4.2c-0.4,0-0.7,0.1-1.1,0.2c0.7-0.7,1.6-1.1,2.6-1.2
			c2.3-0.2,4.2,1.5,4.4,3.8c0.1,1.3-0.4,2.5-1.3,3.4C133.1,616.2,133.2,615.5,133.1,614.8"/>
		<path id="XMLID_157_" class="st80" d="M122.3,598.4c-1.8-1.8-4.6-1.8-6.4,0c-0.3,0.3-0.5,0.6-0.7,0.9c0.1-1,0.5-1.9,1.2-2.6
			c1.6-1.6,4.2-1.6,5.8,0c0.9,0.9,1.3,2.2,1.2,3.4C123.1,599.5,122.8,598.9,122.3,598.4"/>
		<path id="XMLID_156_" class="st80" d="M113.6,602.5c-2.5,0-4.5,2-4.5,4.5c0,0.4,0.1,0.7,0.1,1.1c-0.6-0.7-1-1.7-1-2.7
			c0-2.3,1.8-4.1,4.1-4.1c1.3,0,2.5,0.6,3.2,1.6C114.9,602.7,114.3,602.5,113.6,602.5"/>
		<path id="XMLID_155_" class="st80" d="M108.4,619.6c0,2.5,2,4.5,4.5,4.5c0.4,0,0.7-0.1,1.1-0.1c-0.7,0.6-1.7,1-2.7,1
			c-2.3,0-4.1-1.8-4.1-4.1c0-1.3,0.6-2.5,1.6-3.2C108.6,618.2,108.4,618.9,108.4,619.6"/>
		<path id="XMLID_154_" class="st80" d="M116.5,624.4c1.8,1.8,4.6,1.8,6.4,0c0.3-0.3,0.5-0.6,0.7-0.9c-0.1,1-0.5,1.9-1.2,2.6
			c-1.6,1.6-4.2,1.6-5.8,0c-0.9-0.9-1.3-2.2-1.2-3.4C115.7,623.4,116,624,116.5,624.4"/>
		<path id="XMLID_153_" class="st80" d="M126.8,624c2.5,0,4.5-2,4.5-4.5c0-0.4-0.1-0.7-0.1-1.1c0.6,0.7,1,1.7,1,2.7
			c0,2.3-1.8,4.1-4.1,4.1c-1.3,0-2.5-0.6-3.2-1.6C125.4,623.9,126.1,624,126.8,624"/>
	</g>
	<g id="XMLID_130_">
		<g id="XMLID_144_">
			<path id="XMLID_151_" class="st77" d="M1330.1,677.3c1.8,7.6,9.3,10.6,14.5,7.6c3.8-2.1,6.9-9.1,4.9-14.2
				c-2-5.1-5.9-8.6-10.1-9.1c-5.3-0.3-10.5,6.2-9.7,13.3C1329.8,675.7,1329.9,676.5,1330.1,677.3"/>
			<g id="XMLID_145_">
				<path id="XMLID_150_" class="st78" d="M1333.4,679.7c0,0.1,0.6,1.4,2.2,1.4c-0.7-1-0.8-2-0.8-2l0.4,0c0,0.1,0.1,1.1,0.9,2.1
					c0.4-0.1,0.7-0.2,0.9-0.5c0.5-0.6,0.4-1.6,0.4-1.6l0.4,0c0,0,0.1,1.1-0.5,1.9c-0.2,0.3-0.5,0.5-0.9,0.6c0.4,0.4,1,0.8,1.8,1
					c1.5,0.4,2.9,0,4-0.5c-0.9-1.1-0.3-3.7-0.3-3.8l0.4,0.1c0,0.1-0.6,2.5,0.3,3.4c0.6-0.4,1-0.9,1.3-1.4c0.5-0.8,0.3-2.1,0.1-2.9
					c0,0,0.3-0.1,0.4-0.2c0.3,0.7,0.6,2.1-0.1,3.3c-0.3,0.5-0.7,1-1.3,1.4c0.3,0.2,0.7,0.3,1.1,0.4c2.2,0.3,2.8-1.5,2.8-1.6l0.4,0.1
					c0,0-0.5,1.7-2.4,1.9c-0.3,0-0.6,0-0.9,0c-0.6-0.1-1.1-0.3-1.5-0.5c-0.8,0.4-1.4,0.7-2.4,0.7l0.1,15.2l-0.8,0l0-15.2
					c-0.4,0-0.8-0.1-1.2-0.2c-1-0.2-1.7-0.7-2.1-1.3c0,0,0,0,0,0c-0.1,0-0.2,0-0.3,0c-1.9,0-2.6-1.6-2.6-1.7L1333.4,679.7z"/>
				<path id="XMLID_149_" class="st78" d="M1337.8,682.8c0.1,0,1.3-0.6,1.8-2.2c0.5-1.4,0.2-3.1-0.8-5l-0.4,0.2
					c0.9,1.8,1.2,3.4,0.7,4.6c-0.5,1.4-1.6,1.9-1.6,1.9L1337.8,682.8z"/>
				<path id="XMLID_148_" class="st78" d="M1337.8,677.8c0.5,0,1-0.1,1.5-0.4c1.1-0.6,1.9-2,1.9-3.6l-0.5,0c0,1.5-0.6,2.7-1.6,3.2
					c-1.2,0.6-2.6,0.3-3.4-0.7l-0.4,0.3C1335.9,677.4,1336.8,677.8,1337.8,677.8z"/>
				<path id="XMLID_147_" class="st78" d="M1344.8,679c0.8,0,1.5-0.2,2-0.6c0.8-0.7,0.8-1.6,0.8-1.7l-0.5,0c0,0-0.1,0.8-0.7,1.4
					c-0.5,0.4-1.1,0.6-2,0.5l0,0.5C1344.6,679,1344.7,679,1344.8,679z"/>
				<path id="XMLID_146_" class="st78" d="M1340.9,675.8c0.8,0,1.5-0.2,2-0.6c0.8-0.7,0.8-1.6,0.8-1.7l-0.5,0c0,0-0.1,0.8-0.7,1.4
					c-0.5,0.4-1.1,0.6-2,0.5l0,0.5C1340.7,675.8,1340.8,675.8,1340.9,675.8z"/>
			</g>
		</g>
		<g id="XMLID_137_">
			<path id="XMLID_143_" class="st79" d="M1314.1,670.4c2.4,10.2,12.4,14.1,19.3,10.2c5-2.9,9.2-12.1,6.6-18.9
				c-2.6-6.8-7.9-11.4-13.4-12.1c-7.1-0.4-13.9,8.2-13,17.7C1313.7,668.3,1313.8,669.3,1314.1,670.4"/>
			<path id="XMLID_142_" class="st78" d="M1336.9,673.6c0,0.1-0.8,1.8-2.9,1.9c0.9-1.3,1.1-2.7,1.1-2.7l-0.6-0.1
				c0,0.1-0.2,1.5-1.2,2.7c-0.5-0.1-0.9-0.3-1.2-0.6c-0.7-0.8-0.5-2.1-0.5-2.1l-0.6-0.1c0,0.1-0.2,1.5,0.7,2.5
				c0.3,0.4,0.7,0.6,1.2,0.8c-0.6,0.6-1.3,1-2.3,1.3c-2,0.5-3.9,0.1-5.3-0.7c1.2-1.5,0.4-5,0.4-5l-0.5,0.2c0,0.1,0.8,3.3-0.4,4.5
				c-0.8-0.5-1.4-1.2-1.7-1.8c-0.7-1.1-0.4-2.8-0.1-3.9c0,0-0.4-0.2-0.6-0.2c-0.4,1-0.8,2.8,0.2,4.4c0.4,0.6,0.9,1.3,1.7,1.9
				c-0.4,0.3-0.9,0.4-1.5,0.5c-3,0.3-3.7-2-3.7-2.1l-0.5,0.2c0,0,0.7,2.2,3.1,2.5c0.4,0,0.7,0,1.2,0c0.8-0.1,1.5-0.3,1.9-0.7
				c1,0.6,1.9,0.9,3.2,1l-0.2,20.2l1.1,0.1l0.1-20.2c0.5,0,1.1-0.1,1.6-0.2c1.3-0.3,2.2-1,2.9-1.7c0,0,0,0,0,0c0.1,0,0.2,0,0.4,0
				c2.5,0,3.4-2.2,3.5-2.2L1336.9,673.6z"/>
			<path id="XMLID_141_" class="st78" d="M1331.1,677.7c-0.1,0-1.7-0.9-2.4-2.9c-0.6-1.9-0.3-4.1,1-6.7l0.5,0.3
				c-1.2,2.4-1.6,4.5-1,6.2c0.6,1.8,2.1,2.6,2.1,2.6L1331.1,677.7z"/>
			<path id="XMLID_139_" class="st78" d="M1331.1,671.1c-0.7,0-1.4-0.2-2-0.5c-1.5-0.8-2.5-2.6-2.5-4.8l0.6,0c0,2,0.8,3.6,2.2,4.3
				c1.6,0.8,3.5,0.5,4.5-0.9l0.5,0.4C1333.6,670.5,1332.4,671.1,1331.1,671.1z"/>
			<path id="XMLID_138_" class="st78" d="M1321.7,672.7c-1.1,0-1.9-0.3-2.6-0.9c-1-0.9-1.1-2.2-1.1-2.2l0.6,0c0,0,0.1,1.1,0.9,1.8
				c0.6,0.5,1.5,0.8,2.7,0.7l0,0.6C1322.1,672.7,1321.9,672.7,1321.7,672.7z"/>
		</g>
		<g id="XMLID_131_">
			<path id="XMLID_136_" class="st71" d="M1337.2,674.6c2.1,8.6,10.5,11.9,16.3,8.6c4.2-2.4,7.8-10.3,5.6-16
				c-2.2-5.7-6.7-9.7-11.4-10.3c-6-0.3-11.8,6.9-11,15C1336.8,672.9,1337,673.7,1337.2,674.6"/>
			<g id="XMLID_132_">
				<path id="XMLID_135_" class="st78" d="M1341,677.4c0,0.1,0.7,1.6,2.4,1.6c-0.8-1.1-0.9-2.3-0.9-2.3l0.5-0.1c0,0.1,0.2,1.3,1,2.3
					c0.4-0.1,0.7-0.3,1-0.5c0.6-0.7,0.5-1.8,0.5-1.8l0.5-0.1c0,0.1,0.1,1.3-0.6,2.1c-0.3,0.3-0.6,0.5-1,0.7c0.5,0.5,1.1,0.9,2,1.1
					c1.7,0.4,3.3,0,4.5-0.6c-1-1.2-0.3-4.2-0.3-4.2l0.5,0.2c0,0.1-0.7,2.8,0.3,3.8c0.7-0.4,1.1-1,1.5-1.5c0.6-1,0.3-2.4,0.1-3.3
					c0,0,0.3-0.1,0.5-0.2c0.3,0.8,0.7,2.4-0.2,3.7c-0.3,0.5-0.8,1.1-1.5,1.6c0.3,0.2,0.7,0.3,1.3,0.4c2.5,0.3,3.1-1.7,3.1-1.8
					l0.5,0.1c0,0-0.6,1.9-2.7,2.1c-0.3,0-0.6,0-1,0c-0.7-0.1-1.3-0.3-1.6-0.6c-0.9,0.5-1.6,0.8-2.7,0.8l0.2,17.1l-0.9,0.1l0-17.1
					c-0.4,0-0.9-0.1-1.4-0.2c-1.1-0.3-1.9-0.8-2.4-1.4c0,0,0,0,0,0c-0.1,0-0.2,0-0.3,0c-2.1,0-2.9-1.8-2.9-1.9L1341,677.4z"/>
				<path id="XMLID_134_" class="st78" d="M1345.9,680.8c0.1,0,1.5-0.7,2.1-2.5c0.5-1.6,0.2-3.5-0.9-5.6l-0.5,0.2
					c1,2,1.3,3.8,0.8,5.2c-0.5,1.6-1.8,2.2-1.8,2.2L1345.9,680.8z"/>
				<path id="XMLID_133_" class="st78" d="M1353.8,676.6c0.9,0,1.6-0.2,2.2-0.7c0.9-0.8,0.9-1.8,0.9-1.9l-0.5,0c0,0-0.1,0.9-0.8,1.5
					c-0.5,0.5-1.3,0.7-2.2,0.6l0,0.5C1353.5,676.6,1353.7,676.6,1353.8,676.6z"/>
			</g>
		</g>
	</g>
	<g id="VOLCANO_1_">
		<path class="st81" d="M454.9,530.1l160.2-190l54.3,11.2l47.3-11.2l110.5,322.8c0,0-243.8-3.6-247.3-4.4
			c-3.5-0.8-207.7-21.2-207.7-21.2"/>
		<polygon class="st13" points="685.4,505.7 827.1,662.9 1040.8,603.8 714.5,314.3 679.8,345.5 		"/>
		<polygon class="st3" points="627.4,320.1 644.6,295.8 714.9,295.8 802.6,390.3 716.1,346 682,403.6 663.1,351.9 575.3,387.3 		"/>
	</g>
	<g>
		<g>
			<g>
				<path class="st82" d="M1493.8,113.3c-8.2-0.1-16.4,0.6-24.4,2c-1.6,0.3-3.4,0.7-4.6,1.8c-1.1,1-1.6,2.5-2,4
					c-1.2,4-0.9,9.7-1.8,13.8c-4.4-2.9-9.1-5.3-14-7.2c-1.7-0.7-3.7-1.3-5.2-0.4c-0.9,0.5-1.5,1.5-2,2.5c-2.6,4.8-4.1,10.2-4.3,15.7
					c1.2-5.5,6.6-8.4,12.2-9.2c5.6-0.8,11.2,0.9,16.5,2.8c1-10,9.3-19.5,19-22C1487.8,115.9,1490.3,116.7,1493.8,113.3z"/>
			</g>
			<g>
				<path class="st82" d="M1248.3,315.4c-3.4-2.3-7-4.2-10.8-5.9c-0.8-0.3-1.6-0.6-2.4-0.5c-0.7,0.1-1.4,0.6-1.9,1.1
					c-1.6,1.4-3,3.8-4.5,5.3c-1.1-2.4-2.4-4.7-3.9-6.9c-0.5-0.7-1.2-1.5-2.1-1.6c-0.5,0-1.1,0.2-1.5,0.5c-2.4,1.3-4.5,3.2-6.1,5.4
					c2-2,5.1-1.7,7.6-0.5c2.6,1.2,4.5,3.4,6.1,5.7c3.1-3.9,9.2-5.6,14-4C1245.1,314.8,1245.9,315.8,1248.3,315.4z"/>
			</g>
			<g>
				<path class="st82" d="M602.2,265.4c-3.9-3.5-8.2-6.6-12.8-9.3c-0.9-0.5-1.9-1.1-3-1c-1,0-1.8,0.6-2.7,1.1
					c-2.3,1.5-4.5,4.3-6.6,6c-1-3.2-2.2-6.4-3.8-9.4c-0.5-1-1.3-2.1-2.4-2.4c-0.7-0.1-1.4,0.1-2,0.4c-3.3,1.3-6.3,3.3-8.7,5.9
					c2.9-2.2,6.8-1.3,9.8,0.6c3.1,2,5.1,5.1,6.9,8.3c4.7-4.5,12.7-5.6,18.5-2.8C598.2,264.1,599.1,265.6,602.2,265.4z"/>
			</g>
			<g>
				<path class="st82" d="M654.9,139.3c4.2-3.7,8.8-7,13.6-9.9c1-0.6,2-1.2,3.2-1.1c1,0,2,0.6,2.8,1.2c2.4,1.6,4.8,4.6,7.1,6.4
					c1-3.5,2.4-6.8,4.1-10c0.6-1.1,1.3-2.3,2.6-2.5c0.7-0.1,1.5,0.1,2.2,0.4c3.5,1.4,6.7,3.5,9.3,6.3c-3.1-2.4-7.2-1.4-10.5,0.7
					c-3.3,2.1-5.5,5.5-7.3,8.9c-5-4.8-13.5-6-19.7-3C659.2,138,658.2,139.5,654.9,139.3z"/>
			</g>
		</g>
	</g>
	<rect x="-3" y="-3" class="st83" width="1923" height="1083"/>
	<g>
		<defs>
			<rect id="SVGID_33_" width="1920" height="1080"/>
		</defs>
		<clipPath id="SVGID_2_">
			<use xlink:href="#SVGID_33_"  style="overflow:visible;"/>
		</clipPath>
	</g>
	<g>
		<defs>
			<rect id="SVGID_35_" width="1920" height="1080"/>
		</defs>
		<defs>
			<rect id="SVGID_36_" width="1920" height="1080"/>
		</defs>
		<clipPath id="SVGID_5_">
			<use xlink:href="#SVGID_35_"  style="overflow:visible;"/>
		</clipPath>
		<clipPath id="SVGID_6_" class="st84">
			<use xlink:href="#SVGID_36_"  style="overflow:visible;"/>
		</clipPath>
	</g>
	<g>
		<defs>
			<rect id="SVGID_39_" width="1920" height="1080"/>
		</defs>
		<defs>
			<rect id="SVGID_40_" width="1920" height="1080"/>
		</defs>
		<defs>
			<rect id="SVGID_41_" width="1920" height="1080"/>
		</defs>
		<clipPath id="SVGID_10_">
			<use xlink:href="#SVGID_39_"  style="overflow:visible;"/>
		</clipPath>
		<clipPath id="SVGID_11_" class="st85">
			<use xlink:href="#SVGID_40_"  style="overflow:visible;"/>
		</clipPath>
		<clipPath id="SVGID_12_" class="st86">
			<use xlink:href="#SVGID_41_"  style="overflow:visible;"/>
		</clipPath>
	</g>
	<g>
		<defs>
			<rect id="SVGID_45_" width="1920" height="1080"/>
		</defs>
		<defs>
			<rect id="SVGID_46_" width="1920" height="1080"/>
		</defs>
		<defs>
			<rect id="SVGID_47_" width="1920" height="1080"/>
		</defs>
		<defs>
			<rect id="SVGID_48_" width="1920" height="1080"/>
		</defs>
		<clipPath id="SVGID_17_">
			<use xlink:href="#SVGID_45_"  style="overflow:visible;"/>
		</clipPath>
		<clipPath id="SVGID_18_" class="st87">
			<use xlink:href="#SVGID_46_"  style="overflow:visible;"/>
		</clipPath>
		<clipPath id="SVGID_19_" class="st88">
			<use xlink:href="#SVGID_47_"  style="overflow:visible;"/>
		</clipPath>
		<clipPath id="SVGID_20_" class="st89">
			<use xlink:href="#SVGID_48_"  style="overflow:visible;"/>
		</clipPath>
		
			<linearGradient id="pathway_3_" gradientUnits="userSpaceOnUse" x1="970.2576" y1="420.7" x2="970.2576" y2="693.3179" gradientTransform="matrix(1 0 0 1 0 288)">
			<stop  offset="0" style="stop-color:#FFFFFF;stop-opacity:0"/>
			<stop  offset="1.942738e-02" style="stop-color:#F9F7F4;stop-opacity:3.548735e-02"/>
			<stop  offset="0.1145" style="stop-color:#E0D2C3;stop-opacity:0.2091"/>
			<stop  offset="0.2087" style="stop-color:#CBB39A;stop-opacity:0.3812"/>
			<stop  offset="0.3005" style="stop-color:#BB9B7B;stop-opacity:0.5489"/>
			<stop  offset="0.3891" style="stop-color:#AF8A64;stop-opacity:0.7107"/>
			<stop  offset="0.473" style="stop-color:#A88057;stop-opacity:0.864"/>
			<stop  offset="0.5474" style="stop-color:#A67C52"/>
		</linearGradient>
		<path id="pathway_2_" class="st90" d="M1910,731c-882.5,0,495.3,191.7-714,161.7V891H715c-479.6-5.2-888.5-135.2-410.6-182.3
			c-634.2,62.5-46,308,540.6,268.3h159.5C2937,1013,1013,731,1910,731z"/>
	</g>
	<g>
		<defs>
			<rect id="SVGID_53_" width="1920" height="1080"/>
		</defs>
		<defs>
			<rect id="SVGID_54_" width="1920" height="1080"/>
		</defs>
		<defs>
			<rect id="SVGID_55_" width="1920" height="1080"/>
		</defs>
		<defs>
			<rect id="SVGID_56_" width="1920" height="1080"/>
		</defs>
		<clipPath id="SVGID_25_">
			<use xlink:href="#SVGID_53_"  style="overflow:visible;"/>
		</clipPath>
		<clipPath id="SVGID_26_" class="st91">
			<use xlink:href="#SVGID_54_"  style="overflow:visible;"/>
		</clipPath>
		<clipPath id="SVGID_27_" class="st92">
			<use xlink:href="#SVGID_55_"  style="overflow:visible;"/>
		</clipPath>
		<clipPath id="SVGID_28_" class="st93">
			<use xlink:href="#SVGID_56_"  style="overflow:visible;"/>
		</clipPath>
		<g id="rock-group_2_" class="st94">
			<path id="rock-shadow_2_" class="st95" d="M1203.6,932c16,23-119,60-312.2,52c-175.6-7.3-318.2-24.2-318.2-54s142.5-54,318.2-54
				S1180.9,899.5,1203.6,932z"/>
			<g id="rock_2_">
				<path class="st96" d="M972.4,844.4c-3.7-0.3-7.1-0.9-10.4-2c-6.6-2-12.6-4.1-18.7-6.3c-4.4-1.5-9.2-2-14-0.1
					c-1.5,1.4-1.7,2.9-1.2,4.4c1.8,5.6,3,11.3,4.9,16.9c3.8,11.5,6.1,23.1,8.8,34.7c2.3,10,5.5,19.9,7,29.9
					c1.3,8.7,4.6,17.4,5.2,26.1c0.2,2.8,1.2,5.3,7.1,7.5c6.6,2.1,14,4.1,20.1,6.3c4.2,2,32.2,11,43.2,16
					C1035.6,983,967.6,885,972.4,844.4z"/>
				<path class="st97" d="M1028.3,968.9c1.5-0.6,2.5-1.5,4.5-1.9c9.2-2.2,12.3-4.8,11.7-8.3c-1.1-6.7-0.4-13.5-0.4-20.2
					c0-11,0.1-22,0.1-33.1c0-1,0.4-2,0.6-3.1c0.9,0,1.8-0.1,2.6-0.1c1.6,1.1,3.9,2.2,4.5,3.4c2.5,4.5,5.7,9,6.3,13.5
					c1.1,9.3,3.8,18.4,14.2,27.2c1,0.8,2.1,1.6,3.9,3c7.6-3.2,12.7-6.2,12.6-9.8c-0.1-10.3,0.2-20.6-0.1-31
					c-0.6-23.4-11.4,29.8-12.3,6.4c-0.1-3-3.2-14-4-17c1.1-3-7.2-13.7-1-14c6.6-0.3-21.5-5.4-19-15c2.9-11-55.1-12-48-23
					c3.1-4.8-2.4-36.2,0-41c0.7-1.5,121.2-6.6,123-8c1.1-0.9,23-19,36-17c12.5,1.9,35.8,20,47.9,21.9c1.1,1.3,3.3,2.6,3.1,3.9
					c-2.7,12.9-6.2,25.7-8.8,38.6c-4.9,24.2-11.4,48.3-9.5,72.6c0.5,6.6-2.5,13.3-3.8,19.9c-0.8,4.1-7.6,7.3-17.4,10.1
					c-29.8,8.3-63.9,14.9-98.6,21.3c-2.4,0.4-5.7,0.7-8.6,0.7C1054.7,969,1041.5,968.9,1028.3,968.9z"/>
				<path class="st97" d="M1072.6,969c5.9-1.6,10.3-20,12.3-20.9c6.4-2.9,16.6-13.6,16.7-17.1c0.9-26.3,0.6-22.7,2-49
					c0.4-7-1-31-1-38c0-2.9,2.4-14.2,0-17c-3.7-1.4-22.3,1.6-26.8,2.5c-6.8,1.3-13.4,2.7-20.3,3.9c-22,4.1-44.1,8.1-68.7,10.7
					c-5.3,0.6-10,0.7-14.4,0.3c-6,34.9-0.4,70.7,5.2,105.7c0.7,4.1,1.4,8.5,3.8,11.9c1.6,0.6,44.7,16.1,46.2,16
					C1040.6,977,1053.6,974,1072.6,969z"/>
				<path class="st97" d="M933.7,835.4c0.6,4.3,0.7,8.7,1.8,13c2.3,9.9,5.1,19.7,7.7,29.6c3.1,11.9,6.4,23.9,9.4,35.8
					c1.7,7,3.1,14,4.6,21c1.4,6.9,2.8,13.8,4.1,20.8c-7-1.8-14.3-1.6-22.1-0.4c-4.1,0.7-8.8,1-13.2,1.5c-13.3,1.7-26.4,1.8-40.2,0.2
					c-13.7-1.6-28-2.8-42.1-4.2c16.7-5.8,12-12.4,9.3-19c-0.6-1.4-2-2.9-0.8-4.1c1.2-1.2,5.4-2.2,8.3-3.3c3.2,0.9,8.8,1.6,9.2,2.6
					c1.9,4.5,2.4,9,3.4,13.6c0.1,0.6-0.2,1.1-0.3,1.7c0.8,0,1.7,0.1,2.5,0.1c1-2.2,2.8-4.4,2.8-6.5c0.2-16.9,0.8-33.8-0.2-50.6
					c-0.7-11.6-3.9-23.2-5.8-34.8c-0.3-1.8-1.8-4,6.7-4.7c8.8-0.7,14.7,0.9,17.6,3c4.4,3.2,7.3,6.5,11.3,10.3
					c4.3-15.3-5.8-29.9-8.2-44.7c15.5-2.8,31.3-5.4,46.5-8.4c8.3-1.6,16.3-3.5,23.1-5.7c7.1-2.2,33.3,0,37.3,1.5
					c5.2,2.2,4.5,4.9,5.5,7.4c1.2,3,2,6,0.9,9c-1.2,1.4-5.3,1.6-9.3,1.9c-14.3,0.8-28.3,1.9-41.7,3.6c-12.9,1.6-25.9,3.3-25.3,8.5
					C936.6,834.7,934.7,835,933.7,835.4z"/>
				<path class="st98" d="M807.1,941.6c-1.1,2-2.1,4-3.2,6.1c-5.9-1.2-11.9-2.4-17.8-3.6c3-12.7,6-25.5,8.9-38.2
					c5.8-1,9.4-0.2,12.1,1.3c2.9,1.6,4.7,3.3,5,5.2c1.2,7-2.6,13.9-2,20.8c0.2,1.9-0.2,3.8,0.7,5.6C811.3,940,811.1,941,807.1,941.6
					z"/>
				<path class="st96" d="M744.4,791.1c-0.7-1.9-1.9-3.9-1.7-5.8c0.1-0.9,3.1-2.4,4.9-2.4c3.1,0,6.7,0.7,9.4,1.4
					c2.6,0.7,4.4,1.6,6.5,2.5C757.2,788.2,750.8,789.7,744.4,791.1z"/>
				<path class="st96" d="M764.3,923.6c3.4,0.6,8,0.9,9.8,1.8c1.4,0.7,0.3,2.6-1.5,2.9c-3.6,0.5-8.3,0.2-12.6,0.2
					C756.8,926.5,757.8,924.9,764.3,923.6z"/>
				<path class="st96" d="M904.9,818.7c-0.3-1-1.4-2-5.3-2.3c-5.8,1-11.6,2-17.4,3c-16,2.8-31.5,5.8-48.1,8.2
					c-15.1,2.2-24.9,1.3-34.5-2.6c-8.4-3.5-16.2-7.1-23.1-10.8c-10.7-5.9-23.3-10.8-47.1-12.5c-9.7-0.7-11.5-3.8-4.2-5.8
					c6.1-1.6,12.8-3.1,19.2-4.7c6.6-1.5-0.2-4.2,6.1-5.9c4.2,0.8,7.5,2.1,13.1,1.6c1.7-0.4,3.4-0.9,5.1-1.3c1.4-0.4,2.5-1,3.1-1.5
					c1.7-1.6,2.8-3.4-1.5-4.7c-4.5-1.4-9.7-0.8-15.3-0.2c-4.1,0.4-7.8,1.5-12.7,1.1c-7.5,1.5-14.6,3.2-22.4,4.6
					c-9.4,1.6-14.1,3.5-8.6,6.7c2.1,1.3,2.3,2.9,2.9,4.4c5.3,13.7,10.8,27.4,15.7,41c2.5,6.8,4,13.6-4.6,20.3
					c-1.5,1.2-1.5,2.6-1.2,3.8c1.3,5.4,3.2,10.9,4.6,16.3c3.2,12.7,6.2,25.5,9.3,38.2c0.2,1,0.7,2,1,3c1.1,0,2.2,0.1,3.3,0.1
					c2.6-3.3,5.2-6.6,7.8-9.9c1.1,0,2.2,0.1,3.4,0.1c9.6,4.6,8.8,9.9,11,15c3.3,2,6.4,3.9-4.3,4.8c-3.8-0.8-7.5-1.6-12.5-2.7
					c-1.9,3.1-3.9,6.2-5.8,9.4c14.8,3,29.5,6,44.3,9c4.9-0.4,4.9-1.7,5.6-2.9c2-3.3,1.4-6.7,3.2-10.1c4.3-8.2,3.8-16.4,4.1-24.6
					c1.1-3.4-2-6.6-1.9-9.3c1.1,2.7,4.8,5.9,9.3,9c4.1,2.8,6.1,5.5,5.9,8.6c-0.4,7.8-3.9,15.6-1.5,23.4c0.6,2.1-2,2.6-7.6,2.9
					c-6.4,2.3-6.2,4.1,0.6,6.6c10.7,3.4,25,4.4,39.8,5.1c9.6-0.4,12.8-2.5,14.8-4.9c4-4.8,1.6-9.7-0.4-14.5
					c-0.5-1.3-2.1-2.8,3.6-3.6c4.6,0.7,4.8,1.9,5.3,3.1c1.3,3.3,3.1,6.7,1.1,10.1c-0.6,1.1,0.6,2.1,4.4,2.4c4.4,0.3,6.8-0.6,7.8-1.8
					c1.5-1.7,2.7-3.5,2.7-5.3c0.1-17.3,0.1-34.5,0-51.8c0-0.7-0.2-1.4-0.4-2.1c-3.7-9.7-4.2-19.4-5.4-29.1c-0.2-1.8-2.8-4.6,6.2-5
					c9.3-0.4,10.8,2.5,13.1,4.5c2.1,1.9,2.7,3.9,5.5,5.7c1.2,0.7,2.7,1.5,5.9,1.3c3.1-0.1,4.2-0.9,4.8-1.7c0.4-0.6,0.6-1.2,0.7-1.8
					C916,845,908.3,831.9,904.9,818.7z"/>
				<path class="st97" d="M770.5,785.4c0.8-0.1,1.6-0.3,2.4-0.4C772.1,785.1,771.3,785.3,770.5,785.4z"/>
				<path class="st98" d="M768.7,785.5c0-0.1,0-0.2,0-0.3c0.6-5.7-51.2,28.8-60.2,3.8c-0.8-2.3,36.1-8.8,33.6-8.8
					c17-3,34.1-6,51.1-8.9c0.9,0.2,1.8,0.5,2.7,0.7c-6.2,4.6-6.6,9.9-23.1,13c-0.8,0.2-1.6,0.3-2.4,0.4
					C769.9,785.5,769.3,785.5,768.7,785.5z"/>
				<path class="st98" d="M807.1,941.6c0.5-7.3,1.2-14.6,1.5-21.8c0.1-3.3,0.4-6.7-1.7-10c-1-1.5-7.7-2.6-11.9-3.9
					c-1.3-4.7-2.6-9.5-3.9-14.2c1.7-0.1,3.5-0.1,5.2-0.2c5.3,8.7,20.9,16.6,19.4,25.9c-1.5,8.9-0.8,17.8-1.1,26.7
					c-1.3,0-2.5,0.1-3.8,0.1C809.6,943.3,808.4,942.5,807.1,941.6z"/>
				<path class="st99" d="M799,860.3c-3.8,0.9-6.1,1.4-8.3,2c-1.8-0.7-4.9-1.4-4.9-2.1c0-0.7,3-1.5,4.7-2.2
					C792.9,858.6,795.3,859.3,799,860.3z"/>
				<path class="st97" d="M776.7,891.3c-3.3,0.8-5.6,1.7-7.3,1.6c-2.1-0.1-5.1-1.1-5-1.7c0.1-0.6,3.1-1.5,5.3-1.7
					C771.2,889.5,773.5,890.5,776.7,891.3z"/>
				<path class="st99" d="M750.2,815c-3.1,0.9-4.7,1.7-6.5,1.7c-1.6,0-4.5-0.8-4.7-1.3c-0.1-0.5,2.2-1.4,3.9-1.6
					C744.5,813.7,746.8,814.4,750.2,815z"/>
				<path class="st100" d="M1009.5,820.5c10.3,0,20.6,0.1,31,0.1c5.4-1.3,9.7-0.6,13.8,0.6c10.9,0.6,21.9,1,32.5,1.9
					c2.9,0.2,8.6-0.2,11.2,0.4c1.8,0.4,3.3,1.6,4.1,3.3c1,2.2,4.4,4.1-1.6,7.1c-21.1,3.9-58.3,3.4-79.8,7.1c-11,1.9-23.1,3.2-35,4.6
					c-9.6,1.1-18.3,0.7-25.5-1.8c-8.5-2.9-17.6-5.7-26.4-8.5c-4.4-4.7-2.9-6.2,11.4-8.8C964.8,823,986.6,821.2,1009.5,820.5z"/>
				<path class="st97" d="M985.3,938c-3-4.4-5.8-8.8-1.8-13.5c17.7,3.7,28.6,20.4,21.1,30.9c-2.2-0.5-4.1-0.9-6-1.4
					c-6.4-0.2-5.4-1.8-5.7-3c-0.9-3.9-4.1-7.6-4.1-11.5C988.8,938.9,988.4,938.1,985.3,938z"/>
				<path class="st96" d="M985.3,938c0.9-0.7,1.8-1.5,2.7-2.2c1.1,0,2.1-0.1,3.2-0.1c2.5,6.1,5,12.2,7.5,18.3
					c-0.4,1.8-0.3,3.5-1.3,5.3c-0.4,0.8-2.7,1.6-4.1,2.4c-2.2-0.7-5.3-1.2-6.2-2c-1.8-1.6-3.4-3.2-3.4-4.9
					C983.8,949.2,984.7,943.6,985.3,938z"/>
				<path class="st97" d="M989.6,911.5c0-1.5-4-3.8,4.7-4c4.5-0.1,10.8,1,13.7,2.1c3.4,1.3,3.8,3.2-4,4
					C997.4,913.9,994.2,912.3,989.6,911.5z"/>
				<path class="st98" d="M989.6,911.5c6.8-0.5,11.9,0.1,14.3,2.1c-2.7,0.7-5.5,1.4-8.2,2.1C993.7,914.3,991.7,912.9,989.6,911.5z"
					/>
				<path class="st97" d="M1000.7,878.7c-3.6,0.6-6.4,1.4-8.1,1.3c-1.9-0.2-4.1-1.3-3.9-1.9c0.2-0.6,3.6-1,5.5-1.6
					C996,877.1,997.8,877.7,1000.7,878.7z"/>
				<g>
					<path class="st98" d="M726.6,797.6l-1.8-0.2c-1.1-0.9-2.2-1.8-3.3-2.7c-1.5,0.6-2.6,1.2-3.2,1.9c-0.7-1.8-1.4-3.6-2-5.5
						c-1.8-1.1-3.6-2.1-5.4-3c-4-1.9-8.7-3.5-12.9-2.6c0.1,4.8,2,9.6,5.2,14.3c4.9,7.3,7.3,14.6,7.1,22.1c-0.3,13.7-0.7,27.4,2.2,41
						c2.9,13.9,10.8,27.7,14.3,41.6c1.8,7-0.2,14.2-2.4,21.2c-1.4,4.4,3.7,8,17.6,9.3c12.8-0.9,4.5-4.3,8.5-6.3
						c3.5,0.5,7.2,1,11,0.2c3.2-1.8,4.5-3.7,6.7-5.6c1-4.6-1.2-9.1-6.7-13.4c-1.6-1.3-4-2.4-9.3-2.3c-5.3,0.1-7.4,1.2-8.3,2.6
						c-0.4,0.7-1,1.3-1.3,1.9c0.2-1.2,0-2.5-0.5-3.9c-1.8-5.7-4.3-11.4-4.5-17.2c-0.3-7-3.9-13.8-5.6-20.7
						c-1.6-6.2-4.5-12.4,2.9-18.5c3-2.5,3-5.1,2.2-7.7c-1.8-6.2-4.4-12.4-6.8-18.6c-3.2-8.3-6.9-16.7-10.3-25
						c2.5,1.5,7.3,2.4,14.1,3c0.8,0.1,1.5,0.1,2.3,0.2C733.4,801,730.3,798.6,726.6,797.6z"/>
				</g>
				<path class="st99" d="M1190.6,799c-2.4-2.3-16.4-10.8-19-13c-13.7-11.7-34.7-20.9-56.3-31.5h0.1c-0.2,0-1.6-0.4-1.8-0.6
					c-0.2-0.1-1.5-0.5-3.1-0.5c-38.8-0.2-77.5-0.5-116.3-0.6c-18.1,0-36.3,0.4-54.5,0.5c-34,0.1-68-0.3-101.9,0.2
					c-16.4,0.3-33.2,1.6-48.4,3.5c-14.9,1.9-27.7,5.1-42,7.5c-17.8,3-32.6,6.9-42,12.2c-4.6,2.6-7.6,5.8-7.5,8.7v0.1
					c4.2-0.9,8.9,0.6,12.9,2.6c1.8,0.9,3.7,1.9,5.4,3c-0.1-0.3-0.2-0.6-0.3-0.9c-0.6-1.6,1.4-2.9,5.8-3.9c7.1-1.5,13.7-3.2,21.2-4.6
					c10.6-3.4,25.6-4.5,38.4-6.8c1.6-0.3,3.6-0.7,5.9,0.1c-2.2,3.3-6.1,6.3-14.9,8.7c-1,0.3-2.3,0.4-3.5,0.6
					c-0.9,0.1-1.7,0.1-2.5,0.2c-2.5,0.3-4.2,1-6.1,1.5c-6.3,1.3-11.2,3.2-18.8,4c-3.1,0.8-7,1.2-10.1,2c-3.5,0.8-7.1,1.6-9.8,2.5
					c0.8,0.1-5.2,0.9-3.9,2.4c-0.7,1.5,0.2,2.8,2,4c3.8,2.5,13.9,2.3,16.7,2.9c13.8,1.4,23.4,4.3,30.4,8.1c8.2,4.4,17,8.8,26.4,13
					c13.1,5.8,30.8,5.9,48.3,3.3c9.6-1.4,18.8-3.1,28.2-4.6c11.4-1.9,20.6-4.8,32.8-6.2c9.9-1.9,20.5-3.4,30.6-5.2
					c14.1-2.5,93.6-5.3,104.6-5.9c21.1-1.2,42.5-1.7,63.6-2.8c4.2,0,8.4,0,12.6,0c7.8,0.2,15.6,0.2,23.3,0c4.6,0,14.9-1.3,19.5-1.5
					C1173.2,803.2,1195,803.2,1190.6,799z"/>
				<path class="st100" d="M1202,795.1c-20.2-10-40.8-20-61.7-29.9c-7.8-3.7-16.7-7.1-25.1-10.7c-2.7-1.5-25.7-2-20.7-1.5
					c21,2,23.8,15.6,29,18c14,6.4,17.7,10.5,11,15c-12,8-123.3,15.6-124,20c-0.5,3.1,174.8-6.6,177-2c20.2,41.5-34.8,149.7-31,149
					c28-5,35.3-13.4,36-16c0.7-2.3,18-121,21-126c2.3-3.8,1-8-2.1-9.1C1208.4,799.6,1206.3,797.2,1202,795.1z"/>
				<path class="st99" d="M1095,904.3c-3.8,0.9-6.1,1.4-8.3,2c-1.8-0.7-4.9-1.4-4.9-2.1c0-0.7,3-1.5,4.7-2.2
					C1088.9,902.6,1091.3,903.3,1095,904.3z"/>
				<path class="st96" d="M1112.1,943.7c-5.2-2.7-10.1-5.3-3.1-8.2c30.8,2.2,49.8,12.3,36.8,18.7c-3.9-0.3-7.1-0.6-10.4-0.8
					c-11.1-0.1-9.5-1.1-10-1.8c-1.6-2.3-7.2-4.6-7.1-7C1118.3,944.2,1117.6,943.7,1112.1,943.7z"/>
				<path class="st100" d="M837.3,807c-3-4.4-5.8-8.8-1.8-13.5c17.7,3.7,28.6,20.4,21.1,30.9c-2.2-0.5-4.1-0.9-6-1.4
					c-6.4-0.2-5.4-1.8-5.7-3c-0.9-3.9-4.1-7.6-4.1-11.5C840.8,807.9,840.4,807.1,837.3,807z"/>
				<path class="st97" d="M834.1,811.7c1.6-0.4,3.2-0.9,4.8-1.3c1.8,0,3.7,0,5.5-0.1c4.3,3.7,8.7,7.4,13,11.1
					c-0.6,1.1-0.6,2.1-2.2,3.2c-0.8,0.5-4.6,1-7.1,1.4c-3.8-0.4-9.3-0.7-10.9-1.2c-3.2-0.9-5.9-2-5.9-3
					C831.6,818.4,833.1,815.1,834.1,811.7z"/>
				<path class="st99" d="M1062,831.3c-3.8,0.9-6.1,1.4-8.3,2c-1.8-0.7-4.9-1.4-4.9-2.1c0-0.7,3-1.5,4.7-2.2
					C1055.9,829.6,1058.3,830.3,1062,831.3z"/>
				<path class="st97" d="M1141,938.3c-3.8,0.9-6.1,1.4-8.3,2c-1.8-0.7-4.9-1.4-4.9-2.1c0-0.7,3-1.5,4.7-2.2
					C1134.9,936.6,1137.3,937.3,1141,938.3z"/>
				<path class="st98" d="M959,884.3c-3.8,0.9-6.1,1.4-8.3,2c-1.8-0.7-4.9-1.4-4.9-2.1c0-0.7,3-1.5,4.7-2.2
					C952.9,882.6,955.3,883.3,959,884.3z"/>
				<path class="st97" d="M1057,832.3c-3.8,0.9-6.1,1.4-8.3,2c-1.8-0.7-4.9-1.4-4.9-2.1c0-0.7,3-1.5,4.7-2.2
					C1050.9,830.6,1053.3,831.3,1057,832.3z"/>
				<path class="st100" d="M1181,818.3c-3.8,0.9-6.1,1.4-8.3,2c-1.8-0.7-4.9-1.4-4.9-2.1c0-0.7,3-1.5,4.7-2.2
					C1174.9,816.6,1177.3,817.3,1181,818.3z"/>
				<path class="st99" d="M1035,944.3c-3.8,0.9-6.1,1.4-8.3,2c-1.8-0.7-4.9-1.4-4.9-2.1c0-0.7,3-1.5,4.7-2.2
					C1028.9,942.6,1031.3,943.3,1035,944.3z"/>
				<path class="st100" d="M1205.7,845.1c-7.7,5-12.2,8-16.8,10.9c-3.6-3.9-9.9-7.7-9.9-11.6c0-4.1,6.1-8.2,9.5-12.2
					C1193.4,835.8,1198.2,839.4,1205.7,845.1z"/>
				<path class="st100" d="M1107,787.3c-3.8,0.9-6.1,1.4-8.3,2c-1.8-0.7-4.9-1.4-4.9-2.1c0-0.7,3-1.5,4.7-2.2
					C1100.9,785.6,1103.3,786.3,1107,787.3z"/>
				<path class="st100" d="M1066.6,970c0,0,34.9-3.4,34-6c-2-6,15-141,0-138C1100.6,826,1097.6,962,1066.6,970z"/>
			</g>
			<g id="grass-group-right_2_">
				<g>
					<g>
						<path class="st101" d="M1199.4,940.8c-0.2-1.4-0.3-2.8-0.4-4.2s-0.1-2.8-0.1-4.2s0.1-2.8,0.2-4.2c0.2-1.4,0.3-2.8,0.5-4.1
							c0.2-1.4,0.5-2.7,0.7-4.1c0.3-1.4,0.6-2.7,1-4.1c0.4-1.3,0.8-2.7,1.2-4c0.5-1.3,1.1-2.6,1.7-3.8c2.5-5,6-9.5,8.8-14.2
							c2.9-4.7,5.5-9.5,8.2-14.4c0.7-1.2,1.4-2.4,2.2-3.6c0.8-1.2,1.6-2.4,2.4-3.5c1.7-2.3,3.7-4.3,5.7-6.3c4-4,8.5-7.6,13.4-10.5
							c4.9-2.8,10.2-5,15.5-6.6s10.7-2.8,16.3-3.3l0.3,0.8c-4.5,3.3-9.3,6-13.9,8.8c-4.6,2.7-9.1,5.4-13.4,8.2s-8.7,5.6-12.8,8.7
							c-2.1,1.6-4,3.3-6,4.9l-3,2.6l-2.9,2.7c-3.9,3.7-7.2,8-9.5,12.8s-3.2,10.3-4.5,15.4c-0.3,1.3-0.7,2.5-1.1,3.8
							s-0.8,2.5-1.2,3.8c-0.4,1.2-0.8,2.5-1.2,3.8l-0.7,1.9l-0.6,1.9c-1.8,5-3.4,10.1-5.9,15.2L1199.4,940.8z"/>
					</g>
					<g>
						<path class="st102" d="M1200.5,939.2c-0.4-4,0.1-7.9,1.1-11.7c0.3-1,0.6-1.9,0.8-2.8c0.3-0.9,0.7-1.8,1.1-2.8
							c0.8-1.8,1.7-3.6,2.9-5.2c2.3-3.2,5.3-5.9,7.9-8.7s5.1-5.7,7.8-8.6c2.7-2.9,5.7-5.5,9-7.6s6.8-4.1,10.4-5.4
							c3.7-1.4,7.4-2.4,11.2-3.1c3.8-0.7,7.6-1.1,11.6-1.1l0.2,0.6c-3.4,2-6.9,3.6-10.3,5.1l-10.2,4.5c-3.4,1.5-6.8,2.8-10,4.4
							c-1.6,0.8-3.2,1.7-4.9,2.5c-1.6,0.9-3.3,1.7-4.9,2.6c-3.2,1.9-6.2,4.3-8.4,7.3c-2.3,3-3.6,6.6-5,9.9c-0.7,1.7-1.5,3.3-2.3,4.9
							c-0.4,0.8-0.8,1.6-1.2,2.5c-0.4,0.8-0.8,1.7-1.2,2.5c-1.6,3.3-3,6.7-4.9,10.2L1200.5,939.2z"/>
					</g>
				</g>
				<g>
					<g>
						<path class="st101" d="M1202.7,940.9c-1.4-2.9-2.3-5.7-3.3-8.5s-2-5.6-2.8-8.4c-0.8-2.8-1.3-5.9-2.7-8.6
							c-1.3-2.7-3.2-5.1-5.5-7.1c-2.2-2-4.5-3.8-6.8-5.5s-4.8-3.2-7.3-4.7s-5-3-7.6-4.5s-5.3-3-7.8-4.8l0.2-0.5
							c3.1,0.3,6.1,0.9,9.1,1.8c3,0.9,5.9,2,8.7,3.5c2.8,1.5,5.3,3.5,7.6,5.7c0.6,0.5,1.1,1.1,1.7,1.7c0.6,0.6,1.1,1.2,1.6,1.8
							c1,1.2,1.9,2.6,2.7,3.9c1.6,2.7,3.1,5.4,4.8,8c1.6,2.6,3.6,5.1,5.1,7.9c0.3,0.7,0.7,1.4,1,2.1c0.3,0.7,0.5,1.5,0.7,2.2
							c0.4,1.5,0.8,3,1,4.6c0.5,3.1,0.6,6.2,0.2,9.3L1202.7,940.9z"/>
					</g>
					<g>
						<path class="st102" d="M1202.1,940c-1.1-2-1.9-3.9-2.8-5.7c-0.9-1.9-1.9-3.6-2.7-5.5c-0.9-1.9-1.6-3.9-3-5.5
							c-1.3-1.7-3-3-4.8-4c-0.9-0.5-1.9-1-2.8-1.4c-0.9-0.5-1.8-0.9-2.8-1.4c-1.9-0.9-3.8-1.6-5.7-2.4c-3.8-1.6-7.8-3.1-11.6-5.3
							l0.1-0.3c4.4,0,8.7,0.8,12.8,2.2c2.1,0.7,4,1.8,5.9,2.9c1.9,1.1,3.6,2.5,5.2,4.1c1.5,1.6,3,3.2,4.5,4.7s3.2,3,4.6,4.8
							c0.7,0.9,1.2,1.9,1.7,2.9c0.2,0.5,0.4,1,0.6,1.5s0.3,1.1,0.5,1.6c0.6,2.1,0.9,4.4,0.7,6.6L1202.1,940z"/>
					</g>
				</g>
			</g>
			<g id="grass-group-center_2_">
				<g>
					<g>
						<path class="st101" d="M1035.8,977.3c-0.3-1.9-0.4-3.8-0.3-5.7c0-0.9,0.1-1.9,0.1-2.8c0.1-0.9,0.2-1.9,0.4-2.8
							c0.3-1.9,0.7-3.7,1.2-5.6c0.3-0.9,0.5-1.8,0.8-2.7s0.7-1.8,1.1-2.6c1.7-3.4,4.1-6.5,6-9.7c2-3.2,3.7-6.5,5.6-9.8
							c1-1.6,2-3.3,3.2-4.8s2.5-2.9,3.9-4.3c2.7-2.7,5.8-5.2,9.1-7.1c3.4-1.9,6.9-3.4,10.5-4.5s7.3-1.9,11.1-2.3l0.2,0.5
							c-3.1,2.3-6.3,4.1-9.5,6c-3.1,1.9-6.2,3.7-9.2,5.6c-3,1.9-5.9,3.8-8.7,6c-1.4,1.1-2.7,2.2-4.1,3.4c-0.7,0.6-1.3,1.2-2,1.7
							l-2,1.8c-2.6,2.5-4.9,5.4-6.5,8.7s-2.2,7-3.1,10.5c-0.2,0.9-0.5,1.7-0.7,2.6c-0.2,0.9-0.5,1.7-0.8,2.6
							c-0.3,0.8-0.6,1.7-0.9,2.6c-0.3,0.9-0.6,1.7-0.9,2.6c-1.2,3.4-2.3,6.9-4,10.4L1035.8,977.3z"/>
					</g>
					<g>
						<path class="st102" d="M1036.6,976.2c-0.1-1.3-0.1-2.7,0-4s0.4-2.7,0.7-4c0.2-0.6,0.4-1.3,0.6-1.9c0.2-0.6,0.5-1.3,0.7-1.9
							c0.5-1.2,1.1-2.4,1.9-3.5c1.6-2.2,3.6-4,5.4-5.9s3.5-3.9,5.3-5.9c0.5-0.5,0.9-1,1.4-1.4c0.5-0.5,1-0.9,1.5-1.4
							c1-0.9,2.1-1.6,3.3-2.4c2.3-1.5,4.6-2.8,7.1-3.7s5.1-1.6,7.7-2.1s5.2-0.8,7.9-0.8l0.1,0.4c-2.3,1.4-4.7,2.4-7,3.5l-7,3.1
							c-2.3,1-4.6,1.9-6.9,3c-1.1,0.5-2.2,1.1-3.3,1.7c-1.1,0.6-2.3,1.1-3.3,1.8c-2.2,1.3-4.2,2.9-5.7,5c-1.6,2-2.5,4.5-3.4,6.8
							c-1,2.3-2.2,4.4-3.2,6.7l-1.6,3.4c-0.6,1.2-1.1,2.3-1.7,3.5L1036.6,976.2z"/>
					</g>
				</g>
				<g>
					<g>
						<path class="st101" d="M1036.2,980c-0.9-2.6-1.5-5.2-2-7.8c-0.6-2.6-1-5.2-1.5-7.8s-0.8-5.2-1.2-7.8c-0.4-2.6-0.6-5.2-0.8-7.9
							c-0.2-5.3,0-10.7-0.7-15.9c-0.7-5.3-2.2-10.4-4.1-15.3l-5.8-14.7c-2-4.8-4.3-9.4-6.5-14c-2.3-4.6-4.7-9-7.6-13.3
							c-1.4-2.1-2.9-4.3-4.5-6.4c-1.6-2.1-3.2-4.2-4.8-6.5l0.5-0.5c2.4,1.4,4.6,2.9,6.8,4.5s4.3,3.5,6.2,5.4c2,2,3.8,4.1,5.4,6.3
							c1.7,2.2,3.1,4.6,4.5,7c2.7,4.8,4.6,10,6.2,15.2l1.1,3.9c0.3,1.3,0.6,2.6,0.9,4c0.5,2.7,0.9,5.3,1.3,8s0.7,5.3,1.1,8
							c0.4,2.6,0.9,5.3,1.5,7.9c1.1,5.2,3.1,10.3,4.2,15.6c0.6,2.6,0.9,5.3,1.2,8c0.3,2.7,0.4,5.4,0.4,8c0.1,5.4-0.1,10.8-1.1,16.1
							H1036.2z"/>
					</g>
					<g>
						<path class="st102" d="M1035.8,978.1c-0.6-1.6-1.1-3.3-1.5-4.9c-0.5-1.6-0.8-3.3-1.2-4.9c-0.7-3.3-1.4-6.5-1.7-9.9
							c-0.3-3.3-0.3-6.8-1-10.1s-1.9-6.4-3.5-9.4l-1.2-2.2c-0.4-0.7-0.8-1.4-1.2-2.2c-0.8-1.4-1.6-2.9-2.4-4.3
							c-1.7-2.8-3.6-5.4-5.5-8s-4-5-6.2-7.4s-4.7-4.6-7.1-7.2l0.3-0.4c3.3,1.2,6.4,2.7,9.3,4.7c0.7,0.5,1.4,1,2.1,1.6
							c0.7,0.6,1.4,1.1,2,1.7c1.3,1.2,2.5,2.5,3.7,3.9c2.2,2.8,4,5.8,5.5,9c0.7,1.6,1.4,3.2,2,4.9c0.6,1.6,0.9,3.3,1.4,5
							c0.8,3.4,1.5,6.7,2.5,9.9s2.5,6.4,3.5,9.7c0.5,1.7,0.8,3.3,1,5s0.4,3.4,0.5,5.1c0.2,3.4,0,6.9-0.6,10.3L1035.8,978.1z"/>
					</g>
				</g>
			</g>
			<g id="grass-group-left_2_">
				<g>
					<g>
						<path class="st101" d="M747.8,933.7c-1.2-2.8-2-5.6-2.9-8.3c-0.9-2.8-1.6-5.6-2.3-8.3c-0.4-1.4-0.7-2.8-1-4.2s-0.7-2.8-1-4.1
							c-0.3-1.4-0.7-2.8-0.9-4.2c-0.3-1.4-0.5-2.8-0.7-4.2c-0.8-5.6-1.1-11.5-2.8-17c-1.6-5.5-4.3-10.7-7.6-15.3
							c-1.6-2.4-3.4-4.6-5.1-6.8c-1.7-2.2-3.4-4.4-5.1-6.6c-3.6-4.3-7.5-8.1-11.4-12s-8.1-7.4-12.4-11l-6.7-5.4
							c-2.3-1.8-4.6-3.6-6.8-5.7l0.4-0.8c5.8,1.4,11.4,3.3,16.8,5.9c5.4,2.6,10.5,5.9,15.1,10c4.6,4,8.4,8.9,11.7,13.9
							c1.6,2.6,3.2,5.1,4.5,7.9c0.6,1.4,1.3,2.7,1.8,4.1c0.5,1.4,1.1,2.8,1.5,4.2c1.9,5.6,3.8,11.2,6,16.5
							c2.2,5.4,5.2,10.6,7.2,16.2c1,2.8,1.7,5.6,2.2,8.6c0.3,1.4,0.5,2.9,0.7,4.4s0.3,2.9,0.4,4.4c0.5,5.9,0.4,11.8-0.6,17.7
							L747.8,933.7z"/>
					</g>
					<g>
						<path class="st102" d="M747,931.8c-1.8-3.7-2.9-7.3-4.2-10.9c-0.3-0.9-0.6-1.8-0.9-2.7c-0.3-0.9-0.6-1.8-0.9-2.7
							c-0.3-0.9-0.6-1.8-0.9-2.7c-0.3-0.9-0.6-1.8-0.8-2.7c-1-3.7-1.6-7.6-3.3-11c-1.6-3.5-4-6.6-6.8-9.2c-2.8-2.6-5.7-5-8.6-7.3
							c-3-2.3-6.1-4.2-9.2-6.3c-3.1-2-6.3-3.9-9.6-5.9s-6.7-3.9-10-6.3l0.2-0.6c4,0.4,7.9,1.3,11.7,2.4c3.8,1.2,7.6,2.7,11.1,4.7
							s6.7,4.7,9.6,7.5c1.4,1.4,2.8,2.9,4.1,4.5c0.6,0.8,1.2,1.7,1.8,2.5c0.5,0.9,1.1,1.7,1.6,2.6c2,3.5,3.8,7,5.9,10.3
							c2,3.4,4.5,6.6,6.3,10.2c0.4,0.9,0.8,1.8,1.2,2.8c0.3,0.9,0.6,1.9,0.9,2.9c0.3,1,0.5,1.9,0.7,2.9s0.4,2,0.5,2.9
							c0.1,1,0.3,2,0.4,3c0.1,1,0.1,2,0.1,3c0.1,2-0.1,4-0.4,6L747,931.8z"/>
					</g>
				</g>
				<g>
					<g>
						<path class="st101" d="M747.1,939c-0.6-3.4-0.6-6.9-0.3-10.3c0.1-1.7,0.4-3.4,0.7-5.1c0.3-1.7,0.7-3.3,1.3-4.9
							c1.2-3.2,3-6.2,4.4-9.3s2.5-6.3,3.7-9.5c0.6-1.6,1.3-3.2,2.1-4.8c0.4-0.8,0.8-1.5,1.3-2.3c0.5-0.7,1-1.5,1.5-2.2
							c2-2.8,4.3-5.6,7-7.8s5.8-4.1,8.9-5.5c3.2-1.4,6.4-2.5,9.8-3.2l0.2,0.5c-2.6,2.3-5.4,4.2-8,6.2s-5.1,4-7.4,6.2
							c-2.3,2.1-4.7,4.3-6.8,6.7c-0.5,0.6-1,1.2-1.6,1.8c-0.5,0.6-1,1.3-1.5,1.9c-0.5,0.6-1,1.3-1.5,1.9c-0.5,0.7-1,1.3-1.5,2
							c-2,2.7-3.6,5.6-4.6,8.8s-1.3,6.6-1.8,9.8c-0.3,1.6-0.6,3.2-1,4.8s-0.8,3.2-1.2,4.8c-0.9,3.2-1.8,6.4-3.1,9.6L747.1,939z"/>
					</g>
					<g>
						<path class="st102" d="M747.7,937.9c-0.2-1.2-0.2-2.4-0.2-3.5c0-1.2,0.1-2.3,0.3-3.5s0.4-2.3,0.8-3.4c0.2-0.6,0.3-1.1,0.6-1.7
							c0.2-0.5,0.5-1.1,0.7-1.6c1.1-2.1,2.6-3.9,3.9-5.9c1.3-1.9,2.4-3.9,3.6-5.9c0.6-1,1.3-2,2.1-2.9c0.4-0.5,0.8-0.9,1.2-1.3
							c0.4-0.4,0.8-0.8,1.3-1.2c1.7-1.6,3.6-3.1,5.7-4.2c4.2-2.2,8.7-3.4,13.4-3.9l0.1,0.3c-1.9,1.4-3.9,2.4-5.9,3.6
							c-1.9,1.1-3.9,2.2-5.7,3.3c-1.9,1.1-3.7,2.2-5.5,3.5c-1.7,1.3-3.5,2.6-5.2,4.1s-3.1,3.2-4.2,5.2c-1,2-1.5,4.3-2.1,6.4
							c-0.6,2.1-1.4,4.2-2.1,6.3c-0.8,2.1-1.5,4.2-2.5,6.3L747.7,937.9z"/>
					</g>
				</g>
			</g>
		</g>
	</g>
	<g>
		<g>
			<defs>
				<rect id="SVGID_61_" x="-3" y="-3" width="1923" height="1083"/>
			</defs>
			<clipPath id="SVGID_30_">
				<use xlink:href="#SVGID_61_"  style="overflow:visible;"/>
			</clipPath>
			<g id="guy-ninja-model_2_" class="st103">
				<g id="guy-ninja_2_">
					<ellipse id="his-shadow_2_" class="st95" cx="945.4" cy="784.8" rx="123.5" ry="16.5"/>
					<g id="his-body_2_">
						<g id="his-right-leg_4_">
							<path id="his-right-foot_2_" d="M968.1,767.1c-0.1-0.4-0.1-0.9-0.2-1.3c-14.4-15.4-31.4-14.8-50.5-1.3
								c0.1,0.2,0.2,0.4,0.3,0.7c0,0.1,0,0.2-0.1,0.3c-0.6,0.4-1.3,0.7-1.9,1c-7.2,3.9-14.8,7.2-20.9,12.5
								c-2.8,2.5-1.8,7.1-2.5,12.1c0,0.1,78.5,0.1,78.5,0C970,782.8,969.1,775.3,968.1,767.1z"/>
							<path id="his-right-leg_5_" d="M965.7,746.2c0,0,0-0.1,0.1-0.2c-16.2-24.8-32.7-42.9-65.5-43.4c3.1,21.5,6.8,42.7,17.2,61.8
								c17.9,29.1,35,34,50.5,1.3C967.3,759.8,966.5,753.5,965.7,746.2z"/>
						</g>
						<g id="his-left-leg_2_">
							<path id="his-left-foot_2_" d="M1052.3,771.1c-0.9-0.4-1.7-0.7-2.6-1.1c-3.2-1.3-6.3-2.2-8.7-3c-25.1-19-44.9-17.1-51.1,6.8
								c0.5,1,1,2,1.5,3c2.5,4.8,4.9,9.6,7.2,14l53.1,0.2C1061.9,790.8,1060.8,774.9,1052.3,771.1z"/>
							<path id="his-left-shin_2_" d="M1041,767c-0.7-0.2-1.4-0.4-1.9-0.6c0-0.1-0.1-0.1-0.1-0.2c-4.9-20.2-9.7-39.2-13.9-58.2
								c-0.2-0.9-0.4-1.7-0.6-2.6c-37.4,1.7-48.5,19.3-48.5,43.6c0.6,0.4,1.1,0.8,1.4,1.3c0.1,0.3,0.3,0.5,0.4,0.8
								c4,7.1,8.1,14.9,12.1,22.7C1012.3,793.7,1033.5,795.4,1041,767z"/>
						</g>
						<g id="his-right-arm_2_">
							<g id="his-lower-right-arm_2_">
								<path id="his-right-thumb_2_" d="M869.7,584.8c-0.5-4.1-0.7-8.2-1.3-12.2c-1.1-7.1-4.6-11.7-12.7-11c-8,0.7-10.5,6-10.8,13
									c-0.2,4.8,0,9.8,0,15.2c8.8,20.1,17.6,22.9,26.4,8.7C870.7,593.5,870.2,589.2,869.7,584.8z"/>
								<path id="his-right-hand_2_" d="M872.3,607.2c-0.4-3.1-0.7-6-1-8.7c-0.8-11.8-10-14.2-26.4-8.7c0,0.2,0,0.3,0,0.5
									c0,0.1-0.1,0.2-0.2,0.2c-2.8,0.2-4.5,0.5-6.2,0.5c-15.9,0.1-20.1,3.7-17.6,19.7c1.7,11.2,5.4,22.5,10.6,32.6
									c2.6,5.1,10,9.5,15.9,10.6c1,0.2,2.1,0.4,3.1,0.5c25.3-4.2,34.1-19.1,22.6-47.2c-0.2,0.1-0.3,0.1-0.5,0.2
									C872.5,607.4,872.3,607.3,872.3,607.2z"/>
							</g>
							<path id="his-upper-right-arm_2_" d="M898.4,601.2c-0.5-0.5-1.1-0.9-1.6-1.4c-8,2.5-15.3,4.8-23.7,7.4
								c-27.2,7-38.3,21.2-22.6,47.2c14.2,2.5,28.7,3.4,42.6,5c0,0,0,0,0.1,0C901,637.2,902.5,618.9,898.4,601.2z"/>
						</g>
						<g id="his-left-arm_2_">
							<g id="his-lower-left-arm_2_">
								<path id="his-left-thumb_2_" d="M1078.7,568.4c-0.7-7.5-5.4-11-13-11c-7.9,0-11.5,4.3-12.2,11.7c-0.9,8.5-1.6,17.1-2.5,25.6
									c-0.1,1.2-0.3,2.4-0.6,3.4c15.1,18.7,24.6,15.4,28.4-10.4C1078.9,580.9,1079.3,574.6,1078.7,568.4z"/>
								<path id="his-left-hand_2_" d="M1090.1,590.5c-3.3,0.6-7.1-0.8-11.1-1.4c-0.1,0-0.2-0.1-0.2-0.2c0-0.4,0-0.8,0-1.2
									c-9.4-4.5-18.9-1-28.4,10.4c-1.1,4-3.4,6.4-6.6,7.2c-8.8,31.8,5,46.2,33.7,48.8c7.2-1.5,12.5-5.7,14.9-13.5
									c3.9-12.3,8.2-24.6,10.5-37.3C1104.3,595.4,1100.9,588.6,1090.1,590.5z"/>
							</g>
							<path id="his-upper-left-arm_2_" d="M1035.4,604.7c-3.6-1-7.2-2.3-11.3-3.8c-0.3-0.1-0.6-0.2-0.9-0.3c-0.6,0.5-1.2,1-1.8,1.5
								c-9.3,17.7-4.4,38.2,6.4,56.6c0-0.1,0-0.2,0-0.3s0.1-0.2,0.2-0.2c0.5,0,1.1-0.1,1.6-0.1c14.3-1.2,28.8-2.4,43.4-3.4
								c1.6-0.1,3.1-0.3,4.5-0.6c11.1-30.9,3.1-49.2-33.7-48.8C1041.5,605.9,1038.6,605.7,1035.4,604.7z"/>
						</g>
						<path id="his-torso_2_" d="M1024.5,705.4c-0.2-1.1-0.5-2.2-0.7-3.2c-1-4.8,0.6-10.2,1.1-15.3c0.9-9.2,1.9-18.3,2.9-28.2
							c-10.8-18.4-13.9-40.4-4.6-58.1l-4.3-1.9c-16.5,11-43.1,17.6-58.5,17.6c-22.5,0-44.8-6.4-61.4-19.5l-2.2,3
							c-11.9,13.4-25.4,29.3-3.6,59.6c0.1,0,0.1,0.1,0.1,0.2c3.2,14.2,4.9,28.7,7,43.1c6.9,43.7,26.5,56.7,65.5,43.4
							c0-0.1,0.1-0.1,0.2,0c4,1.3,7.9,1.8,10,3C1014.6,752.6,1027.7,736.4,1024.5,705.4z"/>
					</g>
					<g id="his-head_2_">
						<path id="his-mask_2_" d="M992.2,422.5c-49.6-19.3-104.8,8.5-122.2,61.7c-1.2,3.8-2.2,7.6-3.6,12.3c0,0.1-0.2,0.2-0.3,0.1
							c-0.8-0.5-1.6-1-2.4-1.5c-15.5-9.1-31.1-7.2-46.8-0.5c-3.3,1.8-4.3,4.8-0.4,7.3c7.8,4.2,15.6,8.5,23.3,13
							c0.1,0.1,0.1,0.3,0,0.4c-8.7,7.1-8.6,18.5-8.4,29.6c0.1,6.2,4.8,7.8,9.3,4.3c7.2-5.7,13.9-12,20.8-18.3c1-0.9,1.9-1.8,2.9-2.6
							c0.2-0.2,0.4-0.1,0.4,0.1c2.8,25.9,13.7,49.7,35.8,69.9c0.1,0.1,22.1,18,59.8,18c35.7,0,58.4-17.5,58.5-17.6
							c3.3-3.6,5.6-6.1,8-8.7C1076,537.3,1057.5,447.9,992.2,422.5z M1045.3,532.9c-10.7-1-19.4-1.9-28.1-2.6
							c-15.1-1.2-30.1-2.3-45.1-3.4c-6-0.4-11.9-0.4-17.9,0c-16.7,1.2-56.1,3.3-78,4.1c-0.1,0-0.2-0.1-0.2-0.2v-35
							c0-0.1,0.1-0.2,0.2-0.2l85.7,3.4c20.8-1.5,41.6-2.9,62.3-4.4c5.5-0.4,10.9-1,18.6-1.8c0.2,0,0.3,0.1,0.3,0.2
							c0.8,12.9,1.6,25.7,2.5,39.7C1045.6,532.8,1045.4,532.9,1045.3,532.9z"/>
						<g id="his-face-color_2_">
							<path id="his-right-face_2_" class="st105" d="M962,526.5c-0.8,0.6-58.1,3.8-86,4.8c0-11.4,0-23.3,0-35.5
								c29.7,1.2,57.8,2.3,85.9,3.4C962,508.3,962,517.4,962,526.5z"/>
							<path id="his-left-face_2_" class="st106" d="M962,526.5c0-9.1-0.1-18.2-0.1-27.2c20.8-1.5,41.5-2.9,62.3-4.4
								c5.5-0.4,11-1.1,18.8-1.9c0.8,13.1,1.6,26,2.5,40.2c-10.8-1-19.6-1.9-28.3-2.6C998.8,529.2,980.4,527.9,962,526.5z"/>
						</g>
						<g id="his-highlights_2_">
							<path id="his-lower-highlight_2_" class="st147" d="M894.1,576.4c30.7,19.1,62.7,32.4,99.9,26.5
								C964.3,623,910.8,608.8,894.1,576.4z"/>
							<path id="his-upper-highlight_2_" class="st147" d="M931.1,429.2c44.8-18.5,92,7.4,104,44.4
								C1006.4,441.1,972.3,426.5,931.1,429.2z"/>
						</g>
						<g>
							<path d="M901.6,515c2.7,2.2,5.4,3.6,8.1,4.5c0.8,0.2,1.6,0.4,2.5,0.6c4,0.7,8,0.2,11.4-0.8c0.8-0.2,1.5-0.5,2.3-0.8
								c2.8-1.1,5.3-2.4,7.1-3.6c1.3-0.8,0.9-2.8-0.7-3l-32.9-3.9c-1.7-0.2-2.7,1.7-1.7,3c0.7,0.8,1.4,1.6,2.1,2.3
								C900.4,513.9,901,514.5,901.6,515z"/>
							<path d="M988.7,514.9c2.2,1.4,5.4,3.1,9.1,4.2c0.4,0.1,0.8,0.2,1.1,0.3c3.1,0.8,6.6,1.2,10.2,0.6c0.8-0.1,1.6-0.3,2.5-0.6
								c2.9-0.8,5.9-2.4,8.7-4.9c0.6-0.5,1.2-1.1,1.8-1.7c0.6-0.6,1.2-1.2,1.8-1.9c1.1-1.3,0-3.2-1.7-3l-32.9,3.9
								C987.9,512.1,987.4,514.1,988.7,514.9z"/>
						</g>
					</g>
					<g id="headband">
						<path id="his-headband_2_" class="st3" d="M1039.6,470H878.4c-5.7,0-10.4-4.7-10.4-10.4l0,0c0-5.7,4.7-10.4,10.4-10.4h161.2
							c5.7,0,10.4,4.7,10.4,10.4l0,0C1050,465.4,1045.3,470,1039.6,470z"/>
					</g>
					<g id="belt">
						<path id="his-belt_2_" class="st3" d="M1018.2,702.5H903c-5.9,0-10.6-4.8-10.6-10.6l0,0c0-5.9,4.8-10.6,10.6-10.6h115.2
							c5.9,0,10.6,4.8,10.6,10.6l0,0C1028.9,697.8,1024.1,702.5,1018.2,702.5z"/>
						<path id="his-left-tie_2_" class="st3" d="M989.4,698.8c-4.8,2.5-12.1,2-14.6,6.6c-3,5.4-4.3,11.7-5.8,17.6
							c-3.4,12.6-8.4,24.4-15.5,35.4c-3.3,5.1-14.9,0-11.6-5.1c7.7-11.9,12.7-24.6,16.3-38.3c1.6-6,3-12.6,6.9-17.6
							c3.8-5,10.8-4.5,16.3-7.4C987.2,687,995.3,695.8,989.4,698.8L989.4,698.8z"/>
						<path id="his-right-tie_2_" class="st3" d="M975.6,697c-5.3,1.2-12.2-1-15.8,2.8c-4.2,4.4-7,10.3-10,15.6
							c-6.4,11.4-14.2,21.6-23.8,30.4c-4.4,4.1-14.5-3.7-10-7.8c10.4-9.6,18.4-20.7,25.3-33c3-5.4,6-11.4,11-15.3
							c4.9-3.9,11.5-1.7,17.7-3.1C976.4,684.9,982.1,695.4,975.6,697L975.6,697z"/>
					</g>
				</g>
			</g>
		</g>
		<g>
			<defs>
				<rect id="SVGID_63_" x="-3" y="-3" width="1923" height="1083"/>
			</defs>
			<clipPath id="SVGID_32_">
				<use xlink:href="#SVGID_63_"  style="overflow:visible;"/>
			</clipPath>
		</g>
	</g>
	<g>
		<g id="XMLID_123_">
			<polygon id="XMLID_129_" class="st77" points="431.6,711.1 399.6,655 414.6,653.8 390.6,617.1 405.6,616 373.6,574.7 
				387.6,573.6 356.5,520.8 356.2,522.2 356.2,520.5 325.2,573.2 339.2,574.3 307.1,615.6 322.2,616.7 298.1,653.4 313.1,654.6 
				281.1,710.7 307.4,710.4 307.4,710.5 			"/>
			<rect id="XMLID_128_" x="350.6" y="697.8" class="st78" width="11.5" height="56.6"/>
			<polygon id="XMLID_127_" class="st79" points="453.7,733.6 438.9,692.2 449.9,691.4 432.2,664.4 443.3,663.5 419.7,633.1 
				430,632.2 407.1,593.4 406.9,594.4 406.9,593.1 384,632 394.3,632.8 370.7,663.2 381.8,664.1 364.1,691.1 375.1,691.9 
				351.5,733.3 370.9,733.1 370.9,733.2 			"/>
			<rect id="XMLID_126_" x="402.8" y="723.4" class="st78" width="8.5" height="30.6"/>
			<polygon id="XMLID_125_" class="st79" points="349.2,737.2 329.7,703.1 338.9,702.4 324.3,680.2 333.4,679.5 313.9,654.4 
				322.5,653.7 303.6,621.7 303.4,622.5 303.4,621.5 284.5,653.5 293.1,654.2 273.6,679.2 282.7,679.9 268.1,702.2 277.3,702.9 
				257.8,737 273.8,736.8 273.8,736.8 			"/>
			<rect id="XMLID_124_" x="300" y="728.8" class="st78" width="7" height="25.2"/>
		</g>
		<g id="XMLID_112_">
			<rect id="XMLID_122_" x="459.2" y="724.6" class="st78" width="6.6" height="38.9"/>
			<path id="XMLID_121_" class="st71" d="M403.8,670.7c0-9.3,5.7-17.2,13.8-20.6c-0.4-1.5-0.6-3.1-0.6-4.8c0-10.9,9-19.8,20-19.8
				c2,0,4,0.3,5.8,0.8c0-0.3,0-0.6,0-0.8c0-0.1,0-0.2,0-0.3c0-0.1,0-0.2,0-0.3c0-10.8,8.8-19.5,19.8-19.5c10.9,0,19.8,8.7,19.8,19.5
				c0,0.1,0,0.2,0,0.3c0,0.1,0,0.2,0,0.3c0,0.5,0,0.9-0.1,1.4c1.8-0.6,3.8-0.8,5.8-0.8c11.1,0,20,8.8,20,19.8c0,1.7-0.2,3.3-0.6,4.8
				c8.1,3.4,13.8,11.4,13.8,20.6c0,8.7-5.1,16.3-12.4,20c0.9,2.4,1.5,4.9,1.5,7.6c0,11.5-9.5,20.8-21.1,20.8c-3.9,0-7.5-1-10.7-2.8
				c-2.4,6.4-8.6,11-16,11c-7.5,0-13.9-4.8-16.1-11.4c-3.1,1.8-6.7,2.8-10.5,2.8c-11.7,0-21.1-9.3-21.1-20.8c0-2.7,0.5-5.2,1.5-7.6
				C408.8,687,403.8,679.4,403.8,670.7"/>
			<path id="XMLID_120_" class="st80" d="M497.5,651.2c0-8.7-7.1-15.7-15.9-15.7c-1.3,0-2.6,0.2-3.9,0.5c2.5-2.2,5.8-3.5,9.4-3.5
				c8,0,14.4,6.4,14.4,14.2c0,4.6-2.2,8.6-5.6,11.2C496.9,655.9,497.5,653.7,497.5,651.2"/>
			<path id="XMLID_119_" class="st80" d="M431,663.5c-8.8,0.4-15.5,7.8-15.1,16.5c0.1,1.3,0.3,2.6,0.7,3.8c-2.3-2.4-3.8-5.5-4-9.1
				c-0.4-7.8,5.7-14.5,13.6-14.9c4.6-0.2,8.9,1.7,11.7,4.9C435.8,663.8,433.4,663.4,431,663.5"/>
			<path id="XMLID_118_" class="st80" d="M510.1,678.7c-0.7-8.6-8.4-15.1-17.1-14.4c-1.3,0.1-2.6,0.4-3.8,0.8
				c2.3-2.4,5.5-3.9,9.1-4.2c7.9-0.6,14.9,5.2,15.5,13c0.4,4.6-1.5,8.8-4.7,11.6C509.9,683.4,510.3,681.1,510.1,678.7"/>
			<path id="XMLID_117_" class="st80" d="M472.2,622.1c-6.2-6.1-16.3-6.1-22.5,0c-0.9,0.9-1.7,2-2.4,3c0.2-3.3,1.6-6.5,4.2-9
				c5.6-5.5,14.7-5.5,20.4,0c3.3,3.2,4.6,7.6,4.1,11.8C475.2,625.8,473.9,623.8,472.2,622.1"/>
			<path id="XMLID_116_" class="st80" d="M441.6,636.3c-8.8,0-15.9,7-15.9,15.7c0,1.3,0.2,2.6,0.5,3.8c-2.2-2.5-3.5-5.7-3.5-9.3
				c0-7.8,6.4-14.2,14.4-14.2c4.6,0,8.7,2.2,11.4,5.5C446.4,636.8,444.1,636.3,441.6,636.3"/>
			<path id="XMLID_115_" class="st80" d="M423.5,695.2c0,8.7,7.1,15.7,15.9,15.7c1.3,0,2.6-0.2,3.9-0.5c-2.5,2.2-5.8,3.5-9.4,3.5
				c-8,0-14.4-6.4-14.4-14.2c0-4.6,2.2-8.6,5.6-11.2C424,690.5,423.5,692.8,423.5,695.2"/>
			<path id="XMLID_114_" class="st80" d="M452,712c6.2,6.1,16.3,6.1,22.5,0c0.9-0.9,1.7-2,2.4-3c-0.2,3.3-1.6,6.5-4.2,9
				c-5.6,5.5-14.7,5.5-20.4,0c-3.3-3.2-4.6-7.6-4.1-11.8C449.1,708.3,450.3,710.3,452,712"/>
			<path id="XMLID_113_" class="st80" d="M487.8,710.6c8.8,0,15.9-7,15.9-15.7c0-1.3-0.2-2.6-0.5-3.8c2.2,2.5,3.5,5.7,3.5,9.3
				c0,7.8-6.4,14.2-14.4,14.2c-4.6,0-8.7-2.2-11.4-5.5C483.1,710,485.4,710.6,487.8,710.6"/>
		</g>
		<g id="XMLID_89_">
			<g id="XMLID_104_">
				<path id="XMLID_111_" class="st77" d="M185.3,718.6c7.2,29.7,36.9,41.1,57.1,29.7c14.8-8.3,27.3-35.4,19.5-55.2
					c-7.8-19.8-23.4-33.3-39.7-35.4c-21-1-41.3,24-38.4,51.7C184,712.5,184.5,715.5,185.3,718.6"/>
				<g id="XMLID_105_">
					<path id="XMLID_110_" class="st78" d="M198.5,728.2c0.1,0.2,2.4,5.4,8.6,5.4c-2.7-3.9-3.2-7.9-3.2-7.9l1.7-0.2
						c0,0.3,0.6,4.4,3.4,8c1.5-0.3,2.6-0.9,3.4-1.9c2-2.4,1.6-6.1,1.6-6.1l1.7-0.2c0,0.2,0.5,4.4-2,7.4c-0.9,1.1-2.1,1.8-3.5,2.2
						c1.7,1.6,3.9,3,6.9,3.7c6,1.4,11.4,0.2,15.6-2c-3.7-4.3-1.2-14.5-1.2-14.6l1.6,0.5c-0.1,0.3-2.3,9.6,1.1,13.2
						c2.5-1.5,4-3.5,5.1-5.3c2-3.3,1.2-8.2,0.2-11.3c0.1,0,1.2-0.5,1.6-0.6c1,2.9,2.4,8.3-0.5,12.9c-1.2,1.8-2.6,3.8-5.2,5.4
						c1.1,0.8,2.6,1.2,4.4,1.4c8.8,1,10.9-5.9,10.9-6.2l1.6,0.4c0,0.1-1.9,6.6-9.3,7.4c-1,0.1-2.2,0.1-3.5,0c-2.4-0.3-4.4-1-5.7-2.1
						c-3,1.6-5.6,2.7-9.6,2.9l0.6,58.9l-3.2,0.2l-0.2-58.9c-1.6,0-3.2-0.2-4.8-0.6c-3.8-0.9-6.5-2.8-8.5-5c0,0-0.1,0-0.1,0
						c-0.4,0-0.7,0-1.1,0c-7.4,0-10.2-6.4-10.2-6.4L198.5,728.2z"/>
					<path id="XMLID_109_" class="st78" d="M215.8,740c0.2-0.1,5.1-2.5,7.2-8.6c1.9-5.4,0.8-12-3-19.4l-1.6,0.8
						c3.6,7,4.6,13.1,2.9,18c-1.8,5.4-6.2,7.5-6.3,7.5L215.8,740z"/>
					<path id="XMLID_108_" class="st78" d="M215.5,720.6c2,0,4.1-0.5,6-1.5c4.5-2.4,7.3-7.7,7.4-14.1l-1.8,0
						c-0.1,5.7-2.5,10.4-6.5,12.5c-4.6,2.5-10.3,1.3-13.4-2.7l-1.4,1.1C208.2,718.9,211.8,720.6,215.5,720.6z"/>
					<path id="XMLID_107_" class="st78" d="M243.4,725.4c3.2,0,5.8-0.8,7.7-2.5c3-2.6,3.3-6.4,3.3-6.5l-1.8-0.1c0,0-0.2,3.2-2.7,5.3
						c-1.8,1.6-4.5,2.3-7.9,2l-0.1,1.8C242.4,725.4,242.9,725.4,243.4,725.4z"/>
					<path id="XMLID_106_" class="st78" d="M227.9,712.9c3.2,0,5.8-0.8,7.7-2.5c3-2.6,3.3-6.4,3.3-6.5l-1.8-0.1c0,0-0.2,3.2-2.7,5.3
						c-1.8,1.6-4.5,2.3-7.9,2l-0.1,1.8C226.9,712.8,227.5,712.9,227.9,712.9z"/>
				</g>
			</g>
			<g id="XMLID_98_">
				<path id="XMLID_103_" class="st79" d="M122.3,691.7c9.6,39.5,49.1,54.8,76.1,39.5c19.7-11.1,36.3-47.1,25.9-73.5
					c-10.4-26.3-31.1-44.4-52.9-47.1c-28-1.4-55,31.9-51.2,68.9C120.6,683.5,121.2,687.6,122.3,691.7"/>
				<path id="XMLID_102_" class="st78" d="M212.1,704.4c-0.1,0.3-3.2,7.1-11.4,7.2c3.6-5.1,4.3-10.5,4.3-10.6l-2.2-0.3
					c0,0.4-0.8,5.8-4.6,10.6c-1.9-0.4-3.5-1.2-4.6-2.5c-2.7-3.2-2.1-8.1-2.1-8.2l-2.2-0.3c0,0.2-0.7,5.9,2.6,9.8
					c1.2,1.4,2.8,2.4,4.6,3c-2.2,2.2-5.2,4-9.2,5c-8,1.9-15.2,0.2-20.8-2.7c4.9-5.7,1.6-19.3,1.6-19.4l-2.1,0.7
					c0.1,0.4,3.1,12.7-1.4,17.6c-3.3-2-5.3-4.7-6.8-7c-2.7-4.4-1.5-10.9-0.3-15c-0.1,0-1.6-0.7-2.2-0.8c-1.4,3.8-3.2,11,0.7,17.1
					c1.5,2.4,3.5,5.1,6.9,7.2c-1.5,1.1-3.4,1.6-5.9,1.8c-11.7,1.3-14.5-7.8-14.6-8.2l-2.2,0.6c0,0.1,2.6,8.7,12.4,9.8
					c1.4,0.2,2.9,0.2,4.6,0c3.2-0.4,5.8-1.3,7.6-2.8c4,2.2,7.4,3.6,12.8,3.8l-0.8,78.5l4.3,0.2l0.2-78.5c2.1-0.1,4.2-0.3,6.4-0.8
					c5.1-1.2,8.7-3.8,11.3-6.6c0,0,0.1,0,0.1,0c0.5,0,0.9,0.1,1.4,0.1c9.9,0,13.6-8.5,13.6-8.6L212.1,704.4z"/>
				<path id="XMLID_101_" class="st78" d="M189.1,720.2c-0.3-0.1-6.8-3.3-9.6-11.4c-2.5-7.3-1.1-16,4-25.9l2.2,1.1
					c-4.8,9.3-6.1,17.4-3.9,24c2.4,7.2,8.3,10,8.3,10L189.1,720.2z"/>
				<path id="XMLID_100_" class="st78" d="M189.4,694.4c-2.7,0-5.4-0.7-8-2c-6-3.2-9.7-10.2-9.9-18.8l2.4,0
					c0.1,7.6,3.3,13.9,8.6,16.7c6.1,3.3,13.7,1.8,17.9-3.7l1.9,1.5C199.2,692.2,194.4,694.4,189.4,694.4z"/>
				<path id="XMLID_99_" class="st78" d="M152.3,700.8c-4.2,0-7.7-1.1-10.2-3.3c-4-3.5-4.3-8.5-4.3-8.7l2.4-0.1c0,0,0.3,4.2,3.5,7
					c2.4,2.1,6,3,10.5,2.7l0.2,2.4C153.6,700.7,153,700.8,152.3,700.8z"/>
			</g>
			<g id="XMLID_90_">
				<path id="XMLID_97_" class="st71" d="M213.4,708.3c8.2,33.5,41.5,46.4,64.4,33.5c16.7-9.4,30.7-39.9,22-62.2
					c-8.8-22.3-26.4-37.6-44.8-39.9c-23.7-1.2-46.6,27-43.3,58.3C211.9,701.4,212.5,704.8,213.4,708.3"/>
				<g id="XMLID_91_">
					<path id="XMLID_96_" class="st78" d="M228.2,719.1c0.1,0.3,2.7,6,9.6,6.1c-3-4.4-3.6-8.9-3.6-9l1.9-0.2c0,0.3,0.6,4.9,3.9,9
						c1.6-0.3,2.9-1,3.9-2.1c2.2-2.7,1.8-6.9,1.8-6.9l1.9-0.2c0,0.2,0.6,5-2.2,8.3c-1,1.2-2.3,2.1-3.9,2.5c1.9,1.8,4.4,3.4,7.8,4.2
						c6.8,1.6,12.9,0.2,17.6-2.3c-4.1-4.9-1.4-16.4-1.4-16.5l1.8,0.6c-0.1,0.3-2.6,10.8,1.2,14.9c2.8-1.7,4.5-3.9,5.7-5.9
						c2.3-3.7,1.3-9.2,0.3-12.7c0.1,0,1.4-0.6,1.9-0.7c1.2,3.2,2.7,9.3-0.6,14.5c-1.3,2-3,4.3-5.8,6.1c1.2,0.9,2.9,1.3,5,1.6
						c9.9,1.1,12.2-6.6,12.3-7l1.8,0.5c0,0.1-2.2,7.4-10.5,8.3c-1.2,0.1-2.5,0.1-3.9,0c-2.7-0.3-4.9-1.1-6.5-2.4
						c-3.4,1.9-6.3,3-10.8,3.2l0.6,66.4l-3.6,0.2l-0.2-66.4c-1.8,0-3.6-0.3-5.4-0.7c-4.3-1-7.4-3.2-9.5-5.6c0,0-0.1,0-0.1,0
						c-0.4,0-0.8,0-1.2,0c-8.4,0-11.5-7.2-11.5-7.3L228.2,719.1z"/>
					<path id="XMLID_95_" class="st78" d="M247.7,732.4c0.2-0.1,5.8-2.8,8.1-9.7c2.1-6.1,0.9-13.5-3.4-21.9l-1.8,0.9
						c4.1,7.9,5.2,14.7,3.3,20.3c-2.1,6.1-7,8.5-7,8.5L247.7,732.4z"/>
					<path id="XMLID_94_" class="st78" d="M247.4,710.6c2.3,0,4.6-0.6,6.8-1.7c5.1-2.7,8.2-8.7,8.4-15.9l-2.1,0
						c-0.1,6.5-2.8,11.7-7.3,14.1c-5.2,2.8-11.6,1.5-15.1-3.1l-1.6,1.2C239.1,708.7,243.2,710.6,247.4,710.6z"/>
					<path id="XMLID_93_" class="st78" d="M278.8,716c3.6,0,6.5-1,8.7-2.8c3.4-3,3.7-7.2,3.7-7.4l-2.1-0.1c0,0-0.2,3.6-3,6
						c-2.1,1.8-5.1,2.5-8.8,2.2l-0.2,2C277.7,715.9,278.2,716,278.8,716z"/>
					<path id="XMLID_92_" class="st78" d="M261.4,701.8c3.6,0,6.5-1,8.7-2.8c3.4-3,3.7-7.2,3.7-7.4l-2.1-0.1c0,0-0.2,3.6-3,6
						c-2.1,1.8-5.1,2.5-8.8,2.2l-0.2,2C260.3,701.8,260.8,701.8,261.4,701.8z"/>
				</g>
			</g>
		</g>
	</g>
	<g>
		<g id="XMLID_82_">
			<polygon id="XMLID_88_" class="st77" points="1829,726.7 1811.7,696 1819.8,695.4 1806.8,675.3 1814.9,674.7 1797.6,652.1 
				1805.2,651.5 1788.4,622.6 1788.3,623.3 1788.3,622.4 1771.5,651.2 1779.1,651.9 1761.8,674.4 1769.9,675.1 1756.9,695.1 
				1765,695.8 1747.7,726.5 1761.9,726.3 1761.9,726.4 			"/>
			<rect id="XMLID_87_" x="1785.3" y="719.4" class="st78" width="6.2" height="31"/>
			<polygon id="XMLID_86_" class="st79" points="1840.8,739 1832.9,716.4 1838.8,715.9 1829.3,701.1 1835.3,700.7 1822.5,684 
				1828.1,683.6 1815.7,662.3 1815.6,662.8 1815.6,662.1 1803.3,683.4 1808.8,683.9 1796.1,700.5 1802.1,701 1792.5,715.8 
				1798.5,716.2 1785.7,738.9 1796.2,738.7 1796.2,738.8 			"/>
			<rect id="XMLID_85_" x="1813.4" y="733.5" class="st78" width="4.6" height="16.7"/>
			<polygon id="XMLID_84_" class="st79" points="1784.5,741 1774,722.3 1778.9,722 1771,709.8 1776,709.4 1765.5,695.7 1770,695.3 
				1759.9,677.8 1759.8,678.2 1759.8,677.7 1749.6,695.2 1754.2,695.6 1743.7,709.3 1748.6,709.6 1740.7,721.8 1745.7,722.2 
				1735.2,740.9 1743.8,740.8 1743.8,740.8 			"/>
			<rect id="XMLID_83_" x="1757.9" y="736.4" class="st78" width="3.8" height="13.8"/>
		</g>
		<g id="XMLID_71_">
			<rect id="XMLID_81_" x="1843.9" y="734.1" class="st78" width="3.5" height="21.3"/>
			<path id="XMLID_80_" class="st71" d="M1813.9,704.6c0-5.1,3.1-9.4,7.4-11.3c-0.2-0.8-0.3-1.7-0.3-2.6c0-6,4.8-10.8,10.8-10.8
				c1.1,0,2.1,0.2,3.1,0.5c0-0.2,0-0.3,0-0.5c0,0,0-0.1,0-0.1c0,0,0-0.1,0-0.1c0-5.9,4.8-10.7,10.7-10.7s10.7,4.8,10.7,10.7
				c0,0,0,0.1,0,0.1c0,0,0,0.1,0,0.1c0,0.3,0,0.5,0,0.8c1-0.3,2-0.5,3.1-0.5c6,0,10.8,4.8,10.8,10.8c0,0.9-0.1,1.8-0.3,2.6
				c4.4,1.9,7.4,6.2,7.4,11.3c0,4.8-2.7,8.9-6.7,11c0.5,1.3,0.8,2.7,0.8,4.2c0,6.3-5.1,11.4-11.4,11.4c-2.1,0-4.1-0.6-5.8-1.6
				c-1.3,3.5-4.7,6-8.6,6c-4,0-7.5-2.6-8.7-6.2c-1.7,1-3.6,1.5-5.7,1.5c-6.3,0-11.4-5.1-11.4-11.4c0-1.5,0.3-2.9,0.8-4.2
				C1816.7,713.5,1813.9,709.4,1813.9,704.6"/>
			<path id="XMLID_79_" class="st80" d="M1864.5,694c0-4.7-3.8-8.6-8.6-8.6c-0.7,0-1.4,0.1-2.1,0.3c1.4-1.2,3.1-1.9,5.1-1.9
				c4.3,0,7.8,3.5,7.8,7.8c0,2.5-1.2,4.7-3,6.1C1864.2,696.5,1864.5,695.3,1864.5,694"/>
			<path id="XMLID_78_" class="st80" d="M1828.6,700.7c-4.7,0.2-8.4,4.3-8.1,9c0,0.7,0.2,1.4,0.4,2.1c-1.2-1.3-2.1-3-2.2-5
				c-0.2-4.3,3.1-7.9,7.4-8.2c2.5-0.1,4.8,0.9,6.3,2.7C1831.2,700.9,1829.9,700.6,1828.6,700.7"/>
			<path id="XMLID_77_" class="st80" d="M1871.3,709c-0.4-4.7-4.5-8.3-9.2-7.9c-0.7,0.1-1.4,0.2-2.1,0.4c1.3-1.3,3-2.1,4.9-2.3
				c4.3-0.3,8,2.8,8.4,7.1c0.2,2.5-0.8,4.8-2.5,6.4C1871.2,711.6,1871.4,710.3,1871.3,709"/>
			<path id="XMLID_76_" class="st80" d="M1850.8,678c-3.4-3.4-8.8-3.4-12.1,0c-0.5,0.5-0.9,1.1-1.3,1.7c0.1-1.8,0.9-3.6,2.2-4.9
				c3-3,8-3,11,0c1.8,1.8,2.5,4.2,2.2,6.5C1852.4,680,1851.8,678.9,1850.8,678"/>
			<path id="XMLID_75_" class="st80" d="M1834.4,685.8c-4.7,0-8.6,3.8-8.6,8.6c0,0.7,0.1,1.4,0.3,2.1c-1.2-1.4-1.9-3.1-1.9-5.1
				c0-4.3,3.5-7.8,7.8-7.8c2.5,0,4.7,1.2,6.1,3C1836.9,686.1,1835.7,685.8,1834.4,685.8"/>
			<path id="XMLID_74_" class="st80" d="M1824.6,718c0,4.7,3.8,8.6,8.6,8.6c0.7,0,1.4-0.1,2.1-0.3c-1.4,1.2-3.1,1.9-5.1,1.9
				c-4.3,0-7.8-3.5-7.8-7.8c0-2.5,1.2-4.7,3-6.1C1824.9,715.4,1824.6,716.7,1824.6,718"/>
			<path id="XMLID_73_" class="st80" d="M1840,727.2c3.4,3.4,8.8,3.4,12.1,0c0.5-0.5,0.9-1.1,1.3-1.7c-0.1,1.8-0.9,3.6-2.2,4.9
				c-3,3-8,3-11,0c-1.8-1.8-2.5-4.2-2.2-6.5C1838.4,725.2,1839,726.3,1840,727.2"/>
			<path id="XMLID_72_" class="st80" d="M1859.3,726.4c4.7,0,8.6-3.8,8.6-8.6c0-0.7-0.1-1.4-0.3-2.1c1.2,1.4,1.9,3.1,1.9,5.1
				c0,4.3-3.5,7.8-7.8,7.8c-2.5,0-4.7-1.2-6.1-3C1856.7,726.1,1858,726.4,1859.3,726.4"/>
		</g>
		<g id="XMLID_9_">
			<g id="XMLID_63_">
				<path id="XMLID_70_" class="st77" d="M1696.1,730.8c3.9,16.2,19.9,22.5,30.8,16.2c8-4.6,14.7-19.4,10.5-30.2
					c-4.2-10.8-12.6-18.2-21.4-19.4c-11.4-0.6-22.3,13.1-20.7,28.3C1695.3,727.4,1695.6,729.1,1696.1,730.8"/>
				<g id="XMLID_64_">
					<path id="XMLID_69_" class="st78" d="M1703.1,736c0.1,0.1,1.3,2.9,4.6,3c-1.4-2.1-1.7-4.3-1.7-4.3l0.9-0.1
						c0,0.1,0.3,2.4,1.9,4.4c0.8-0.1,1.4-0.5,1.9-1c1.1-1.3,0.9-3.3,0.9-3.4l0.9-0.1c0,0.1,0.3,2.4-1.1,4c-0.5,0.6-1.1,1-1.9,1.2
						c0.9,0.9,2.1,1.7,3.7,2c3.2,0.8,6.2,0.1,8.4-1.1c-2-2.4-0.7-7.9-0.6-8l0.9,0.3c-0.1,0.2-1.3,5.2,0.6,7.2
						c1.4-0.8,2.2-1.9,2.7-2.9c1.1-1.8,0.6-4.5,0.1-6.2c0,0,0.7-0.3,0.9-0.3c0.6,1.6,1.3,4.5-0.3,7c-0.6,1-1.4,2.1-2.8,3
						c0.6,0.5,1.4,0.6,2.4,0.8c4.8,0.5,5.9-3.2,5.9-3.4l0.9,0.2c0,0-1,3.6-5,4c-0.6,0.1-1.2,0.1-1.9,0c-1.3-0.1-2.4-0.5-3.1-1.2
						c-1.6,0.9-3,1.5-5.2,1.6l0.3,32.3l-1.7,0.1l-0.1-32.2c-0.8,0-1.7-0.1-2.6-0.3c-2.1-0.5-3.5-1.5-4.6-2.7c0,0,0,0-0.1,0
						c-0.2,0-0.4,0-0.6,0c-4,0-5.5-3.5-5.5-3.5L1703.1,736z"/>
					<path id="XMLID_68_" class="st78" d="M1712.5,742.5c0.1-0.1,2.8-1.4,3.9-4.7c1-3,0.5-6.6-1.6-10.6l-0.9,0.4
						c2,3.8,2.5,7.1,1.6,9.9c-1,2.9-3.3,4.1-3.4,4.1L1712.5,742.5z"/>
					<path id="XMLID_67_" class="st78" d="M1712.3,731.9c1.1,0,2.2-0.3,3.2-0.8c2.4-1.3,3.9-4.2,4-7.7l-1,0
						c-0.1,3.1-1.4,5.7-3.5,6.9c-2.5,1.4-5.5,0.7-7.2-1.5l-0.8,0.6C1708.4,731,1710.3,731.9,1712.3,731.9z"/>
					<path id="XMLID_66_" class="st78" d="M1727.4,734.5c1.7,0,3.1-0.5,4.2-1.4c1.6-1.4,1.8-3.5,1.8-3.6l-1,0c0,0-0.1,1.7-1.4,2.9
						c-1,0.9-2.4,1.2-4.2,1.1l-0.1,1C1726.8,734.5,1727.1,734.5,1727.4,734.5z"/>
					<path id="XMLID_65_" class="st78" d="M1719.1,727.7c1.7,0,3.1-0.5,4.2-1.4c1.6-1.4,1.8-3.5,1.8-3.6l-1,0c0,0-0.1,1.7-1.4,2.9
						c-1,0.9-2.4,1.2-4.2,1.1l-0.1,1C1718.5,727.7,1718.8,727.7,1719.1,727.7z"/>
				</g>
			</g>
			<g id="XMLID_57_">
				<path id="XMLID_62_" class="st79" d="M1662.1,716.1c5.2,21.6,26.5,30,41,21.6c10.6-6.1,19.6-25.8,14-40.2
					c-5.6-14.4-16.8-24.3-28.6-25.8c-15.1-0.8-29.7,17.5-27.6,37.7C1661.1,711.6,1661.5,713.8,1662.1,716.1"/>
				<path id="XMLID_61_" class="st78" d="M1710.5,723.1c-0.1,0.2-1.7,3.9-6.1,3.9c1.9-2.8,2.3-5.7,2.3-5.8l-1.2-0.1
					c0,0.2-0.4,3.2-2.5,5.8c-1-0.2-1.9-0.7-2.5-1.4c-1.4-1.7-1.1-4.5-1.1-4.5l-1.2-0.1c0,0.1-0.4,3.2,1.4,5.4
					c0.6,0.8,1.5,1.3,2.5,1.6c-1.2,1.2-2.8,2.2-5,2.7c-4.3,1-8.2,0.1-11.2-1.5c2.6-3.1,0.9-10.6,0.9-10.6l-1.2,0.4
					c0.1,0.2,1.7,7-0.8,9.6c-1.8-1.1-2.9-2.5-3.7-3.8c-1.5-2.4-0.8-5.9-0.2-8.2c0,0-0.9-0.4-1.2-0.4c-0.8,2.1-1.7,6,0.4,9.4
					c0.8,1.3,1.9,2.8,3.7,4c-0.8,0.6-1.9,0.9-3.2,1c-6.3,0.7-7.8-4.3-7.9-4.5l-1.2,0.3c0,0.1,1.4,4.8,6.7,5.4c0.7,0.1,1.6,0.1,2.5,0
					c1.7-0.2,3.2-0.7,4.1-1.5c2.2,1.2,4,1.9,6.9,2.1l-0.4,42.9l2.3,0.1l0.1-42.9c1.1,0,2.3-0.2,3.5-0.5c2.7-0.7,4.7-2.1,6.1-3.6
					c0,0,0,0,0.1,0c0.3,0,0.5,0,0.8,0c5.3,0,7.3-4.6,7.3-4.7L1710.5,723.1z"/>
				<path id="XMLID_60_" class="st78" d="M1698.1,731.7c-0.1-0.1-3.7-1.8-5.2-6.2c-1.3-4-0.6-8.7,2.2-14.2l1.2,0.6
					c-2.6,5.1-3.3,9.5-2.1,13.1c1.3,3.9,4.5,5.5,4.5,5.5L1698.1,731.7z"/>
				<path id="XMLID_59_" class="st78" d="M1698.3,717.6c-1.5,0-2.9-0.4-4.3-1.1c-3.3-1.8-5.2-5.6-5.3-10.3l1.3,0
					c0.1,4.2,1.8,7.6,4.6,9.1c3.3,1.8,7.4,1,9.6-2l1,0.8C1703.5,716.3,1700.9,717.6,1698.3,717.6z"/>
				<path id="XMLID_58_" class="st78" d="M1678.2,721.1c-2.3,0-4.1-0.6-5.5-1.8c-2.2-1.9-2.3-4.6-2.3-4.8l1.3-0.1
					c0,0,0.1,2.3,1.9,3.8c1.3,1.2,3.2,1.6,5.6,1.5l0.1,1.3C1679,721,1678.6,721.1,1678.2,721.1z"/>
			</g>
			<g id="XMLID_11_">
				<path id="XMLID_56_" class="st71" d="M1711.2,725.2c4.4,18.3,22.4,25.4,34.7,18.3c9-5.1,16.6-21.8,11.8-34
					c-4.7-12.2-14.2-20.6-24.2-21.8c-12.8-0.6-25.1,14.8-23.4,31.9C1710.4,721.4,1710.7,723.3,1711.2,725.2"/>
				<g id="XMLID_50_">
					<path id="XMLID_55_" class="st78" d="M1719.2,731.1c0.1,0.1,1.4,3.3,5.2,3.3c-1.6-2.4-1.9-4.9-1.9-4.9l1-0.1
						c0,0.2,0.3,2.7,2.1,4.9c0.9-0.2,1.6-0.6,2.1-1.2c1.2-1.5,1-3.8,1-3.8l1-0.1c0,0.1,0.3,2.7-1.2,4.6c-0.5,0.7-1.3,1.1-2.1,1.4
						c1,1,2.4,1.9,4.2,2.3c3.6,0.9,7,0.1,9.5-1.2c-2.2-2.7-0.7-9-0.7-9l1,0.3c-0.1,0.2-1.4,5.9,0.7,8.2c1.5-0.9,2.4-2.2,3.1-3.2
						c1.2-2,0.7-5,0.1-7c0,0,0.7-0.3,1-0.4c0.6,1.8,1.5,5.1-0.3,7.9c-0.7,1.1-1.6,2.4-3.1,3.3c0.7,0.5,1.6,0.7,2.7,0.8
						c5.4,0.6,6.6-3.6,6.7-3.8l1,0.3c0,0-1.2,4-5.6,4.6c-0.6,0.1-1.3,0.1-2.1,0c-1.4-0.2-2.7-0.6-3.5-1.3c-1.8,1-3.4,1.6-5.8,1.8
						l0.3,36.3l-2,0.1l-0.1-36.3c-1,0-1.9-0.1-2.9-0.4c-2.3-0.6-4-1.7-5.1-3.1c0,0,0,0-0.1,0c-0.2,0-0.4,0-0.6,0
						c-4.5,0-6.2-3.9-6.2-4L1719.2,731.1z"/>
					<path id="XMLID_54_" class="st78" d="M1729.7,738.3c0.1-0.1,3.1-1.5,4.4-5.3c1.1-3.4,0.5-7.4-1.8-12l-1,0.5
						c2.2,4.3,2.8,8.1,1.8,11.1c-1.1,3.3-3.8,4.6-3.8,4.6L1729.7,738.3z"/>
					<path id="XMLID_53_" class="st78" d="M1729.5,726.4c1.2,0,2.5-0.3,3.6-0.9c2.8-1.5,4.4-4.7,4.5-8.7l-1.1,0
						c-0.1,3.5-1.5,6.4-3.9,7.7c-2.8,1.5-6.2,0.8-8.2-1.7l-0.9,0.7C1725.1,725.4,1727.3,726.4,1729.5,726.4z"/>
					<path id="XMLID_52_" class="st78" d="M1746.5,729.4c1.9,0,3.5-0.5,4.7-1.6c1.8-1.6,2-3.9,2-4l-1.1-0.1c0,0-0.1,1.9-1.6,3.3
						c-1.1,1-2.7,1.4-4.8,1.2l-0.1,1.1C1745.9,729.4,1746.2,729.4,1746.5,729.4z"/>
					<path id="XMLID_51_" class="st78" d="M1737.1,721.6c1.9,0,3.5-0.5,4.7-1.6c1.8-1.6,2-3.9,2-4l-1.1-0.1c0,0-0.1,1.9-1.6,3.3
						c-1.1,1-2.7,1.4-4.8,1.2l-0.1,1.1C1736.5,721.6,1736.8,721.6,1737.1,721.6z"/>
				</g>
			</g>
		</g>
	</g>
	<g>
		<g>
			<rect x="1433.2" y="625.6" class="st110" width="67.1" height="117.5"/>
		</g>
		<g>
			<rect x="1416.4" y="763.8" class="st110" width="101.2" height="37.1"/>
		</g>
		<g>
			<path class="st111" d="M1467.2,742.3L1467.2,742.3c-1.1,0-2-0.9-2-2V631.8c0-1.1,0.9-2,2-2h0c1.1,0,2,0.9,2,2v108.4
				C1469.2,741.4,1468.3,742.3,1467.2,742.3z"/>
		</g>
		<g>
			<path class="st112" d="M1413.3,611.3c0,0,33.1,3.4,54.5-27.7l0,0c0,0,19.9,35.2,55.7,27.7
				C1523.5,611.3,1471.2,659.8,1413.3,611.3z"/>
		</g>
		<g class="st113">
			<path class="st114" d="M1499.3,718.1c1.1,0,2.1,0,3.2,0.1c0,6.8,0,13.6,0,20.5c-1.1,0-2.2,0-3.3,0
				C1499.3,731.8,1499.3,725,1499.3,718.1z"/>
		</g>
		<g class="st113">
			<path class="st114" d="M1434.7,664.1c-1.1,0-2.2,0-3.2,0.1c0-6.2-0.1-12.4-0.1-18.7l0.1,0.1l0.1-0.1c1,0,2,0,3,0
				C1434.6,651.8,1434.7,658,1434.7,664.1z"/>
		</g>
		<g class="st113">
			<path class="st115" d="M1443.4,795.8c1.4,0,2.7,0,4.1,0c0,1.9,0,3.9,0,5.8c-1.3,0-2.7,0-4,0
				C1443.4,799.7,1443.4,797.7,1443.4,795.8z"/>
		</g>
		<g class="st113">
			<path class="st116" d="M1483.9,795.7c1.4,0,2.7,0.1,4.1,0.1c0,1.9-0.1,3.9-0.1,5.8c-1.3,0-2.7,0-4-0.1
				C1483.9,799.6,1483.9,797.7,1483.9,795.7z"/>
		</g>
		<g class="st113">
			<path class="st114" d="M1414.3,795.8c1.1,0,2.1,0,3.2-0.1c0,1.9,0,3.9,0,5.8c-1,0-2,0-3.2,0
				C1414.3,799.6,1414.3,797.7,1414.3,795.8z"/>
		</g>
		<g class="st113">
			<path class="st117" d="M1417.5,776.2c-1-0.5-2.1-0.9-3.1-1.4c0-0.9,0-1.8,0-2.7c1-0.2,2.1-0.5,3.1-0.7c0,1.6,0.1,3.2,0.1,4.8
				L1417.5,776.2z"/>
		</g>
		<g class="st113">
			<path class="st118" d="M1514.7,770.8c1.2-0.1,2.4-0.1,3.6-0.2c0,0.9,0,1.9,0,2.8c-1.1,0.2-2.2,0.5-3.3,0.7
				C1514.9,773.1,1514.8,771.9,1514.7,770.8z"/>
		</g>
		<g class="st113">
			<path class="st117" d="M1434.5,629.7c-1-0.2-2-0.5-3-0.7c-0.1-0.9-0.1-1.7-0.2-2.6c1.1,0.2,2.3,0.4,3.4,0.6
				C1434.7,627.9,1434.6,628.8,1434.5,629.7z"/>
		</g>
		<g>
			<rect x="1430.9" y="626.2" class="st111" width="4" height="112.4"/>
		</g>
		<g>
			<rect x="1498.3" y="625.7" class="st111" width="4" height="112.4"/>
		</g>
		<g>
			<path class="st111" d="M1425.1,646.7L1425.1,646.7c0-1.5,1.2-2.7,2.7-2.7h78.8c1.5,0,2.7,1.2,2.7,2.7l0,0c0,1.5-1.2,2.7-2.7,2.7
				h-78.8C1426.3,649.4,1425.1,648.2,1425.1,646.7z"/>
		</g>
		<g>
			<path class="st111" d="M1425.1,713.5L1425.1,713.5c0-1.5,1.2-2.7,2.7-2.7h78.8c1.5,0,2.7,1.2,2.7,2.7v0c0,1.5-1.2,2.7-2.7,2.7
				h-78.8C1426.3,716.2,1425.1,715,1425.1,713.5z"/>
		</g>
		<g>
			<path class="st111" d="M1409.8,791.5L1409.8,791.5c0-1.1,0.9-2.1,2.1-2.1h108.5c1.1,0,2.1,0.9,2.1,2.1l0,0c0,1.1-0.9,2.1-2.1,2.1
				h-108.5C1410.7,793.5,1409.8,792.6,1409.8,791.5z"/>
		</g>
		<g>
			<rect x="1514.3" y="763.9" class="st111" width="4" height="37.1"/>
		</g>
		<g>
			<rect x="1483.7" y="769.5" class="st111" width="4" height="31.9"/>
		</g>
		<g>
			<rect x="1443.3" y="768" class="st111" width="4" height="34.1"/>
		</g>
		<g>
			<rect x="1414.1" y="767.3" class="st111" width="4" height="34.1"/>
		</g>
		<g>
			<path class="st111" d="M1466.8,635c-8.3,0-16.7-1.5-24.9-4.3c-20.3-7.2-32.7-20.5-33.2-21.1c-0.7-0.7-0.6-1.8,0.1-2.5
				c0.7-0.7,1.8-0.6,2.5,0.1l0,0c0.1,0.1,12.3,13.4,31.9,20.2c11.4,4,23.1,5.1,34.6,3.2c14.5-2.3,29-9.4,43-20.9
				c0.8-0.6,1.9-0.5,2.5,0.2c0.6,0.8,0.5,1.9-0.2,2.5c-14.5,11.9-29.6,19.2-44.8,21.6C1474.4,634.7,1470.6,635,1466.8,635z"/>
		</g>
		<g>
			<path class="st112" d="M1398.9,682.4c0,0,22.7,0.9,32.4-18h71c0,0,8.5,22.9,34.4,18C1536.6,682.4,1469.5,718.9,1398.9,682.4z"/>
		</g>
		<g>
			<path class="st112" d="M1389,755.5c0,0,32.2,0.8,41.9-18.1l71.3,0.5c0,0,10.5,21.7,38,17.6C1540.2,755.5,1459.7,792,1389,755.5z"
				/>
		</g>
		<g>
			<path class="st111" d="M1466.1,700.3c-9.4,0-18.8-0.9-28.1-2.7c-24.8-4.8-39.9-14.1-40.5-14.5c-0.8-0.5-1.1-1.6-0.6-2.4
				c0.5-0.8,1.6-1.1,2.4-0.6c0.2,0.1,15.3,9.4,39.4,14c14.2,2.7,28.7,3.3,43,1.7c18-2,35.9-7.3,53.2-15.8c0.9-0.4,1.9-0.1,2.4,0.8
				c0.4,0.9,0.1,1.9-0.8,2.4c-17.7,8.8-36,14.2-54.5,16.2C1476.8,700,1471.4,700.3,1466.1,700.3z"/>
		</g>
		<g>
			<path class="st111" d="M1463.4,774.3c-10.3,0-20.7-0.9-30.8-2.7c-27.2-4.7-43.8-14-44.5-14.4c-0.8-0.5-1.1-1.6-0.7-2.4
				c0.5-0.8,1.6-1.1,2.4-0.7c0.2,0.1,16.8,9.4,43.5,14.1c15.6,2.7,31.6,3.3,47.5,1.7c19.8-2,39.6-7.3,58.6-15.9
				c0.9-0.4,1.9,0,2.3,0.9c0.4,0.9,0,1.9-0.9,2.3c-19.5,8.7-39.6,14.2-59.8,16.2C1475.2,774,1469.3,774.3,1463.4,774.3z"/>
		</g>
		<g>
			<path class="st119" d="M1427.4,665.2L1427.4,665.2c0-0.7,0.6-1.3,1.3-1.3h76.3c0.7,0,1.3,0.6,1.3,1.3l0,0c0,0.7-0.6,1.3-1.3,1.3
				h-76.3C1428,666.5,1427.4,665.9,1427.4,665.2z"/>
		</g>
		<g>
			<path class="st119" d="M1426.6,738.2L1426.6,738.2c0-0.7,0.6-1.3,1.3-1.3h76.6c0.7,0,1.3,0.6,1.3,1.3l0,0c0,0.7-0.6,1.3-1.3,1.3
				h-76.6C1427.2,739.5,1426.6,738.9,1426.6,738.2z"/>
		</g>
		<g>
			<g>
				<path class="st112" d="M1467,628.9L1467,628.9c-1.5,0-2.7-1.2-2.7-2.7v-86.5c0-1.5,1.2-2.7,2.7-2.7l0,0c1.5,0,2.7,1.2,2.7,2.7
					v86.5C1469.7,627.7,1468.5,628.9,1467,628.9z"/>
			</g>
			<g>
				<path class="st112" d="M1458.7,565.7L1458.7,565.7c0-0.7,0.6-1.3,1.3-1.3h14.2c0.7,0,1.3,0.6,1.3,1.3l0,0c0,0.7-0.6,1.3-1.3,1.3
					H1460C1459.3,567,1458.7,566.5,1458.7,565.7z"/>
			</g>
			<g>
				<path class="st112" d="M1458.7,551.2L1458.7,551.2c0-0.7,0.6-1.3,1.3-1.3h14.2c0.7,0,1.3,0.6,1.3,1.3l0,0c0,0.7-0.6,1.3-1.3,1.3
					H1460C1459.3,552.6,1458.7,552,1458.7,551.2z"/>
			</g>
			<g>
				<path class="st112" d="M1458.7,558.5L1458.7,558.5c0-0.7,0.6-1.3,1.3-1.3h14.2c0.7,0,1.3,0.6,1.3,1.3l0,0c0,0.7-0.6,1.3-1.3,1.3
					H1460C1459.3,559.8,1458.7,559.2,1458.7,558.5z"/>
			</g>
			<g>
				<path class="st112" d="M1458.7,573L1458.7,573c0-0.7,0.6-1.3,1.3-1.3h14.2c0.7,0,1.3,0.6,1.3,1.3v0c0,0.7-0.6,1.3-1.3,1.3H1460
					C1459.3,574.3,1458.7,573.7,1458.7,573z"/>
			</g>
		</g>
	</g>
	<g>
		<g>
			<g>
				<path class="st120" d="M105.9,1090.3c16-58.7,29.6-114.3,35.9-153.1c0,0-20.8,64.8-50,153.1H105.9z"/>
			</g>
			<g>
				<path class="st120" d="M141.6,1090.3c12.2-46.6,22.2-89.5,27.4-121.2c0,0-15.9,49.6-39.5,121.2H141.6z"/>
			</g>
			<g>
				<path class="st120" d="M116.7,1090.3c12.2-46.6,21.6-87.2,26.8-118.9c0,0-16.2,47.3-39.7,118.9H116.7z"/>
			</g>
			<path class="st121" d="M47.6,1090.3c20.1-39.9,41.5-81.6,64.6-125.6c-41,24.8-80,69.1-116.7,125.6H47.6z"/>
			<path class="st120" d="M-5.6,1054.9c24.5-49.5,51.1-101.5,80.4-157.3c-27.7,16.8-54.6,42.5-80.4,74.9V1054.9z"/>
			<path class="st122" d="M88.2,1090.3c22.1-88.6,34.1-146.7,34.1-146.7c-18.8,52-36.3,100.6-53,146.7H88.2z"/>
			<path class="st122" d="M33.6,1090.3c24.7-97.5,38.1-162.6,38.1-162.6c-20.9,58-40.3,111.8-58.7,162.6H33.6z"/>
			<path class="st122" d="M-5.6,986.7v3.5c2.9-4.8,5.8-9.5,8.8-14.3C0.2,979.5-2.7,983.1-5.6,986.7z"/>
			<path class="st123" d="M103.8,1090.3c1.3-52.8-1.9-105.1-10.8-155.9c-10,48.4-25.3,99.7-38.7,155.9H103.8z"/>
			<path class="st123" d="M-5.6,1027.5v62.8h1.3c6.6-44.3,12.5-90.5,17.3-139C6.9,977.2,0.6,1002.6-5.6,1027.5z"/>
			<g>
				<path class="st124" d="M65.8,1090.3c8-32.5,14.5-62,18.3-85.3c0,0-10.8,33.6-27.7,85.3H65.8z"/>
			</g>
			<g>
				<path class="st123" d="M157.7,1090.3c17.6-80.2,30.4-145.3,29.8-162.4c0,0-18.7,69.4-44.7,162.4H157.7z"/>
			</g>
			<g>
				<path class="st123" d="M50.6,885c0,0-24.4,90.5-56.2,203.4v1.9h16.9C33.5,991.2,51.2,905.1,50.6,885z"/>
			</g>
			<g>
				<path class="st125" d="M54,1090.3c1.6-10.3,2.7-19.4,3.3-27.1c0,0-3.1,9.9-8.5,27.1H54z"/>
			</g>
			<g>
				<path class="st126" d="M-5.6,1090.3H6.7c-0.4-34-3.3-65.9-9.7-93.3c0,0-0.9,9.1-2.6,25V1090.3z"/>
			</g>
			<g>
				<path class="st126" d="M54,1090.3c13.8-39.3,22.9-65.1,22.9-65.1c-9.9,16.1-21.5,38.6-34.2,65.1H54z"/>
			</g>
			<path class="st123" d="M131.7,1090.3c4.3-31.8,8.2-64.5,11.5-98.4c-8.1,34.3-19.8,66.6-30.7,98.4H131.7z"/>
			<g>
				<path class="st127" d="M21.9,1090.3c11.6-44.8,21.2-85.9,26.2-116.6c0,0-15.2,47.5-37.9,116.6H21.9z"/>
			</g>
			<polygon class="st127" points="157.7,1090.3 187.5,1027.5 179,1090.3 			"/>
			<polygon class="st123" points="173.8,1090.3 170.4,1043.7 161.7,1090.3 			"/>
		</g>
		<g>
			<g>
				<path class="st120" d="M1811.6,1080.3c-15.9-66.1-29.4-128.6-35.7-172.3c0,0,20.7,73,49.7,172.3H1811.6z"/>
			</g>
			<g>
				<path class="st120" d="M1776.1,1080.3c-12.1-52.4-22.1-100.7-27.2-136.4c0,0,15.8,55.8,39.2,136.4H1776.1z"/>
			</g>
			<g>
				<path class="st120" d="M1800.9,1080.3c-12.1-52.4-21.5-98.1-26.6-133.8c0,0,16.1,53.3,39.5,133.8H1800.9z"/>
			</g>
			<path class="st121" d="M1919.4,1076.9c-35.9-62-74.1-110.5-114.1-137.9c23,49.6,44.3,96.4,64.3,141.3h49.8V1076.9z"/>
			<path class="st120" d="M1919.4,943.3c-24.7-34.4-50.4-61.8-76.9-79.9c28,60.1,53.4,116.3,76.9,169.9V943.3z"/>
			<path class="st122" d="M1829.3,1080.3c-22-99.7-34-165.1-34-165.1c18.7,58.5,36.1,113.2,52.7,165.1H1829.3z"/>
			<path class="st122" d="M1883.6,1080.3c-24.5-109.7-37.9-182.9-37.9-182.9c20.8,65.3,40.1,125.8,58.4,182.9H1883.6z"/>
			<path class="st122" d="M1919.4,959.3c-1.9-2.6-3.7-5.2-5.6-7.8c1.9,3.4,3.7,6.9,5.6,10.3V959.3z"/>
			<path class="st123" d="M1813.7,1080.3c-1.2-59.4,1.9-118.3,10.7-175.4c10,54.5,25.1,112.2,38.5,175.4H1813.7z"/>
			<path class="st123" d="M1919.4,995.5c-5.2-23.5-10.3-47.3-15.4-71.6c4.4,49.4,9.6,96.8,15.4,142.3V995.5z"/>
			<g>
				<path class="st124" d="M1851.5,1080.3c-8-36.6-14.4-69.7-18.2-96c0,0,10.7,37.8,27.5,96H1851.5z"/>
			</g>
			<g>
				<path class="st123" d="M1760.1,1080.3c-17.5-90.3-30.2-163.5-29.7-182.8c0,0,18.6,78.1,44.5,182.8H1760.1z"/>
			</g>
			<g>
				<path class="st123" d="M1919.4,1065.6c-30.1-121.1-52.8-216.4-52.8-216.4c-0.6,22.6,17,119.5,39.2,231.1h13.6V1065.6z"/>
			</g>
			<g>
				<path class="st125" d="M1863.2,1080.3c-1.6-11.5-2.7-21.8-3.2-30.4c0,0,3.1,11.2,8.5,30.4H1863.2z"/>
			</g>
			<g>
				<path class="st126" d="M1919.4,977.9c-6,30.2-8.7,65.2-9.1,102.4h9.1V977.9z"/>
			</g>
			<g>
				<path class="st126" d="M1863.3,1080.3c-13.7-44.2-22.8-73.3-22.8-73.3c9.8,18.2,21.4,43.4,34,73.3H1863.3z"/>
			</g>
			<path class="st123" d="M1786,1080.3c-4.3-35.8-8.1-72.6-11.5-110.7c8.1,38.6,19.7,75,30.6,110.7H1786z"/>
			<g>
				<path class="st127" d="M1895.2,1080.3c-11.6-50.4-21.1-96.7-26.1-131.2c0,0,15.1,53.5,37.7,131.2H1895.2z"/>
			</g>
			<polygon class="st127" points="1760.1,1080.3 1730.4,1009.6 1738.9,1080.3 			"/>
			<polygon class="st123" points="1744,1080.3 1747.5,1027.8 1756.1,1080.3 			"/>
		</g>
	</g>
</g>
</svg>
